<?xml version="1.0" encoding="utf-8" standalone="no"?>
<!DOCTYPE svg PUBLIC "-//W3C//DTD SVG 1.1//EN"
  "http://www.w3.org/Graphics/SVG/1.1/DTD/svg11.dtd">
<svg xmlns:xlink="http://www.w3.org/1999/xlink" width="441.903125pt" height="270.01625pt" viewBox="0 0 441.903125 270.01625" xmlns="http://www.w3.org/2000/svg" version="1.1">
 <metadata>
  <rdf:RDF xmlns:dc="http://purl.org/dc/elements/1.1/" xmlns:cc="http://creativecommons.org/ns#" xmlns:rdf="http://www.w3.org/1999/02/22-rdf-syntax-ns#">
   <cc:Work>
    <dc:type rdf:resource="http://purl.org/dc/dcmitype/StillImage"/>
    <dc:date>2023-11-01T23:21:07.879240</dc:date>
    <dc:format>image/svg+xml</dc:format>
    <dc:creator>
     <cc:Agent>
      <dc:title>Matplotlib v3.7.1, https://matplotlib.org/</dc:title>
     </cc:Agent>
    </dc:creator>
   </cc:Work>
  </rdf:RDF>
 </metadata>
 <defs>
  <style type="text/css">*{stroke-linejoin: round; stroke-linecap: butt}</style>
 </defs>
 <g id="figure_1">
  <g id="patch_1">
   <path d="M 0 270.01625 
L 441.903125 270.01625 
L 441.903125 0 
L 0 0 
z
" style="fill: #ffffff"/>
  </g>
  <g id="axes_1">
   <g id="patch_2">
    <path d="M 40.603125 232.46 
L 431.203125 232.46 
L 431.203125 10.7 
L 40.603125 10.7 
z
" style="fill: #ffffff"/>
   </g>
   <g id="PolyCollection_1">
    <path d="M 58.35767 163.38699 
L 58.35767 163.38699 
L 58.968229 163.706423 
L 59.044549 164.655141 
L 59.324389 165.575397 
L 59.705988 166.468045 
L 59.782308 167.333914 
L 60.291107 168.173807 
L 61.842944 168.349636 
L 61.919264 168.733146 
L 62.148224 169.105151 
L 63.725501 169.465995 
L 63.852701 169.816014 
L 64.38694 171.646223 
L 64.51414 173.421525 
L 64.69222 175.143568 
L 64.844859 176.81395 
L 65.735258 178.43422 
L 65.786138 179.899404 
L 65.989657 181.320633 
L 66.727416 182.699225 
L 67.236215 183.184637 
L 68.609973 183.655486 
L 68.635413 184.112209 
L 69.144212 185.513532 
L 69.602131 186.872815 
L 69.678451 188.191319 
L 69.703891 189.470268 
L 69.95829 190.710849 
L 71.535568 190.636478 
L 72.222447 190.564339 
L 72.629486 190.174929 
L 72.807566 191.820282 
L 72.833006 193.416274 
L 73.672524 194.964386 
L 74.028683 196.466054 
L 74.232203 197.922673 
L 74.359403 198.48377 
L 74.410283 199.028034 
L 74.715562 199.555971 
L 74.969962 199.429202 
L 76.06388 199.306236 
L 76.2674 199.18696 
L 76.470919 198.964783 
L 77.132358 198.749272 
L 77.361318 197.262492 
L 77.463078 196.246227 
L 77.513957 195.366928 
L 77.870117 194.726963 
L 77.920997 194.106198 
L 78.048197 193.504055 
L 78.099076 194.091233 
L 78.302596 194.660796 
L 78.455236 195.213271 
L 78.480676 196.175084 
L 79.167555 197.108043 
L 80.973792 198.013012 
L 81.024671 198.890833 
L 81.86419 199.742319 
L 81.94051 200.56826 
L 82.372989 201.369423 
L 82.601949 201.827118 
L 82.627389 202.271082 
L 82.780028 202.701727 
L 82.805468 202.26763 
L 82.932668 201.846556 
L 83.390587 201.970503 
L 83.466907 202.090732 
L 83.695867 202.207354 
L 84.942425 202.320477 
L 85.018745 203.707941 
L 85.171384 206.225037 
L 85.324024 208.66662 
L 85.451224 211.034956 
L 85.705623 213.332242 
L 85.858263 215.560609 
L 85.985463 215.912002 
L 87.308341 216.252852 
L 87.43554 216.583478 
L 87.46098 216.904185 
L 87.9189 217.21527 
L 88.249619 216.878156 
L 88.580338 216.231721 
L 89.547057 215.60468 
L 89.979536 214.99645 
L 90.488335 215.364767 
L 90.819055 215.722035 
L 91.378734 216.068585 
L 91.455054 216.404739 
L 91.734893 216.730808 
L 91.811213 215.662882 
L 91.912973 215.159384 
L 93.134091 214.670991 
L 93.28673 214.197249 
L 93.31217 213.73772 
L 93.871849 213.291976 
L 94.177129 212.64665 
L 94.431528 212.020683 
L 95.194727 213.010662 
L 95.474567 213.970943 
L 95.678086 214.902415 
L 95.830726 215.805942 
L 96.644805 216.682364 
L 96.746564 216.148282 
L 97.382563 215.097832 
L 97.789603 214.078896 
L 97.815043 213.090528 
L 98.196642 211.492944 
L 98.298402 209.943288 
L 98.730881 211.421501 
L 99.621279 212.855367 
L 99.824799 214.246218 
L 100.333598 215.595343 
L 100.689758 216.903994 
L 100.918717 218.066908 
L 101.071357 219.194935 
L 101.198557 220.28912 
L 101.376636 221.350481 
L 101.605596 222.38 
L 101.961755 219.971343 
L 102.012635 217.634945 
L 102.088955 215.368639 
L 102.317915 214.128623 
L 103.055674 212.925808 
L 103.208313 211.759077 
L 103.818872 210.627348 
L 104.353111 209.529571 
L 104.811031 209.316549 
L 105.03999 209.109919 
L 105.37071 208.909487 
L 105.447029 208.715069 
L 105.650549 208.526483 
L 106.668147 206.852864 
L 107.100627 204.910021 
L 107.355026 203.025463 
L 107.431346 201.197442 
L 107.940145 199.424261 
L 108.347184 196.958931 
L 108.805104 193.60926 
L 109.110383 190.466557 
L 109.542862 187.844047 
L 109.695502 186.258512 
L 110.306061 184.720544 
L 110.636781 183.228714 
L 110.7131 181.78164 
L 110.73854 180.377977 
L 110.94206 178.696991 
L 111.04382 177.066435 
L 111.2219 175.484795 
L 112.468457 173.950605 
L 112.570217 172.143006 
L 112.748297 170.389636 
L 112.977256 168.688867 
L 113.536936 167.039121 
L 113.638695 167.142512 
L 113.842215 167.242802 
L 114.045735 167.340084 
L 114.147494 167.434447 
L 114.656294 167.525979 
L 114.783493 165.591685 
L 114.808933 163.715421 
L 114.936133 161.895445 
L 115.241413 159.704156 
L 115.317732 157.578606 
L 115.444932 156.15569 
L 115.928291 154.775461 
L 116.335331 153.43664 
L 116.58973 152.137982 
L 116.89501 151.943063 
L 117.556449 151.753992 
L 117.785408 151.570592 
L 118.675807 151.392695 
L 118.701247 151.220135 
L 118.752127 148.923194 
L 119.871485 146.695162 
L 120.075004 144.53397 
L 120.303964 142.331137 
L 120.354844 140.300866 
L 120.482044 139.822194 
L 121.118042 139.357881 
L 121.143482 138.907498 
L 121.397882 138.470626 
L 121.448762 138.046861 
L 121.575962 136.783986 
L 121.932121 135.558997 
L 122.084761 134.370757 
L 122.31372 133.218165 
L 122.69532 134.549141 
L 122.79708 135.840188 
L 122.84796 137.092504 
L 123.483958 138.30725 
L 124.043637 139.485553 
L 124.196277 140.52203 
L 124.628756 141.527412 
L 124.781396 142.502633 
L 125.442835 143.448597 
L 126.027954 144.366183 
L 126.206034 144.084984 
L 126.333234 143.812221 
L 126.663953 143.547642 
L 126.842033 143.290999 
L 127.223632 143.042056 
L 127.605231 141.735803 
L 127.961391 140.468737 
L 128.851789 139.239684 
L 128.877229 138.047501 
L 128.902669 138.914164 
L 130.963306 139.754827 
L 131.192265 140.570269 
L 131.421225 141.361249 
L 131.573864 142.128499 
L 132.184423 140.317263 
L 133.380101 138.560364 
L 133.583621 136.643217 
L 134.499459 134.783584 
L 134.906499 135.109297 
L 134.982819 135.425238 
L 135.186338 135.731701 
L 135.262658 136.028971 
L 135.873217 136.317322 
L 135.974977 134.360988 
L 136.738176 132.463344 
L 137.323295 130.409674 
L 137.704894 128.950003 
L 138.162813 127.534122 
L 138.315453 126.693106 
L 138.722492 126.090277 
L 139.180411 125.505533 
L 139.205851 124.938331 
L 140.07081 124.388145 
L 140.325209 123.854465 
L 140.401529 123.869185 
L 140.426969 124.628807 
L 140.477849 125.365641 
L 140.503289 126.08037 
L 141.139288 126.773658 
L 141.978807 127.446146 
L 142.563926 127.033682 
L 142.996405 126.633591 
L 143.785043 126.245503 
L 144.471922 125.656102 
L 144.599122 125.084383 
L 145.158801 125.168683 
L 145.64216 125.250453 
L 145.69304 125.329771 
L 146.02376 125.406709 
L 146.430799 125.481339 
L 147.168558 126.192597 
L 147.244878 126.882518 
L 147.880876 127.55174 
L 148.542315 128.200886 
L 148.974795 128.830558 
L 149.483594 127.631216 
L 149.941513 126.467855 
L 149.992393 125.765305 
L 150.043273 125.083832 
L 150.195912 124.422804 
L 150.908231 123.781606 
L 151.264391 124.224422 
L 152.689028 124.653954 
L 152.790788 125.0706 
L 152.994308 125.474747 
L 153.070628 125.86677 
L 153.859266 125.075775 
L 154.062786 124.30851 
L 154.393505 123.564263 
L 154.520705 122.309954 
L 154.927744 119.815541 
L 155.054944 118.034827 
L 155.105824 116.839923 
L 155.360224 115.680867 
L 155.461983 114.556582 
L 156.199742 113.466026 
L 156.505022 112.408186 
L 157.827899 110.743215 
L 158.005979 109.341148 
L 158.107739 109.045922 
L 158.387578 108.759553 
L 158.540218 108.481775 
L 158.692858 108.21233 
L 159.252537 107.950969 
L 159.888536 107.697448 
L 159.913976 108.196878 
L 160.219255 108.681325 
L 160.499095 109.151238 
L 160.575415 109.607055 
L 162.025492 110.049196 
L 162.152692 108.880906 
L 162.178132 107.747664 
L 162.432531 106.754898 
L 164.289648 105.791914 
L 164.569488 104.85782 
L 164.594928 105.016528 
L 164.645808 105.170474 
L 164.773007 105.319802 
L 164.798447 105.46465 
L 165.434446 105.605152 
L 165.561646 104.996094 
L 165.637966 104.405309 
L 165.841486 103.938724 
L 166.350285 104.231482 
L 166.426605 104.515458 
L 166.452044 104.790914 
L 166.833644 105.590495 
L 167.240683 106.36609 
L 167.393323 107.118416 
L 167.724042 107.848172 
L 167.774922 108.556036 
L 168.105642 108.497319 
L 169.04692 108.12093 
L 169.657479 107.755833 
L 169.835559 107.401688 
L 169.988198 107.058168 
L 170.598757 106.299042 
L 170.675077 107.372814 
L 171.743555 108.414372 
L 172.176035 109.424683 
L 172.608514 110.404686 
L 172.633954 111.355288 
L 173.142753 110.786682 
L 173.219073 110.874001 
L 173.448032 110.958701 
L 174.363871 111.04086 
L 174.440191 111.120554 
L 174.84723 111.197857 
L 174.89811 112.550575 
L 175.635869 113.862712 
L 176.348187 115.135484 
L 176.551707 116.370074 
L 176.653467 117.567626 
L 176.856987 117.877428 
L 177.136826 118.177936 
L 177.798265 117.191695 
L 177.925465 116.235041 
L 178.332504 115.626521 
L 178.739543 115.036256 
L 178.943063 114.463699 
L 179.172023 113.908318 
L 179.400982 113.369599 
L 179.680822 113.272953 
L 179.706262 113.179206 
L 180.011541 113.088272 
L 180.062421 113.000066 
L 180.138741 112.914506 
L 181.029139 112.192646 
L 181.334419 111.385963 
L 181.817778 110.603481 
L 182.402897 109.844474 
L 182.911696 109.108237 
L 183.929294 108.181131 
L 184.132814 107.281838 
L 184.361774 107.261347 
L 184.438094 107.241471 
L 184.488973 107.222191 
L 185.786411 107.203489 
L 185.862731 107.185349 
L 186.37153 106.848319 
L 186.42241 106.5214 
L 186.44785 106.204288 
L 186.62593 105.89669 
L 187.083849 105.59832 
L 187.796168 107.864369 
L 188.304967 110.062437 
L 188.355847 112.194563 
L 188.508487 114.262725 
L 189.169925 116.268842 
L 189.297125 114.594529 
L 189.729604 113.183401 
L 190.187524 111.814607 
L 190.391043 110.486876 
L 191.179682 109.198978 
L 191.866561 107.949716 
L 192.45168 106.737932 
L 193.189438 105.562502 
L 193.469278 104.422335 
L 193.876317 103.316373 
L 194.232477 102.243589 
L 194.766716 101.202989 
L 195.784314 100.193607 
L 196.343993 99.214507 
L 196.471193 98.264779 
L 197.412471 97.343544 
L 197.692311 96.449945 
L 197.84495 95.583155 
L 198.20111 94.955323 
L 198.25199 94.346327 
L 199.066068 93.755601 
L 199.676627 93.182596 
L 199.981907 92.626782 
L 200.032787 91.981164 
L 200.185426 91.354915 
L 200.490706 90.747453 
L 201.126705 90.158215 
L 201.839024 89.480176 
L 201.889904 88.822479 
L 201.991663 89.462246 
L 202.373263 90.082821 
L 203.416301 90.684778 
L 203.492621 91.268677 
L 204.408459 91.835058 
L 204.840938 91.532626 
L 204.917258 91.239266 
L 205.171658 90.954707 
L 205.629577 90.678685 
L 205.655017 91.262767 
L 206.087496 91.829326 
L 206.163816 92.378888 
L 207.028775 92.911963 
L 207.079655 93.429046 
L 207.257734 93.29175 
L 207.944613 93.158572 
L 208.173573 93.02939 
L 208.707812 93.755906 
L 209.318371 94.460626 
L 209.445571 95.144205 
L 209.59821 95.807276 
L 210.285089 96.450456 
L 210.793888 97.180818 
L 210.921088 97.889269 
L 211.302687 98.576466 
L 211.429887 99.243048 
L 212.065886 99.889632 
L 212.523805 102.007508 
L 212.625565 104.061848 
L 212.752765 106.054558 
L 213.159804 107.987487 
L 213.210684 109.862428 
L 213.617723 108.593263 
L 213.668603 108.533429 
L 213.821243 110.711425 
L 213.872123 112.824081 
L 214.228282 114.873358 
L 214.330042 116.861156 
L 214.915161 118.78932 
L 215.144121 118.743038 
L 215.62748 118.698145 
L 215.907319 119.399943 
L 215.958199 120.080687 
L 216.110839 120.741009 
L 216.441558 121.381521 
L 216.899478 122.002818 
L 217.891636 122.605476 
L 218.476755 123.190055 
L 218.578515 123.757096 
L 218.603955 122.60348 
L 218.782034 120.845605 
L 219.214514 119.246945 
L 219.494353 117.696244 
L 219.774193 116.192065 
L 219.952272 114.733011 
L 220.104912 113.317728 
L 220.715471 111.944904 
L 222.114669 111.784521 
L 222.216429 114.184418 
L 223.132267 116.512318 
L 223.157707 118.770381 
L 223.259467 120.960702 
L 223.768266 123.085313 
L 223.793706 121.951851 
L 223.819146 120.852392 
L 224.022665 119.892395 
L 224.531465 118.961198 
L 225.142024 118.057937 
L 225.320103 117.181774 
L 225.396423 116.331896 
L 225.879782 116.67877 
L 227.25354 117.015238 
L 227.482499 117.341612 
L 227.533379 117.658195 
L 227.635139 117.96528 
L 227.787779 118.050197 
L 227.864099 117.174266 
L 228.042179 116.324613 
L 228.245698 115.50045 
L 228.322018 113.636232 
L 228.627298 113.638065 
L 229.314176 113.639843 
L 229.415936 113.641568 
L 229.695776 113.64324 
L 229.975615 113.644863 
L 231.705532 113.114048 
L 232.061692 110.895511 
L 232.265211 108.743531 
L 232.621371 107.082021 
L 232.646811 105.470357 
L 233.308249 103.907043 
L 233.664409 103.881318 
L 234.300408 103.856364 
L 235.038166 103.83216 
L 235.114486 103.808681 
L 235.775925 103.785907 
L 236.233844 103.763816 
L 236.335604 103.742388 
L 236.971603 104.041036 
L 237.149683 104.330725 
L 237.633042 104.611723 
L 238.294481 104.884291 
L 238.67608 105.148682 
L 238.8796 104.97923 
L 238.90504 104.814861 
L 239.464719 104.655424 
L 239.566479 104.713725 
L 239.922638 104.770278 
L 240.431437 104.825133 
L 240.940236 104.878343 
L 241.169196 104.929957 
L 241.398156 104.873545 
L 241.474475 104.818825 
L 241.957835 104.765746 
L 242.034154 104.71426 
L 242.263114 104.451363 
L 243.204392 103.557485 
L 243.611432 103.755203 
L 243.891271 103.946989 
L 244.34919 104.133021 
L 244.60359 104.313472 
L 244.62903 104.48851 
L 244.959749 103.699996 
L 245.086949 103.893438 
L 245.112389 104.081077 
L 245.697508 104.263087 
L 245.799268 104.439636 
L 246.180867 104.610889 
L 246.944066 103.925181 
L 247.173026 103.366523 
L 247.249345 102.824624 
L 247.427425 102.298982 
L 247.681825 101.78911 
L 247.758145 101.294534 
L 247.885344 100.495361 
L 248.139744 99.187774 
L 248.750303 97.919415 
L 248.979263 97.221496 
L 249.462622 96.544515 
L 249.895101 98.443311 
L 251.141659 100.285144 
L 251.472378 102.071721 
L 251.548698 103.804702 
L 252.362777 105.485692 
L 252.795256 105.093174 
L 253.049656 104.392998 
L 253.176855 103.60735 
L 253.456695 102.84527 
L 253.609335 103.916177 
L 253.787414 104.954956 
L 254.245333 105.962573 
L 254.372533 106.93996 
L 254.499733 107.888026 
L 254.957652 107.423438 
L 255.237492 106.972788 
L 255.313812 107.068046 
L 255.822611 107.160446 
L 256.02613 107.250075 
L 256.28053 107.337015 
L 256.585809 107.421346 
L 257.170928 107.39667 
L 257.298128 106.840345 
L 258.849966 106.300709 
L 258.875405 105.777263 
L 259.689484 105.26952 
L 260.783402 105.20292 
L 260.986922 105.138319 
L 261.190441 105.075656 
L 261.215881 105.014872 
L 262.08084 104.955912 
L 262.360679 104.046898 
L 262.665959 102.526288 
L 263.098438 102.967897 
L 264.624836 103.396258 
L 265.235395 103.811768 
L 265.998593 104.214812 
L 266.100353 104.605765 
L 266.456512 103.920212 
L 266.888992 103.255224 
L 267.041631 102.184275 
L 268.11011 101.677844 
L 268.517149 101.186606 
L 268.796988 100.710105 
L 269.025948 100.460854 
L 269.229468 100.219081 
L 269.738267 99.984562 
L 269.789147 99.757077 
L 269.865467 99.536418 
L 269.916346 98.789989 
L 270.068986 98.065953 
L 270.577785 97.150682 
L 270.654105 96.582303 
L 270.781305 96.137453 
L 270.959385 95.705948 
L 271.010265 95.287389 
L 272.307702 94.881386 
L 272.587542 94.487564 
L 272.791062 93.466689 
L 273.299861 92.47644 
L 273.325301 91.515899 
L 273.376181 90.584174 
L 273.73234 89.573923 
L 273.8341 88.59398 
L 274.063059 89.666514 
L 274.088499 90.706872 
L 274.215699 91.716019 
L 274.342899 92.694892 
L 274.724498 93.644398 
L 275.513137 94.352464 
L 275.818416 93.335642 
L 275.996496 92.136369 
L 276.123696 90.973075 
L 276.479855 89.844679 
L 276.708815 88.96309 
L 277.090414 89.172728 
L 277.370254 89.376077 
L 277.548333 89.573325 
L 277.573773 90.084089 
L 277.802733 90.579531 
L 278.769451 91.060109 
L 278.972971 91.52627 
L 278.998411 91.978446 
L 279.100171 91.139322 
L 279.914249 90.325373 
L 281.109927 89.535841 
L 281.211687 88.769996 
L 281.669606 87.920648 
L 281.796806 88.268037 
L 282.254725 88.605004 
L 282.331045 88.931863 
L 282.865284 89.248915 
L 283.145124 89.556456 
L 283.755683 89.215904 
L 283.933762 88.885568 
L 284.366242 88.352187 
L 284.417122 87.834807 
L 284.493441 86.800559 
L 285.02768 86.329728 
L 285.07856 85.873021 
L 285.20576 85.430016 
L 285.4856 85.000301 
L 285.790879 84.583478 
L 286.223358 84.392115 
L 286.681278 84.206493 
L 286.833917 84.026439 
L 286.961117 83.851787 
L 287.088317 83.682375 
L 287.546236 83.411567 
L 287.571676 84.107184 
L 288.258555 84.781933 
L 288.462075 85.436439 
L 288.716474 86.07131 
L 288.996314 86.687135 
L 289.530553 87.071529 
L 289.988472 87.444392 
L 290.802551 87.806068 
L 290.827991 87.730983 
L 290.98063 87.658151 
L 292.303508 87.587503 
L 292.354388 87.518975 
L 292.608787 88.410804 
L 292.786867 89.275877 
L 293.473746 90.114998 
L 294.007985 90.928946 
L 294.262385 91.718475 
L 294.669424 92.271363 
L 294.720304 92.807664 
L 294.898384 93.11492 
L 295.712462 93.412959 
L 295.839662 93.702057 
L 296.119501 93.130658 
L 296.246701 92.576402 
L 297.340619 92.038773 
L 297.416939 91.517274 
L 297.925738 91.011419 
L 298.078378 90.52074 
L 298.103818 90.044781 
L 298.765257 90.11549 
L 298.943337 90.184078 
L 300.520614 90.357087 
L 300.546054 90.524904 
L 300.775013 90.687688 
L 300.953093 90.845588 
L 301.029413 91.105229 
L 301.207493 91.35708 
L 301.283813 91.601376 
L 301.843492 91.838343 
L 302.123331 92.068201 
L 302.403171 92.930031 
L 302.65757 93.766005 
L 302.70845 94.576901 
L 302.73389 95.363469 
L 302.81021 96.126441 
L 303.420769 95.162877 
L 303.573409 94.228221 
L 304.158528 93.321604 
L 304.412927 93.932876 
L 304.616447 94.525809 
L 304.921726 95.100955 
L 306.168284 95.658846 
L 306.193724 96.2 
L 306.397244 95.76662 
L 306.626203 95.34624 
L 307.516602 94.938472 
L 308.228921 94.542937 
L 308.30524 94.159268 
L 309.322839 93.787109 
L 309.933398 93.000204 
L 310.187797 92.236905 
L 311.586995 91.496506 
L 311.917714 90.778319 
L 312.197554 90.081677 
L 312.655473 91.003102 
L 313.571311 91.896884 
L 313.698511 92.763853 
L 313.723951 93.604813 
L 313.774831 94.420544 
L 314.13099 94.253503 
L 314.43627 94.091473 
L 315.021389 93.934303 
L 315.148589 93.781849 
L 315.174029 93.314535 
L 315.555628 92.86124 
L 315.708268 92.421544 
L 315.962667 91.46265 
L 316.573226 91.490823 
L 317.005705 92.157018 
L 317.565385 92.803228 
L 318.354023 93.43005 
L 318.532103 94.038069 
L 318.608423 95.266714 
L 318.811942 96.458499 
L 319.218982 97.614531 
L 319.320741 98.735882 
L 319.447941 99.823592 
L 319.498821 99.494459 
L 319.549701 99.175201 
L 319.626021 99.717342 
L 320.516419 100.24322 
L 320.694499 100.753321 
L 321.101538 101.248119 
L 321.610338 101.728073 
L 322.322656 100.915894 
L 322.373536 100.128081 
L 322.398976 99.363902 
L 322.449856 98.622648 
L 322.602496 97.903632 
L 322.831455 96.886753 
L 322.984095 96.752203 
L 323.111295 96.62169 
L 323.849054 96.495092 
L 324.205213 97.43707 
L 324.485053 98.350789 
L 324.739452 99.237097 
L 324.841212 100.096815 
L 324.866652 100.930742 
L 325.578971 100.036005 
L 325.80793 99.168111 
L 326.01145 98.326253 
L 326.393049 97.509651 
L 326.418489 96.717547 
L 326.723769 95.416817 
L 327.512407 94.155109 
L 327.741367 92.931252 
L 328.072086 92.2765 
L 328.148406 91.641391 
L 328.173846 91.025334 
L 328.301046 90.42776 
L 328.530006 89.848113 
L 328.733525 89.179377 
L 328.911605 88.637181 
L 328.937045 88.111252 
L 329.369524 87.6011 
L 330.132723 87.21273 
L 330.387122 87.687835 
L 331.328401 88.148686 
L 331.55736 88.595711 
L 331.5828 89.029326 
L 331.73544 89.449933 
L 332.142479 89.006098 
L 332.320559 89.320924 
L 333.032878 89.626304 
L 333.058318 89.922524 
L 333.287277 90.209856 
L 333.414477 90.488569 
L 333.694317 90.333009 
L 333.923276 90.182116 
L 334.279436 90.035749 
L 334.559275 89.467862 
L 335.246154 91.046569 
L 335.322474 92.577915 
L 335.551434 94.06332 
L 336.187432 95.504163 
L 336.289192 96.90178 
L 336.518152 96.447346 
L 336.874311 96.006545 
L 337.026951 94.940101 
L 337.077831 94.118605 
L 337.942789 93.534711 
L 338.095429 93.6072 
L 338.248069 93.677514 
L 338.298949 93.74572 
L 338.324389 93.811879 
L 338.578788 93.876053 
L 338.705988 93.086479 
L 339.062148 92.320592 
L 339.291107 91.577682 
L 339.698146 90.32467 
L 340.334145 89.961072 
L 340.817505 89.821336 
L 341.046464 89.685793 
L 341.504383 89.554317 
L 341.962303 89.426784 
L 342.191262 89.303078 
L 342.776381 88.863649 
L 342.827261 88.437403 
L 342.852701 87.917466 
L 344.150139 87.200172 
L 344.353658 87.888609 
L 344.429978 88.556393 
L 344.658938 89.204143 
L 345.091417 89.83246 
L 345.625656 90.441929 
L 346.007256 90.820157 
L 346.414295 90.441694 
L 346.923094 90.074584 
L 347.101174 89.61201 
L 347.279253 89.163313 
L 347.406453 88.302166 
L 348.195092 87.466853 
L 348.398611 86.656599 
L 348.449491 85.870653 
L 349.31445 85.108286 
L 349.39077 84.368789 
L 349.746929 85.781035 
L 349.823249 87.150913 
L 350.103089 88.479694 
L 350.255728 89.768613 
L 350.968047 91.018863 
L 351.044367 90.102049 
L 351.069807 89.851607 
L 351.222447 89.608678 
L 351.273327 89.373037 
L 351.705806 89.144465 
L 351.909325 89.135706 
L 352.138285 89.127209 
L 352.519884 89.118968 
L 352.926924 89.110974 
L 353.919082 89.103219 
L 354.224361 89.095698 
L 354.275241 88.236579 
L 354.529641 88.893923 
L 354.80948 89.531548 
L 354.98756 90.150043 
L 355.16564 90.749984 
L 355.21652 91.331926 
L 355.648999 90.405721 
L 356.132358 89.613779 
L 357.048197 89.59094 
L 357.302596 89.568787 
L 357.735075 89.547298 
L 357.887715 90.165321 
L 358.116675 90.764804 
L 358.879873 91.346301 
L 359.464992 91.910354 
L 359.490432 92.457486 
L 359.948352 92.455814 
L 360.66067 92.454192 
L 360.78787 92.772053 
L 361.11859 93.080377 
L 361.14403 93.379452 
L 361.474749 93.669555 
L 361.678269 93.950954 
L 361.805468 93.052656 
L 361.856348 92.181306 
L 361.881788 91.442575 
L 362.390587 90.938961 
L 362.517787 90.450455 
L 362.873947 89.976605 
L 363.128346 90.155838 
L 363.255546 90.542649 
L 363.433626 91.130811 
L 363.916985 91.701329 
L 364.222264 92.254731 
L 365.112663 92.791531 
L 365.341622 93.312227 
L 366.56274 93.497868 
L 366.68994 93.677941 
L 367.071539 93.852611 
L 367.351379 93.383174 
L 367.453139 92.92782 
L 367.860178 92.486127 
L 368.190897 92.057684 
L 368.699697 92.174484 
L 368.928656 92.28778 
L 369.132176 92.397677 
L 369.640975 92.504278 
L 370.048014 92.60768 
L 370.556813 91.749679 
L 370.633133 90.917419 
L 371.040173 90.323082 
L 371.447212 89.746575 
L 371.727051 89.187363 
L 373.253449 88.644928 
L 373.482408 88.118766 
L 373.507848 87.288955 
L 374.271047 86.484038 
L 374.754406 86.129181 
L 374.830726 85.784969 
L 375.390405 85.451083 
L 376.509763 85.127214 
L 377.044002 84.813061 
L 377.196642 87.915624 
L 377.247522 90.92511 
L 377.781761 93.844311 
L 378.34144 96.675936 
L 379.079199 99.422613 
L 380.249437 98.786076 
L 380.656476 98.488069 
L 380.961755 98.411957 
L 382.462713 98.338129 
L 382.869752 98.266516 
L 383.658391 98.410006 
L 383.86191 98.549192 
L 384.39615 98.684203 
L 385.032148 98.815163 
L 385.159348 98.942194 
L 385.490068 97.574725 
L 385.820787 96.887147 
L 385.973427 96.220196 
L 387.041905 95.573253 
L 387.067345 94.945719 
L 387.194545 94.337011 
L 387.576144 93.427131 
L 388.339343 92.544547 
L 389.051662 93.285608 
L 389.484141 94.004437 
L 390.17102 94.701702 
L 390.19646 95.378048 
L 390.399979 96.034105 
L 390.705259 95.818656 
L 390.781579 94.438415 
L 391.010538 94.377315 
L 391.392137 94.318049 
L 391.493897 94.26056 
L 391.544777 94.204796 
L 391.926377 94.150705 
L 392.384296 93.139935 
L 392.842215 93.650179 
L 393.223814 94.145116 
L 393.478214 95.477027 
L 393.554534 96.768981 
L 393.859813 98.022176 
L 393.885253 99.237776 
L 393.987013 100.416907 
L 394.699332 99.431108 
L 395.360771 98.261927 
L 396.200289 97.127821 
L 396.327489 95.814783 
L 396.581889 94.541136 
L 397.497727 93.305698 
L 397.624927 92.533235 
L 398.846045 91.783945 
L 398.947804 91.057135 
L 399.456604 90.565084 
L 400.677722 90.620184 
L 400.703161 90.673632 
L 401.3646 91.044909 
L 401.44092 91.405048 
L 402.509398 91.754383 
L 402.916438 92.093237 
L 403.806836 92.421927 
L 404.188435 93.166666 
L 404.391955 93.889064 
L 404.519155 94.58979 
L 404.544595 95.269494 
L 405.384113 95.928807 
L 405.816593 95.503562 
L 405.892913 98.072454 
L 405.969232 100.564279 
L 406.299952 102.981349 
L 406.986831 105.325908 
L 407.44475 107.60013 
L 407.62283 106.611789 
L 407.800909 105.653099 
L 408.207949 104.723169 
L 408.360588 103.821138 
L 408.894827 105.075724 
L 409.225547 106.292673 
L 409.505386 107.473113 
L 410.115945 108.61814 
L 410.701064 109.728816 
L 410.777384 111.764473 
L 411.108104 113.73906 
L 411.209863 115.654409 
L 411.362503 117.512298 
L 411.896742 119.31445 
L 412.202022 117.97468 
L 412.456421 116.675103 
L 412.481861 115.733947 
L 412.96522 114.821026 
L 413.04154 113.935492 
L 413.24506 113.076524 
L 413.2705 112.243325 
L 413.29594 110.902733 
L 413.44858 109.602359 
L 413.44858 33.962198 
L 413.44858 33.962198 
L 413.29594 33.581811 
L 413.2705 32.970119 
L 413.24506 32.339507 
L 413.04154 31.689393 
L 412.96522 31.019172 
L 412.481861 30.328222 
L 412.456421 30.49407 
L 412.202022 30.665048 
L 411.896742 30.841314 
L 411.362503 31.023032 
L 411.209863 31.210369 
L 411.108104 30.525333 
L 410.777384 29.709339 
L 410.701064 28.868108 
L 410.115945 28.000859 
L 409.505386 27.21656 
L 409.225547 26.408003 
L 408.894827 26.67215 
L 408.360588 26.944466 
L 408.207949 27.225205 
L 407.800909 27.514625 
L 407.62283 27.812997 
L 407.44475 27.24243 
L 406.986831 26.654216 
L 406.299952 26.377122 
L 405.969232 26.091459 
L 405.892913 25.79696 
L 405.816593 25.493354 
L 405.384113 25.180358 
L 404.544595 23.979513 
L 404.519155 24.168552 
L 404.391955 24.363437 
L 404.188435 24.56435 
L 403.806836 24.771476 
L 402.916438 24.985008 
L 402.509398 25.205145 
L 401.44092 25.43209 
L 401.3646 25.666053 
L 400.703161 25.029085 
L 400.677722 24.372417 
L 399.456604 23.69544 
L 398.947804 22.997525 
L 398.846045 23.375735 
L 397.624927 23.765642 
L 397.497727 24.167608 
L 396.581889 24.582006 
L 396.327489 25.00922 
L 396.200289 25.010564 
L 395.360771 25.011949 
L 394.699332 25.013376 
L 393.987013 25.014848 
L 393.885253 25.016366 
L 393.859813 24.798388 
L 393.554534 24.573669 
L 393.478214 25.000625 
L 393.223814 25.440787 
L 392.842215 25.894561 
L 392.384296 26.36237 
L 391.926377 26.844648 
L 391.544777 26.902757 
L 391.493897 26.962663 
L 391.392137 27.024422 
L 391.010538 27.197862 
L 390.781579 27.486438 
L 390.705259 28.00348 
L 390.399979 28.536513 
L 390.19646 29.086032 
L 390.17102 29.652546 
L 389.484141 30.236581 
L 389.051662 30.509367 
L 388.339343 30.790589 
L 387.576144 31.080508 
L 387.194545 31.489165 
L 387.067345 31.910461 
L 387.041905 32.344787 
L 385.973427 32.792545 
L 385.820787 33.254152 
L 385.490068 33.510493 
L 385.159348 33.774763 
L 385.032148 34.047205 
L 384.39615 34.328074 
L 383.86191 34.178545 
L 383.658391 33.80485 
L 382.869752 33.309826 
L 382.462713 32.799493 
L 380.961755 32.273375 
L 380.656476 31.840757 
L 380.249437 31.614302 
L 379.079199 31.380842 
L 378.34144 31.140162 
L 377.781761 31.11158 
L 377.247522 31.74074 
L 377.196642 32.389359 
L 377.044002 33.058037 
L 376.509763 33.747397 
L 375.390405 34.458077 
L 374.830726 34.532111 
L 374.754406 34.608435 
L 374.271047 34.68712 
L 373.507848 34.768237 
L 373.482408 34.851864 
L 373.253449 34.938077 
L 371.727051 34.368331 
L 371.447212 33.780963 
L 371.040173 33.724285 
L 370.633133 33.775624 
L 370.556813 34.048093 
L 370.048014 34.32899 
L 369.640975 34.618573 
L 369.132176 34.917113 
L 368.928656 35.224886 
L 368.699697 34.883552 
L 368.190897 34.531661 
L 367.860178 34.168887 
L 367.453139 33.794893 
L 367.351379 33.409332 
L 367.071539 33.231389 
L 366.68994 33.047943 
L 366.56274 32.858822 
L 365.341622 32.663853 
L 365.112663 32.462854 
L 364.222264 31.706783 
L 363.916985 30.927328 
L 363.433626 30.672622 
L 363.255546 30.410038 
L 363.128346 30.139333 
L 362.873947 29.860256 
L 362.517787 29.79209 
L 362.390587 29.721815 
L 361.881788 29.649366 
L 361.856348 29.574677 
L 361.805468 29.497679 
L 361.678269 29.418298 
L 361.474749 29.336463 
L 361.14403 29.252097 
L 361.11859 29.165121 
L 360.78787 28.746142 
L 360.66067 28.423977 
L 359.948352 28.091847 
L 359.490432 27.749446 
L 359.464992 27.396454 
L 358.879873 27.032546 
L 358.116675 26.657382 
L 357.887715 25.282677 
L 357.735075 24.084997 
L 357.302596 23.39913 
L 357.048197 22.692051 
L 356.132358 22.182645 
L 355.648999 21.877027 
L 355.21652 21.561956 
L 355.16564 21.237141 
L 354.98756 21.012051 
L 354.80948 20.78 
L 354.529641 20.870085 
L 354.275241 21.182497 
L 354.224361 21.504572 
L 353.919082 21.836609 
L 352.926924 22.178914 
L 352.519884 22.531806 
L 352.138285 22.895612 
L 351.909325 23.27067 
L 351.705806 23.657328 
L 351.273327 24.055944 
L 351.222447 24.466888 
L 351.069807 24.890542 
L 351.044367 25.327299 
L 350.968047 25.777564 
L 350.255728 26.241754 
L 350.103089 26.390988 
L 349.823249 26.435067 
L 349.746929 26.480508 
L 349.39077 26.307814 
L 349.31445 26.129778 
L 348.449491 25.946235 
L 348.398611 25.757017 
L 348.195092 26.00103 
L 347.406453 26.252589 
L 347.279253 26.51193 
L 347.101174 26.77929 
L 346.923094 27.05492 
L 346.414295 26.680449 
L 346.007256 26.294395 
L 345.625656 25.676861 
L 345.091417 25.040227 
L 344.658938 24.383903 
L 344.429978 24.804991 
L 344.353658 25.239102 
L 344.150139 25.686639 
L 342.852701 26.148017 
L 342.827261 26.623665 
L 342.776381 26.235856 
L 342.191262 26.275136 
L 341.962303 26.315631 
L 341.504383 26.357379 
L 341.046464 26.400418 
L 340.817505 26.444788 
L 340.334145 26.270989 
L 339.698146 26.091814 
L 339.291107 25.907097 
L 339.062148 25.387355 
L 338.705988 25.619936 
L 338.578788 25.859709 
L 338.324389 26.106898 
L 338.298949 26.361732 
L 338.248069 26.624448 
L 338.095429 26.895288 
L 337.942789 27.174506 
L 337.077831 27.462359 
L 337.026951 27.759114 
L 336.874311 28.065048 
L 336.518152 27.941359 
L 336.289192 27.594303 
L 336.187432 27.236514 
L 335.551434 26.867659 
L 335.322474 25.82877 
L 335.246154 24.75775 
L 334.559275 24.751316 
L 334.279436 24.744683 
L 333.923276 24.737845 
L 333.694317 24.730795 
L 333.414477 24.723527 
L 333.287277 24.716035 
L 333.058318 24.927853 
L 333.032878 25.146221 
L 332.320559 25.371344 
L 332.142479 25.603429 
L 331.73544 25.842692 
L 331.5828 25.101416 
L 331.55736 24.337214 
L 331.328401 24.317773 
L 330.387122 24.297732 
L 330.132723 24.27707 
L 329.369524 24.25577 
L 328.937045 24.23381 
L 328.911605 23.881859 
L 328.733525 24.067878 
L 328.530006 24.259649 
L 328.301046 24.457352 
L 328.173846 24.661169 
L 328.148406 24.87129 
L 328.072086 25.087909 
L 327.741367 25.311228 
L 327.512407 25.760996 
L 326.723769 26.224674 
L 326.418489 26.702693 
L 326.393049 27.195495 
L 326.01145 27.703539 
L 325.80793 27.56867 
L 325.578971 27.42963 
L 324.866652 27.286289 
L 324.841212 27.138516 
L 324.739452 26.8764 
L 324.485053 26.606179 
L 324.205213 26.3276 
L 323.849054 25.930634 
L 323.111295 25.52139 
L 322.984095 25.09949 
L 322.831455 25.103625 
L 322.602496 25.107888 
L 322.449856 25.112283 
L 322.398976 25.116814 
L 322.373536 25.121485 
L 322.322656 25.126301 
L 321.610338 25.131265 
L 321.101538 25.136383 
L 320.694499 24.922117 
L 320.516419 24.481683 
L 319.626021 24.027627 
L 319.549701 24.437695 
L 319.498821 24.860446 
L 319.447941 25.296272 
L 319.320741 25.745578 
L 319.218982 26.208779 
L 318.811942 26.686306 
L 318.608423 27.178602 
L 318.532103 27.686123 
L 318.354023 28.209341 
L 317.565385 28.748741 
L 317.005705 29.085282 
L 316.573226 28.773605 
L 315.962667 28.452289 
L 315.708268 28.66989 
L 315.555628 28.894221 
L 315.174029 29.12549 
L 315.148589 29.363911 
L 315.021389 29.609707 
L 314.43627 29.533791 
L 314.13099 29.455528 
L 313.774831 29.374844 
L 313.723951 29.291665 
L 313.698511 29.205913 
L 313.571311 28.678425 
L 312.655473 27.915081 
L 312.197554 27.128128 
L 311.917714 26.316837 
L 311.586995 25.480455 
L 310.187797 25.27683 
L 309.933398 25.066908 
L 309.322839 24.850494 
L 308.30524 24.627386 
L 308.228921 24.397378 
L 307.516602 24.59934 
L 306.626203 24.807549 
L 306.397244 25.241739 
L 306.193724 25.689358 
L 306.168284 26.15082 
L 304.921726 26.626555 
L 304.616447 27.117002 
L 304.412927 26.963993 
L 304.158528 26.806251 
L 303.573409 27.082715 
L 303.420769 27.367729 
L 302.81021 27.8811 
L 302.73389 28.410348 
L 302.70845 28.955965 
L 302.65757 29.95754 
L 302.403171 30.990092 
L 302.123331 32.054579 
L 301.843492 33.151988 
L 301.283813 34.283337 
L 301.207493 34.791051 
L 301.029413 35.314467 
L 300.953093 35.085674 
L 300.775013 34.849805 
L 300.546054 34.606642 
L 300.520614 34.026645 
L 298.943337 33.648252 
L 298.765257 33.477698 
L 298.103818 33.301869 
L 298.078378 33.120602 
L 297.925738 33.153271 
L 297.416939 33.18695 
L 297.340619 33.221671 
L 296.246701 33.257466 
L 296.119501 33.294367 
L 295.839662 33.112869 
L 295.712462 32.815985 
L 294.898384 32.50992 
L 294.720304 32.194389 
L 294.669424 31.869099 
L 294.262385 30.875123 
L 294.007985 29.850405 
L 293.473746 29.34285 
L 292.786867 28.819597 
L 292.608787 28.280161 
L 292.354388 28.163126 
L 292.303508 28.042471 
L 290.98063 27.918084 
L 290.827991 27.78985 
L 290.802551 27.65765 
L 289.988472 27.082278 
L 289.530553 27.367279 
L 288.996314 27.661094 
L 288.716474 27.963996 
L 288.462075 28.276266 
L 288.258555 28.598194 
L 287.571676 28.490994 
L 287.546236 28.380479 
L 287.088317 28.266546 
L 286.961117 28.14909 
L 286.833917 28.028001 
L 286.681278 27.903166 
L 286.223358 27.774471 
L 285.790879 27.861338 
L 285.4856 27.950891 
L 285.20576 28.262756 
L 285.07856 28.584266 
L 285.02768 28.91572 
L 284.493441 29.257425 
L 284.417122 29.609698 
L 284.366242 29.424011 
L 283.933762 29.232581 
L 283.755683 29.035231 
L 283.145124 28.282922 
L 282.865284 27.507346 
L 282.331045 26.707783 
L 282.254725 26.432347 
L 281.796806 26.148391 
L 281.669606 25.965425 
L 281.211687 25.7768 
L 281.109927 25.582341 
L 279.914249 25.381867 
L 279.100171 25.175194 
L 278.998411 24.962128 
L 278.972971 24.742473 
L 278.769451 24.516025 
L 277.802733 24.502115 
L 277.573773 24.487774 
L 277.548333 24.472991 
L 277.370254 24.45775 
L 277.090414 24.442037 
L 276.708815 23.876984 
L 276.479855 24.282393 
L 276.123696 24.700342 
L 275.996496 25.131216 
L 275.818416 25.575416 
L 275.513137 26.033355 
L 274.724498 25.188204 
L 274.342899 24.316915 
L 274.215699 23.41868 
L 274.088499 23.151289 
L 274.063059 23.534254 
L 273.8341 23.929064 
L 273.73234 24.336085 
L 273.376181 24.755693 
L 273.325301 25.188279 
L 273.299861 25.195161 
L 272.791062 25.202255 
L 272.587542 25.209568 
L 272.307702 25.217108 
L 271.010265 25.224881 
L 270.959385 25.232894 
L 270.781305 26.009552 
L 270.654105 26.81023 
L 270.577785 27.635672 
L 270.068986 28.486642 
L 269.916346 29.363932 
L 269.865467 29.719499 
L 269.789147 30.086063 
L 269.738267 30.463964 
L 269.229468 30.853553 
L 269.025948 31.25519 
L 268.796988 31.010624 
L 268.517149 31.197578 
L 268.11011 31.390314 
L 267.041631 32.028095 
L 266.888992 32.6856 
L 266.456512 33.363441 
L 266.100353 34.062247 
L 265.998593 34.782664 
L 265.235395 35.525363 
L 264.624836 35.632406 
L 263.098438 35.74276 
L 262.665959 35.856526 
L 262.360679 35.973811 
L 262.08084 35.875182 
L 261.215881 35.773502 
L 261.190441 35.668677 
L 260.986922 35.121527 
L 260.783402 34.337912 
L 259.689484 33.530062 
L 258.875405 32.697226 
L 258.849966 31.838633 
L 257.298128 30.953486 
L 257.170928 30.040963 
L 256.585809 29.100217 
L 256.28053 28.130376 
L 256.02613 27.569624 
L 255.822611 27.869698 
L 255.313812 28.179051 
L 255.237492 28.497973 
L 254.957652 28.826757 
L 254.499733 29.165711 
L 254.372533 29.076063 
L 254.245333 28.983644 
L 253.787414 28.888365 
L 253.609335 28.79014 
L 253.456695 28.469335 
L 253.176855 28.577692 
L 253.049656 28.689401 
L 252.795256 28.804564 
L 252.362777 28.923289 
L 251.548698 29.045686 
L 251.472378 27.854617 
L 251.141659 26.626711 
L 249.895101 26.019454 
L 249.462622 25.393416 
L 248.979263 24.748015 
L 248.750303 25.180364 
L 248.139744 25.626084 
L 247.885344 26.08559 
L 247.758145 26.559307 
L 247.681825 27.047675 
L 247.427425 27.551147 
L 247.249345 26.972481 
L 247.173026 26.375918 
L 246.944066 25.760905 
L 246.180867 26.005038 
L 245.799268 26.256722 
L 245.697508 26.516189 
L 245.112389 26.783682 
L 245.086949 27.059448 
L 244.959749 27.233971 
L 244.62903 27.413892 
L 244.60359 27.599378 
L 244.34919 27.680829 
L 243.891271 27.984341 
L 243.611432 28.297241 
L 243.204392 28.619817 
L 242.263114 28.952371 
L 242.034154 29.295209 
L 241.957835 28.660712 
L 241.474475 28.006591 
L 241.398156 27.33224 
L 241.169196 26.746803 
L 240.940236 26.14326 
L 240.431437 25.521051 
L 239.922638 24.879598 
L 239.566479 24.218307 
L 239.464719 24.195189 
L 238.90504 24.171356 
L 238.8796 24.146786 
L 238.67608 24.121456 
L 238.294481 24.095343 
L 237.633042 23.409796 
L 237.149683 22.703047 
L 236.971603 22.413524 
L 236.335604 22.115046 
L 236.233844 22.465962 
L 235.775925 22.827732 
L 235.114486 23.200691 
L 235.038166 23.585184 
L 234.300408 23.981569 
L 233.664409 24.390213 
L 233.308249 24.811496 
L 232.646811 25.245808 
L 232.621371 25.693552 
L 232.265211 25.935603 
L 232.061692 26.185139 
L 231.705532 26.442393 
L 229.975615 26.707603 
L 229.695776 26.541932 
L 229.415936 26.810221 
L 229.314176 27.086807 
L 228.627298 27.371948 
L 228.322018 27.665907 
L 228.245698 27.968958 
L 228.042179 27.842297 
L 227.864099 27.71172 
L 227.787779 27.577104 
L 227.635139 27.328553 
L 227.533379 26.743002 
L 227.482499 26.139342 
L 227.25354 25.517012 
L 225.879782 24.655892 
L 225.396423 23.76814 
L 225.320103 22.852932 
L 225.142024 23.22667 
L 224.531465 23.611966 
L 224.022665 24.00918 
L 223.819146 24.747991 
L 223.793706 25.509652 
L 223.768266 26.294869 
L 223.259467 27.104372 
L 223.157707 27.93891 
L 223.132267 28.030863 
L 222.216429 28.125659 
L 222.114669 27.45499 
L 220.715471 27.531976 
L 220.104912 27.611342 
L 219.952272 27.693164 
L 219.774193 27.777516 
L 219.494353 27.864476 
L 219.214514 27.734585 
L 218.782034 27.600676 
L 218.603955 27.462625 
L 218.578515 27.100763 
L 218.476755 26.727709 
L 217.891636 27.001744 
L 216.899478 27.284254 
L 216.441558 27.575501 
L 216.110839 27.875756 
L 215.958199 28.185297 
L 215.907319 28.065327 
L 215.62748 27.941647 
L 215.144121 27.814142 
L 214.915161 27.682694 
L 214.330042 27.108096 
L 214.228282 26.515727 
L 213.872123 26.344122 
L 213.821243 26.167209 
L 213.668603 25.984824 
L 213.617723 26.235883 
L 213.210684 26.494706 
L 213.159804 26.761534 
L 212.752765 27.036615 
L 212.625565 27.320203 
L 212.523805 26.405081 
L 212.065886 25.461657 
L 211.429887 24.489054 
L 211.302687 23.3766 
L 210.921088 23.766534 
L 210.793888 24.168528 
L 210.285089 24.582954 
L 209.59821 25.010198 
L 209.445571 25.450655 
L 209.318371 25.904735 
L 208.707812 26.372859 
L 208.173573 26.85546 
L 207.944613 27.352988 
L 207.257734 27.207277 
L 207.079655 27.05706 
L 207.028775 26.902196 
L 206.163816 26.742543 
L 206.087496 26.577953 
L 205.655017 26.188729 
L 205.629577 25.787469 
L 205.171658 25.373797 
L 204.917258 24.727791 
L 204.840938 25.159514 
L 204.408459 25.604589 
L 203.492621 26.06343 
L 203.416301 26.536462 
L 202.373263 27.024123 
L 201.991663 27.087783 
L 201.889904 27.153412 
L 201.839024 27.221071 
L 201.126705 27.290822 
L 200.490706 27.143188 
L 200.185426 26.990988 
L 200.032787 26.834082 
L 199.981907 26.672322 
L 199.676627 26.50556 
L 199.066068 26.553181 
L 198.25199 26.602276 
L 198.20111 26.652889 
L 197.84495 26.705068 
L 197.692311 26.75886 
L 197.412471 26.814316 
L 196.471193 26.871487 
L 196.343993 26.930426 
L 195.784314 26.991188 
L 194.766716 27.05383 
L 194.232477 27.33795 
L 193.876317 27.630858 
L 193.469278 27.932825 
L 193.189438 28.244131 
L 192.45168 28.565065 
L 191.866561 28.895925 
L 191.179682 29.237018 
L 190.391043 29.58866 
L 190.187524 29.951177 
L 189.729604 30.324906 
L 189.297125 30.710194 
L 189.169925 31.107398 
L 188.508487 31.516887 
L 188.355847 31.93904 
L 188.304967 32.37425 
L 187.796168 32.82292 
L 187.083849 32.956153 
L 186.62593 33.203278 
L 186.44785 33.458046 
L 186.42241 33.720693 
L 186.37153 33.991463 
L 185.862731 34.270608 
L 185.786411 34.119302 
L 184.488973 33.963316 
L 184.438094 33.802507 
L 184.361774 33.636723 
L 184.132814 32.807187 
L 183.929294 33.488788 
L 182.911696 34.19147 
L 182.402897 34.915885 
L 181.817778 35.662704 
L 181.334419 36.43262 
L 181.029139 36.348181 
L 180.138741 36.26113 
L 180.062421 36.171386 
L 180.011541 35.639783 
L 179.706262 35.091739 
L 179.680822 34.526745 
L 179.400982 34.163819 
L 179.172023 33.789668 
L 178.943063 33.84303 
L 178.739543 33.898042 
L 178.332504 33.954755 
L 177.925465 34.013223 
L 177.798265 34.073499 
L 177.136826 34.135638 
L 176.856987 34.1997 
L 176.653467 34.265743 
L 176.551707 34.333829 
L 176.348187 34.843104 
L 175.635869 35.36813 
L 174.89811 35.909394 
L 174.84723 36.467398 
L 174.440191 37.04266 
L 174.363871 37.635714 
L 173.448032 38.247109 
L 173.219073 38.657872 
L 173.142753 38.422712 
L 172.633954 38.18028 
L 172.608514 37.93035 
L 172.176035 37.67269 
L 171.743555 37.407061 
L 170.675077 37.133217 
L 170.598757 37.289987 
L 169.988198 37.451606 
L 169.835559 37.618224 
L 169.657479 37.789994 
L 169.04692 37.967077 
L 168.105642 37.930095 
L 167.774922 37.891969 
L 167.724042 37.852664 
L 167.393323 37.153518 
L 167.240683 36.65229 
L 166.833644 36.135561 
L 166.452044 35.60285 
L 166.426605 35.053663 
L 166.350285 34.487492 
L 165.841486 33.684268 
L 165.637966 32.856202 
L 165.561646 32.222067 
L 165.434446 31.568321 
L 164.798447 30.894355 
L 164.773007 30.199545 
L 164.645808 30.141872 
L 164.594928 30.082415 
L 164.569488 30.021119 
L 164.289648 29.957928 
L 162.432531 29.892782 
L 162.178132 30.264705 
L 162.152692 30.648131 
L 162.025492 31.043416 
L 160.575415 31.450926 
L 160.499095 31.871039 
L 160.219255 32.084604 
L 159.913976 32.304773 
L 159.888536 32.970836 
L 159.252537 33.657499 
L 158.692858 34.365399 
L 158.540218 35.095193 
L 158.387578 35.847557 
L 158.107739 35.964565 
L 158.005979 36.085191 
L 157.827899 36.209549 
L 156.505022 36.337752 
L 156.199742 36.250378 
L 155.461983 36.160302 
L 155.360224 36.067441 
L 155.105824 35.971707 
L 155.054944 35.982783 
L 154.927744 36.103973 
L 154.520705 36.228911 
L 154.393505 36.357713 
L 154.062786 36.490499 
L 153.859266 36.627392 
L 153.070628 36.768518 
L 152.994308 35.377215 
L 152.790788 34.711279 
L 152.689028 34.024748 
L 151.264391 33.426754 
L 150.908231 32.810265 
L 150.195912 32.723565 
L 150.043273 33.40258 
L 149.992393 34.102596 
L 149.941513 34.824262 
L 149.483594 35.568247 
L 148.974795 36.335242 
L 148.542315 35.479394 
L 147.880876 36.024099 
L 147.244878 36.585651 
L 147.168558 37.16457 
L 146.430799 37.980936 
L 146.02376 38.82255 
L 145.69304 39.690194 
L 145.64216 40.584672 
L 145.158801 41.506814 
L 144.599122 42.237935 
L 144.471922 42.991667 
L 143.785043 43.76871 
L 142.996405 44.569786 
L 142.563926 45.395637 
L 141.978807 45.807946 
L 141.139288 46.233007 
L 140.503289 46.012588 
L 140.477849 45.785353 
L 140.426969 45.66086 
L 140.401529 45.532517 
L 140.325209 45.509976 
L 140.07081 45.486737 
L 139.205851 45.46278 
L 139.180411 45.438082 
L 138.722492 45.412619 
L 138.315453 45.38637 
L 138.162813 45.57885 
L 137.704894 45.777284 
L 137.323295 45.981855 
L 136.738176 46.192752 
L 135.974977 46.410173 
L 135.873217 46.195233 
L 135.262658 45.973646 
L 135.186338 45.964748 
L 134.982819 46.394658 
L 134.906499 46.837865 
L 134.499459 47.294779 
L 133.583621 47.765825 
L 133.380101 48.251439 
L 132.184423 48.642301 
L 131.573864 49.045251 
L 131.421225 49.460664 
L 131.192265 49.998695 
L 130.963306 50.553367 
L 128.902669 51.125194 
L 128.877229 51.714706 
L 128.851789 52.32245 
L 127.961391 51.74151 
L 127.605231 51.142602 
L 127.223632 51.403339 
L 126.842033 51.672141 
L 126.663953 51.949256 
L 126.333234 52.234941 
L 126.206034 52.529462 
L 126.027954 52.503779 
L 125.442835 52.477302 
L 124.781396 53.877028 
L 124.628756 55.320045 
L 124.196277 56.807692 
L 124.043637 58.341348 
L 123.483958 59.922437 
L 122.84796 60.125402 
L 122.79708 60.334645 
L 122.69532 60.55036 
L 122.31372 60.772746 
L 122.084761 61.00201 
L 121.932121 61.018822 
L 121.575962 60.4873 
L 121.448762 60.378423 
L 121.397882 60.266178 
L 121.143482 60.150462 
L 121.118042 60.250709 
L 120.482044 60.354057 
L 120.354844 60.460601 
L 120.303964 60.57044 
L 120.075004 60.683676 
L 119.871485 60.800414 
L 118.752127 60.920763 
L 118.701247 61.044833 
L 118.675807 61.172741 
L 117.785408 61.194834 
L 117.556449 61.217611 
L 116.89501 60.911778 
L 116.58973 60.596488 
L 116.335331 60.8203 
L 115.928291 61.051035 
L 115.444932 61.837761 
L 115.317732 62.648818 
L 115.241413 63.594731 
L 114.936133 64.569898 
L 114.808933 65.575226 
L 114.783493 67.270272 
L 114.656294 69.017742 
L 114.147494 70.819257 
L 114.045735 72.67649 
L 113.842215 74.591163 
L 113.638695 75.686884 
L 113.536936 76.816494 
L 112.977256 77.98104 
L 112.748297 78.522978 
L 112.570217 79.850073 
L 112.468457 81.218212 
L 111.2219 82.628665 
L 111.04382 84.08274 
L 110.94206 85.581786 
L 110.73854 86.249027 
L 110.7131 86.936905 
L 110.636781 87.646056 
L 110.306061 88.377141 
L 109.695502 89.679691 
L 109.542862 91.022526 
L 109.110383 92.406892 
L 108.805104 93.834073 
L 108.347184 95.305395 
L 107.940145 96.273366 
L 107.431346 97.161503 
L 107.355026 98.077109 
L 107.100627 99.350345 
L 106.668147 100.662959 
L 105.650549 102.01617 
L 105.447029 103.411233 
L 105.37071 104.849442 
L 105.03999 106.332132 
L 104.811031 107.860678 
L 104.353111 109.436499 
L 103.818872 111.061056 
L 103.208313 112.735858 
L 103.055674 113.803831 
L 102.317915 114.904835 
L 102.088955 116.03989 
L 102.012635 117.210051 
L 101.961755 118.30663 
L 101.605596 119.217583 
L 101.376636 119.717625 
L 101.198557 120.233133 
L 101.071357 120.764585 
L 100.918717 121.312472 
L 100.689758 119.901428 
L 100.333598 118.446742 
L 99.824799 119.362028 
L 99.621279 120.305622 
L 98.730881 121.278399 
L 98.298402 122.281262 
L 98.196642 123.315142 
L 97.815043 123.502829 
L 97.789603 123.696321 
L 97.382563 123.895797 
L 96.746564 123.552588 
L 96.644805 123.088993 
L 95.830726 122.501289 
L 95.678086 121.895409 
L 95.474567 121.27079 
L 95.194727 120.736624 
L 94.431528 120.185937 
L 94.177129 119.618219 
L 93.871849 119.032943 
L 93.31217 118.429565 
L 93.28673 118.027068 
L 93.134091 117.612123 
L 91.912973 117.184344 
L 91.811213 116.743335 
L 91.734893 117.605938 
L 91.455054 118.49522 
L 91.378734 119.412005 
L 90.819055 120.357145 
L 90.488335 121.331515 
L 89.979536 121.677395 
L 89.547057 122.692598 
L 88.580338 123.739199 
L 88.249619 124.81817 
L 87.9189 125.93051 
L 87.46098 127.077253 
L 87.43554 126.503126 
L 87.308341 126.569869 
L 85.985463 126.638676 
L 85.858263 126.709611 
L 85.705623 126.78274 
L 85.451224 126.85813 
L 85.324024 126.057685 
L 85.171384 125.232483 
L 85.018745 123.723134 
L 84.942425 122.167104 
L 83.695867 121.221575 
L 83.466907 120.246803 
L 83.390587 119.241883 
L 82.932668 119.303593 
L 82.805468 120.135609 
L 82.780028 120.993357 
L 82.627389 121.877633 
L 82.601949 122.789258 
L 82.372989 123.729078 
L 81.94051 123.16117 
L 81.86419 123.234324 
L 81.024671 123.309741 
L 80.973792 123.38749 
L 79.167555 123.467644 
L 78.480676 123.550277 
L 78.455236 123.525694 
L 78.302596 123.500352 
L 78.099076 123.474225 
L 78.048197 123.44729 
L 77.920997 123.419523 
L 77.870117 122.622499 
L 77.513957 123.008307 
L 77.463078 124.174443 
L 77.361318 125.376645 
L 77.132358 126.616029 
L 76.470919 127.893745 
L 76.2674 129.210977 
L 76.06388 130.129864 
L 74.969962 131.077171 
L 74.715562 132.053776 
L 74.410283 133.060585 
L 74.359403 132.781281 
L 74.232203 132.493339 
L 74.028683 132.196491 
L 73.672524 131.890462 
L 72.833006 131.574968 
L 72.807566 132.127885 
L 72.629486 132.697902 
L 72.222447 133.834404 
L 71.535568 135.006055 
L 69.95829 136.213943 
L 69.703891 137.459188 
L 69.678451 138.742946 
L 69.602131 138.200301 
L 69.144212 138.40927 
L 68.635413 138.624702 
L 68.609973 138.846797 
L 67.236215 139.07576 
L 66.727416 139.311806 
L 65.989657 139.555151 
L 65.786138 140.684191 
L 65.735258 141.848149 
L 64.844859 143.048106 
L 64.69222 144.285175 
L 64.51414 146.548442 
L 64.38694 148.881708 
L 63.852701 151.287136 
L 63.725501 153.76696 
L 62.148224 156.323478 
L 61.919264 157.422271 
L 61.842944 158.555047 
L 60.291107 159.722857 
L 59.782308 160.597472 
L 59.705988 161.499137 
L 59.324389 162.428689 
L 59.044549 163.38699 
L 58.968229 163.38699 
L 58.35767 163.38699 
z
" clip-path="url(#p1c660a153c)" style="fill: #1f77b4; fill-opacity: 0.5"/>
   </g>
   <g id="matplotlib.axis_1">
    <g id="xtick_1">
     <g id="line2d_1">
      <defs>
       <path id="m3a111fa5bf" d="M 0 0 
L 0 3.5 
" style="stroke: #000000; stroke-width: 0.8"/>
      </defs>
      <g>
       <use xlink:href="#m3a111fa5bf" x="57.899751" y="232.46" style="stroke: #000000; stroke-width: 0.8"/>
      </g>
     </g>
     <g id="line2d_2">
      <defs>
       <path id="m1dc0868cfb" d="M 0 0 
L 0 -3.5 
" style="stroke: #000000; stroke-width: 0.8"/>
      </defs>
      <g>
       <use xlink:href="#m1dc0868cfb" x="57.899751" y="10.7" style="stroke: #000000; stroke-width: 0.8"/>
      </g>
     </g>
     <g id="text_1">
      <!-- 0 -->
      <g transform="translate(54.718501 247.058437) scale(0.1 -0.1)">
       <defs>
        <path id="DejaVuSans-30" d="M 2034 4250 
Q 1547 4250 1301 3770 
Q 1056 3291 1056 2328 
Q 1056 1369 1301 889 
Q 1547 409 2034 409 
Q 2525 409 2770 889 
Q 3016 1369 3016 2328 
Q 3016 3291 2770 3770 
Q 2525 4250 2034 4250 
z
M 2034 4750 
Q 2819 4750 3233 4129 
Q 3647 3509 3647 2328 
Q 3647 1150 3233 529 
Q 2819 -91 2034 -91 
Q 1250 -91 836 529 
Q 422 1150 422 2328 
Q 422 3509 836 4129 
Q 1250 4750 2034 4750 
z
" transform="scale(0.015625)"/>
       </defs>
       <use xlink:href="#DejaVuSans-30"/>
      </g>
     </g>
    </g>
    <g id="xtick_2">
     <g id="line2d_3">
      <g>
       <use xlink:href="#m3a111fa5bf" x="144.136891" y="232.46" style="stroke: #000000; stroke-width: 0.8"/>
      </g>
     </g>
     <g id="line2d_4">
      <g>
       <use xlink:href="#m1dc0868cfb" x="144.136891" y="10.7" style="stroke: #000000; stroke-width: 0.8"/>
      </g>
     </g>
     <g id="text_2">
      <!-- 200000 -->
      <g transform="translate(125.049391 247.058437) scale(0.1 -0.1)">
       <defs>
        <path id="DejaVuSans-32" d="M 1228 531 
L 3431 531 
L 3431 0 
L 469 0 
L 469 531 
Q 828 903 1448 1529 
Q 2069 2156 2228 2338 
Q 2531 2678 2651 2914 
Q 2772 3150 2772 3378 
Q 2772 3750 2511 3984 
Q 2250 4219 1831 4219 
Q 1534 4219 1204 4116 
Q 875 4013 500 3803 
L 500 4441 
Q 881 4594 1212 4672 
Q 1544 4750 1819 4750 
Q 2544 4750 2975 4387 
Q 3406 4025 3406 3419 
Q 3406 3131 3298 2873 
Q 3191 2616 2906 2266 
Q 2828 2175 2409 1742 
Q 1991 1309 1228 531 
z
" transform="scale(0.015625)"/>
       </defs>
       <use xlink:href="#DejaVuSans-32"/>
       <use xlink:href="#DejaVuSans-30" x="63.623047"/>
       <use xlink:href="#DejaVuSans-30" x="127.246094"/>
       <use xlink:href="#DejaVuSans-30" x="190.869141"/>
       <use xlink:href="#DejaVuSans-30" x="254.492188"/>
       <use xlink:href="#DejaVuSans-30" x="318.115234"/>
      </g>
     </g>
    </g>
    <g id="xtick_3">
     <g id="line2d_5">
      <g>
       <use xlink:href="#m3a111fa5bf" x="230.374031" y="232.46" style="stroke: #000000; stroke-width: 0.8"/>
      </g>
     </g>
     <g id="line2d_6">
      <g>
       <use xlink:href="#m1dc0868cfb" x="230.374031" y="10.7" style="stroke: #000000; stroke-width: 0.8"/>
      </g>
     </g>
     <g id="text_3">
      <!-- 400000 -->
      <g transform="translate(211.286531 247.058437) scale(0.1 -0.1)">
       <defs>
        <path id="DejaVuSans-34" d="M 2419 4116 
L 825 1625 
L 2419 1625 
L 2419 4116 
z
M 2253 4666 
L 3047 4666 
L 3047 1625 
L 3713 1625 
L 3713 1100 
L 3047 1100 
L 3047 0 
L 2419 0 
L 2419 1100 
L 313 1100 
L 313 1709 
L 2253 4666 
z
" transform="scale(0.015625)"/>
       </defs>
       <use xlink:href="#DejaVuSans-34"/>
       <use xlink:href="#DejaVuSans-30" x="63.623047"/>
       <use xlink:href="#DejaVuSans-30" x="127.246094"/>
       <use xlink:href="#DejaVuSans-30" x="190.869141"/>
       <use xlink:href="#DejaVuSans-30" x="254.492188"/>
       <use xlink:href="#DejaVuSans-30" x="318.115234"/>
      </g>
     </g>
    </g>
    <g id="xtick_4">
     <g id="line2d_7">
      <g>
       <use xlink:href="#m3a111fa5bf" x="316.611171" y="232.46" style="stroke: #000000; stroke-width: 0.8"/>
      </g>
     </g>
     <g id="line2d_8">
      <g>
       <use xlink:href="#m1dc0868cfb" x="316.611171" y="10.7" style="stroke: #000000; stroke-width: 0.8"/>
      </g>
     </g>
     <g id="text_4">
      <!-- 600000 -->
      <g transform="translate(297.523671 247.058437) scale(0.1 -0.1)">
       <defs>
        <path id="DejaVuSans-36" d="M 2113 2584 
Q 1688 2584 1439 2293 
Q 1191 2003 1191 1497 
Q 1191 994 1439 701 
Q 1688 409 2113 409 
Q 2538 409 2786 701 
Q 3034 994 3034 1497 
Q 3034 2003 2786 2293 
Q 2538 2584 2113 2584 
z
M 3366 4563 
L 3366 3988 
Q 3128 4100 2886 4159 
Q 2644 4219 2406 4219 
Q 1781 4219 1451 3797 
Q 1122 3375 1075 2522 
Q 1259 2794 1537 2939 
Q 1816 3084 2150 3084 
Q 2853 3084 3261 2657 
Q 3669 2231 3669 1497 
Q 3669 778 3244 343 
Q 2819 -91 2113 -91 
Q 1303 -91 875 529 
Q 447 1150 447 2328 
Q 447 3434 972 4092 
Q 1497 4750 2381 4750 
Q 2619 4750 2861 4703 
Q 3103 4656 3366 4563 
z
" transform="scale(0.015625)"/>
       </defs>
       <use xlink:href="#DejaVuSans-36"/>
       <use xlink:href="#DejaVuSans-30" x="63.623047"/>
       <use xlink:href="#DejaVuSans-30" x="127.246094"/>
       <use xlink:href="#DejaVuSans-30" x="190.869141"/>
       <use xlink:href="#DejaVuSans-30" x="254.492188"/>
       <use xlink:href="#DejaVuSans-30" x="318.115234"/>
      </g>
     </g>
    </g>
    <g id="xtick_5">
     <g id="line2d_9">
      <g>
       <use xlink:href="#m3a111fa5bf" x="402.84831" y="232.46" style="stroke: #000000; stroke-width: 0.8"/>
      </g>
     </g>
     <g id="line2d_10">
      <g>
       <use xlink:href="#m1dc0868cfb" x="402.84831" y="10.7" style="stroke: #000000; stroke-width: 0.8"/>
      </g>
     </g>
     <g id="text_5">
      <!-- 800000 -->
      <g transform="translate(383.76081 247.058437) scale(0.1 -0.1)">
       <defs>
        <path id="DejaVuSans-38" d="M 2034 2216 
Q 1584 2216 1326 1975 
Q 1069 1734 1069 1313 
Q 1069 891 1326 650 
Q 1584 409 2034 409 
Q 2484 409 2743 651 
Q 3003 894 3003 1313 
Q 3003 1734 2745 1975 
Q 2488 2216 2034 2216 
z
M 1403 2484 
Q 997 2584 770 2862 
Q 544 3141 544 3541 
Q 544 4100 942 4425 
Q 1341 4750 2034 4750 
Q 2731 4750 3128 4425 
Q 3525 4100 3525 3541 
Q 3525 3141 3298 2862 
Q 3072 2584 2669 2484 
Q 3125 2378 3379 2068 
Q 3634 1759 3634 1313 
Q 3634 634 3220 271 
Q 2806 -91 2034 -91 
Q 1263 -91 848 271 
Q 434 634 434 1313 
Q 434 1759 690 2068 
Q 947 2378 1403 2484 
z
M 1172 3481 
Q 1172 3119 1398 2916 
Q 1625 2713 2034 2713 
Q 2441 2713 2670 2916 
Q 2900 3119 2900 3481 
Q 2900 3844 2670 4047 
Q 2441 4250 2034 4250 
Q 1625 4250 1398 4047 
Q 1172 3844 1172 3481 
z
" transform="scale(0.015625)"/>
       </defs>
       <use xlink:href="#DejaVuSans-38"/>
       <use xlink:href="#DejaVuSans-30" x="63.623047"/>
       <use xlink:href="#DejaVuSans-30" x="127.246094"/>
       <use xlink:href="#DejaVuSans-30" x="190.869141"/>
       <use xlink:href="#DejaVuSans-30" x="254.492188"/>
       <use xlink:href="#DejaVuSans-30" x="318.115234"/>
      </g>
     </g>
    </g>
    <g id="text_6">
     <!-- Environment steps -->
     <g transform="translate(188.970313 260.736562) scale(0.1 -0.1)">
      <defs>
       <path id="DejaVuSans-45" d="M 628 4666 
L 3578 4666 
L 3578 4134 
L 1259 4134 
L 1259 2753 
L 3481 2753 
L 3481 2222 
L 1259 2222 
L 1259 531 
L 3634 531 
L 3634 0 
L 628 0 
L 628 4666 
z
" transform="scale(0.015625)"/>
       <path id="DejaVuSans-6e" d="M 3513 2113 
L 3513 0 
L 2938 0 
L 2938 2094 
Q 2938 2591 2744 2837 
Q 2550 3084 2163 3084 
Q 1697 3084 1428 2787 
Q 1159 2491 1159 1978 
L 1159 0 
L 581 0 
L 581 3500 
L 1159 3500 
L 1159 2956 
Q 1366 3272 1645 3428 
Q 1925 3584 2291 3584 
Q 2894 3584 3203 3211 
Q 3513 2838 3513 2113 
z
" transform="scale(0.015625)"/>
       <path id="DejaVuSans-76" d="M 191 3500 
L 800 3500 
L 1894 563 
L 2988 3500 
L 3597 3500 
L 2284 0 
L 1503 0 
L 191 3500 
z
" transform="scale(0.015625)"/>
       <path id="DejaVuSans-69" d="M 603 3500 
L 1178 3500 
L 1178 0 
L 603 0 
L 603 3500 
z
M 603 4863 
L 1178 4863 
L 1178 4134 
L 603 4134 
L 603 4863 
z
" transform="scale(0.015625)"/>
       <path id="DejaVuSans-72" d="M 2631 2963 
Q 2534 3019 2420 3045 
Q 2306 3072 2169 3072 
Q 1681 3072 1420 2755 
Q 1159 2438 1159 1844 
L 1159 0 
L 581 0 
L 581 3500 
L 1159 3500 
L 1159 2956 
Q 1341 3275 1631 3429 
Q 1922 3584 2338 3584 
Q 2397 3584 2469 3576 
Q 2541 3569 2628 3553 
L 2631 2963 
z
" transform="scale(0.015625)"/>
       <path id="DejaVuSans-6f" d="M 1959 3097 
Q 1497 3097 1228 2736 
Q 959 2375 959 1747 
Q 959 1119 1226 758 
Q 1494 397 1959 397 
Q 2419 397 2687 759 
Q 2956 1122 2956 1747 
Q 2956 2369 2687 2733 
Q 2419 3097 1959 3097 
z
M 1959 3584 
Q 2709 3584 3137 3096 
Q 3566 2609 3566 1747 
Q 3566 888 3137 398 
Q 2709 -91 1959 -91 
Q 1206 -91 779 398 
Q 353 888 353 1747 
Q 353 2609 779 3096 
Q 1206 3584 1959 3584 
z
" transform="scale(0.015625)"/>
       <path id="DejaVuSans-6d" d="M 3328 2828 
Q 3544 3216 3844 3400 
Q 4144 3584 4550 3584 
Q 5097 3584 5394 3201 
Q 5691 2819 5691 2113 
L 5691 0 
L 5113 0 
L 5113 2094 
Q 5113 2597 4934 2840 
Q 4756 3084 4391 3084 
Q 3944 3084 3684 2787 
Q 3425 2491 3425 1978 
L 3425 0 
L 2847 0 
L 2847 2094 
Q 2847 2600 2669 2842 
Q 2491 3084 2119 3084 
Q 1678 3084 1418 2786 
Q 1159 2488 1159 1978 
L 1159 0 
L 581 0 
L 581 3500 
L 1159 3500 
L 1159 2956 
Q 1356 3278 1631 3431 
Q 1906 3584 2284 3584 
Q 2666 3584 2933 3390 
Q 3200 3197 3328 2828 
z
" transform="scale(0.015625)"/>
       <path id="DejaVuSans-65" d="M 3597 1894 
L 3597 1613 
L 953 1613 
Q 991 1019 1311 708 
Q 1631 397 2203 397 
Q 2534 397 2845 478 
Q 3156 559 3463 722 
L 3463 178 
Q 3153 47 2828 -22 
Q 2503 -91 2169 -91 
Q 1331 -91 842 396 
Q 353 884 353 1716 
Q 353 2575 817 3079 
Q 1281 3584 2069 3584 
Q 2775 3584 3186 3129 
Q 3597 2675 3597 1894 
z
M 3022 2063 
Q 3016 2534 2758 2815 
Q 2500 3097 2075 3097 
Q 1594 3097 1305 2825 
Q 1016 2553 972 2059 
L 3022 2063 
z
" transform="scale(0.015625)"/>
       <path id="DejaVuSans-74" d="M 1172 4494 
L 1172 3500 
L 2356 3500 
L 2356 3053 
L 1172 3053 
L 1172 1153 
Q 1172 725 1289 603 
Q 1406 481 1766 481 
L 2356 481 
L 2356 0 
L 1766 0 
Q 1100 0 847 248 
Q 594 497 594 1153 
L 594 3053 
L 172 3053 
L 172 3500 
L 594 3500 
L 594 4494 
L 1172 4494 
z
" transform="scale(0.015625)"/>
       <path id="DejaVuSans-20" transform="scale(0.015625)"/>
       <path id="DejaVuSans-73" d="M 2834 3397 
L 2834 2853 
Q 2591 2978 2328 3040 
Q 2066 3103 1784 3103 
Q 1356 3103 1142 2972 
Q 928 2841 928 2578 
Q 928 2378 1081 2264 
Q 1234 2150 1697 2047 
L 1894 2003 
Q 2506 1872 2764 1633 
Q 3022 1394 3022 966 
Q 3022 478 2636 193 
Q 2250 -91 1575 -91 
Q 1294 -91 989 -36 
Q 684 19 347 128 
L 347 722 
Q 666 556 975 473 
Q 1284 391 1588 391 
Q 1994 391 2212 530 
Q 2431 669 2431 922 
Q 2431 1156 2273 1281 
Q 2116 1406 1581 1522 
L 1381 1569 
Q 847 1681 609 1914 
Q 372 2147 372 2553 
Q 372 3047 722 3315 
Q 1072 3584 1716 3584 
Q 2034 3584 2315 3537 
Q 2597 3491 2834 3397 
z
" transform="scale(0.015625)"/>
       <path id="DejaVuSans-70" d="M 1159 525 
L 1159 -1331 
L 581 -1331 
L 581 3500 
L 1159 3500 
L 1159 2969 
Q 1341 3281 1617 3432 
Q 1894 3584 2278 3584 
Q 2916 3584 3314 3078 
Q 3713 2572 3713 1747 
Q 3713 922 3314 415 
Q 2916 -91 2278 -91 
Q 1894 -91 1617 61 
Q 1341 213 1159 525 
z
M 3116 1747 
Q 3116 2381 2855 2742 
Q 2594 3103 2138 3103 
Q 1681 3103 1420 2742 
Q 1159 2381 1159 1747 
Q 1159 1113 1420 752 
Q 1681 391 2138 391 
Q 2594 391 2855 752 
Q 3116 1113 3116 1747 
z
" transform="scale(0.015625)"/>
      </defs>
      <use xlink:href="#DejaVuSans-45"/>
      <use xlink:href="#DejaVuSans-6e" x="63.183594"/>
      <use xlink:href="#DejaVuSans-76" x="126.5625"/>
      <use xlink:href="#DejaVuSans-69" x="185.742188"/>
      <use xlink:href="#DejaVuSans-72" x="213.525391"/>
      <use xlink:href="#DejaVuSans-6f" x="252.388672"/>
      <use xlink:href="#DejaVuSans-6e" x="313.570312"/>
      <use xlink:href="#DejaVuSans-6d" x="376.949219"/>
      <use xlink:href="#DejaVuSans-65" x="474.361328"/>
      <use xlink:href="#DejaVuSans-6e" x="535.884766"/>
      <use xlink:href="#DejaVuSans-74" x="599.263672"/>
      <use xlink:href="#DejaVuSans-20" x="638.472656"/>
      <use xlink:href="#DejaVuSans-73" x="670.259766"/>
      <use xlink:href="#DejaVuSans-74" x="722.359375"/>
      <use xlink:href="#DejaVuSans-65" x="761.568359"/>
      <use xlink:href="#DejaVuSans-70" x="823.091797"/>
      <use xlink:href="#DejaVuSans-73" x="886.568359"/>
     </g>
    </g>
   </g>
   <g id="matplotlib.axis_2">
    <g id="ytick_1">
     <g id="line2d_11">
      <defs>
       <path id="mf06cd04673" d="M 0 0 
L -3.5 0 
" style="stroke: #000000; stroke-width: 0.8"/>
      </defs>
      <g>
       <use xlink:href="#mf06cd04673" x="40.603125" y="202.428868" style="stroke: #000000; stroke-width: 0.8"/>
      </g>
     </g>
     <g id="line2d_12">
      <defs>
       <path id="m03db75f7a0" d="M 0 0 
L 3.5 0 
" style="stroke: #000000; stroke-width: 0.8"/>
      </defs>
      <g>
       <use xlink:href="#m03db75f7a0" x="431.203125" y="202.428868" style="stroke: #000000; stroke-width: 0.8"/>
      </g>
     </g>
     <g id="text_7">
      <!-- 30 -->
      <g transform="translate(20.878125 206.228086) scale(0.1 -0.1)">
       <defs>
        <path id="DejaVuSans-33" d="M 2597 2516 
Q 3050 2419 3304 2112 
Q 3559 1806 3559 1356 
Q 3559 666 3084 287 
Q 2609 -91 1734 -91 
Q 1441 -91 1130 -33 
Q 819 25 488 141 
L 488 750 
Q 750 597 1062 519 
Q 1375 441 1716 441 
Q 2309 441 2620 675 
Q 2931 909 2931 1356 
Q 2931 1769 2642 2001 
Q 2353 2234 1838 2234 
L 1294 2234 
L 1294 2753 
L 1863 2753 
Q 2328 2753 2575 2939 
Q 2822 3125 2822 3475 
Q 2822 3834 2567 4026 
Q 2313 4219 1838 4219 
Q 1578 4219 1281 4162 
Q 984 4106 628 3988 
L 628 4550 
Q 988 4650 1302 4700 
Q 1616 4750 1894 4750 
Q 2613 4750 3031 4423 
Q 3450 4097 3450 3541 
Q 3450 3153 3228 2886 
Q 3006 2619 2597 2516 
z
" transform="scale(0.015625)"/>
       </defs>
       <use xlink:href="#DejaVuSans-33"/>
       <use xlink:href="#DejaVuSans-30" x="63.623047"/>
      </g>
     </g>
    </g>
    <g id="ytick_2">
     <g id="line2d_13">
      <g>
       <use xlink:href="#mf06cd04673" x="40.603125" y="166.936251" style="stroke: #000000; stroke-width: 0.8"/>
      </g>
     </g>
     <g id="line2d_14">
      <g>
       <use xlink:href="#m03db75f7a0" x="431.203125" y="166.936251" style="stroke: #000000; stroke-width: 0.8"/>
      </g>
     </g>
     <g id="text_8">
      <!-- 40 -->
      <g transform="translate(20.878125 170.73547) scale(0.1 -0.1)">
       <use xlink:href="#DejaVuSans-34"/>
       <use xlink:href="#DejaVuSans-30" x="63.623047"/>
      </g>
     </g>
    </g>
    <g id="ytick_3">
     <g id="line2d_15">
      <g>
       <use xlink:href="#mf06cd04673" x="40.603125" y="131.443635" style="stroke: #000000; stroke-width: 0.8"/>
      </g>
     </g>
     <g id="line2d_16">
      <g>
       <use xlink:href="#m03db75f7a0" x="431.203125" y="131.443635" style="stroke: #000000; stroke-width: 0.8"/>
      </g>
     </g>
     <g id="text_9">
      <!-- 50 -->
      <g transform="translate(20.878125 135.242854) scale(0.1 -0.1)">
       <defs>
        <path id="DejaVuSans-35" d="M 691 4666 
L 3169 4666 
L 3169 4134 
L 1269 4134 
L 1269 2991 
Q 1406 3038 1543 3061 
Q 1681 3084 1819 3084 
Q 2600 3084 3056 2656 
Q 3513 2228 3513 1497 
Q 3513 744 3044 326 
Q 2575 -91 1722 -91 
Q 1428 -91 1123 -41 
Q 819 9 494 109 
L 494 744 
Q 775 591 1075 516 
Q 1375 441 1709 441 
Q 2250 441 2565 725 
Q 2881 1009 2881 1497 
Q 2881 1984 2565 2268 
Q 2250 2553 1709 2553 
Q 1456 2553 1204 2497 
Q 953 2441 691 2322 
L 691 4666 
z
" transform="scale(0.015625)"/>
       </defs>
       <use xlink:href="#DejaVuSans-35"/>
       <use xlink:href="#DejaVuSans-30" x="63.623047"/>
      </g>
     </g>
    </g>
    <g id="ytick_4">
     <g id="line2d_17">
      <g>
       <use xlink:href="#mf06cd04673" x="40.603125" y="95.951018" style="stroke: #000000; stroke-width: 0.8"/>
      </g>
     </g>
     <g id="line2d_18">
      <g>
       <use xlink:href="#m03db75f7a0" x="431.203125" y="95.951018" style="stroke: #000000; stroke-width: 0.8"/>
      </g>
     </g>
     <g id="text_10">
      <!-- 60 -->
      <g transform="translate(20.878125 99.750237) scale(0.1 -0.1)">
       <use xlink:href="#DejaVuSans-36"/>
       <use xlink:href="#DejaVuSans-30" x="63.623047"/>
      </g>
     </g>
    </g>
    <g id="ytick_5">
     <g id="line2d_19">
      <g>
       <use xlink:href="#mf06cd04673" x="40.603125" y="60.458402" style="stroke: #000000; stroke-width: 0.8"/>
      </g>
     </g>
     <g id="line2d_20">
      <g>
       <use xlink:href="#m03db75f7a0" x="431.203125" y="60.458402" style="stroke: #000000; stroke-width: 0.8"/>
      </g>
     </g>
     <g id="text_11">
      <!-- 70 -->
      <g transform="translate(20.878125 64.257621) scale(0.1 -0.1)">
       <defs>
        <path id="DejaVuSans-37" d="M 525 4666 
L 3525 4666 
L 3525 4397 
L 1831 0 
L 1172 0 
L 2766 4134 
L 525 4134 
L 525 4666 
z
" transform="scale(0.015625)"/>
       </defs>
       <use xlink:href="#DejaVuSans-37"/>
       <use xlink:href="#DejaVuSans-30" x="63.623047"/>
      </g>
     </g>
    </g>
    <g id="ytick_6">
     <g id="line2d_21">
      <g>
       <use xlink:href="#mf06cd04673" x="40.603125" y="24.965785" style="stroke: #000000; stroke-width: 0.8"/>
      </g>
     </g>
     <g id="line2d_22">
      <g>
       <use xlink:href="#m03db75f7a0" x="431.203125" y="24.965785" style="stroke: #000000; stroke-width: 0.8"/>
      </g>
     </g>
     <g id="text_12">
      <!-- 80 -->
      <g transform="translate(20.878125 28.765004) scale(0.1 -0.1)">
       <use xlink:href="#DejaVuSans-38"/>
       <use xlink:href="#DejaVuSans-30" x="63.623047"/>
      </g>
     </g>
    </g>
    <g id="text_13">
     <!-- Score -->
     <g transform="translate(14.798438 135.582344) rotate(-90) scale(0.1 -0.1)">
      <defs>
       <path id="DejaVuSans-53" d="M 3425 4513 
L 3425 3897 
Q 3066 4069 2747 4153 
Q 2428 4238 2131 4238 
Q 1616 4238 1336 4038 
Q 1056 3838 1056 3469 
Q 1056 3159 1242 3001 
Q 1428 2844 1947 2747 
L 2328 2669 
Q 3034 2534 3370 2195 
Q 3706 1856 3706 1288 
Q 3706 609 3251 259 
Q 2797 -91 1919 -91 
Q 1588 -91 1214 -16 
Q 841 59 441 206 
L 441 856 
Q 825 641 1194 531 
Q 1563 422 1919 422 
Q 2459 422 2753 634 
Q 3047 847 3047 1241 
Q 3047 1584 2836 1778 
Q 2625 1972 2144 2069 
L 1759 2144 
Q 1053 2284 737 2584 
Q 422 2884 422 3419 
Q 422 4038 858 4394 
Q 1294 4750 2059 4750 
Q 2388 4750 2728 4690 
Q 3069 4631 3425 4513 
z
" transform="scale(0.015625)"/>
       <path id="DejaVuSans-63" d="M 3122 3366 
L 3122 2828 
Q 2878 2963 2633 3030 
Q 2388 3097 2138 3097 
Q 1578 3097 1268 2742 
Q 959 2388 959 1747 
Q 959 1106 1268 751 
Q 1578 397 2138 397 
Q 2388 397 2633 464 
Q 2878 531 3122 666 
L 3122 134 
Q 2881 22 2623 -34 
Q 2366 -91 2075 -91 
Q 1284 -91 818 406 
Q 353 903 353 1747 
Q 353 2603 823 3093 
Q 1294 3584 2113 3584 
Q 2378 3584 2631 3529 
Q 2884 3475 3122 3366 
z
" transform="scale(0.015625)"/>
      </defs>
      <use xlink:href="#DejaVuSans-53"/>
      <use xlink:href="#DejaVuSans-63" x="63.476562"/>
      <use xlink:href="#DejaVuSans-6f" x="118.457031"/>
      <use xlink:href="#DejaVuSans-72" x="179.638672"/>
      <use xlink:href="#DejaVuSans-65" x="218.501953"/>
     </g>
    </g>
   </g>
   <g id="line2d_23">
    <path d="M 58.35767 163.38699 
L 58.968229 163.706423 
L 59.044549 164.655141 
L 59.324389 163.658796 
L 59.705988 163.863597 
L 59.782308 163.636343 
L 60.291107 163.948296 
L 61.842944 162.653723 
L 61.919264 163.20811 
L 62.148224 163.639388 
L 63.852701 160.832622 
L 64.38694 162.932332 
L 64.69222 160.219527 
L 64.844859 162.231152 
L 65.735258 162.798217 
L 65.786138 161.857579 
L 65.989657 162.96824 
L 66.727416 163.08728 
L 67.236215 162.137971 
L 68.609973 162.281919 
L 68.635413 162.421549 
L 69.144212 164.473592 
L 69.602131 164.228038 
L 69.678451 164.948152 
L 69.703891 162.878238 
L 69.95829 162.361111 
L 71.535568 160.901197 
L 72.222447 161.401682 
L 72.629486 161.354764 
L 72.807566 163.864721 
L 72.833006 163.850389 
L 73.672524 163.19762 
L 74.028683 164.800469 
L 74.232203 164.97102 
L 74.410283 166.661973 
L 74.715562 164.647122 
L 74.969962 165.461141 
L 76.06388 164.973005 
L 76.2674 163.860646 
L 76.470919 161.503924 
L 77.361318 159.640049 
L 77.513957 159.967971 
L 77.870117 160.389975 
L 77.920997 160.26693 
L 78.048197 159.189275 
L 78.099076 160.805896 
L 78.302596 160.670373 
L 78.455236 160.219483 
L 78.480676 162.231109 
L 79.167555 160.988051 
L 80.973792 162.976621 
L 81.024671 162.563021 
L 81.86419 163.226607 
L 81.94051 164.828586 
L 82.372989 164.146471 
L 82.601949 161.99413 
L 82.627389 160.651703 
L 82.780028 161.479107 
L 82.805468 161.323388 
L 82.932668 161.065862 
L 83.390587 162.41323 
L 83.466907 163.08131 
L 83.695867 163.409914 
L 84.942425 163.835138 
L 85.171384 170.014181 
L 85.324024 169.495932 
L 85.451224 170.164486 
L 85.705623 168.789905 
L 85.858263 168.840773 
L 85.985463 170.593761 
L 87.308341 171.655292 
L 87.43554 170.874854 
L 87.46098 171.502041 
L 87.9189 169.022554 
L 88.249619 169.811788 
L 88.580338 168.554266 
L 89.547057 169.25107 
L 89.979536 167.47798 
L 90.488335 169.271852 
L 90.819055 166.859271 
L 91.378734 167.181014 
L 91.455054 166.428326 
L 91.734893 166.869475 
L 91.811213 165.8067 
L 91.912973 166.798887 
L 93.134091 166.69653 
L 93.28673 167.449067 
L 93.31217 167.433682 
L 93.871849 166.566937 
L 94.177129 167.003927 
L 94.431528 166.256552 
L 95.474567 169.52726 
L 95.830726 168.112369 
L 96.644805 168.502997 
L 96.746564 167.604172 
L 97.382563 166.625834 
L 97.789603 165.144456 
L 97.815043 164.133432 
L 98.196642 164.004561 
L 98.298402 161.749999 
L 98.730881 164.67401 
L 99.621279 164.741877 
L 99.824799 165.978965 
L 100.689758 166.558347 
L 100.918717 169.23163 
L 101.376636 164.484982 
L 101.605596 163.813175 
L 101.961755 161.564355 
L 102.088955 156.741083 
L 102.317915 157.259894 
L 103.055674 155.527106 
L 103.208313 154.37869 
L 103.818872 151.454604 
L 104.353111 149.57654 
L 104.811031 151.16211 
L 105.03999 151.209423 
L 105.37071 149.764627 
L 105.447029 146.978962 
L 105.650549 145.554602 
L 106.668147 145.450706 
L 107.100627 144.604583 
L 107.355026 142.719064 
L 107.431346 140.4642 
L 107.940145 138.809371 
L 109.110383 132.50609 
L 109.542862 131.622393 
L 109.695502 131.723508 
L 110.636781 128.253891 
L 110.73854 127.093331 
L 110.94206 126.478495 
L 111.04382 123.752547 
L 111.2219 123.344413 
L 112.468457 123.055 
L 112.977256 118.709541 
L 113.536936 116.323139 
L 113.638695 117.948011 
L 113.842215 116.3298 
L 114.147494 112.859565 
L 114.656294 111.81992 
L 114.936133 105.374713 
L 115.241413 104.879047 
L 115.317732 103.333472 
L 115.444932 103.53791 
L 116.335331 103.405764 
L 116.58973 102.436776 
L 116.89501 103.732893 
L 117.556449 102.86057 
L 117.785408 101.588505 
L 118.675807 100.780513 
L 118.752127 98.400671 
L 119.871485 97.581836 
L 120.303964 95.591214 
L 120.354844 94.963141 
L 120.482044 95.8446 
L 121.118042 94.889492 
L 121.143482 94.388949 
L 121.397882 94.222855 
L 121.448762 93.742311 
L 121.575962 93.808572 
L 121.932121 93.553412 
L 122.31372 91.384541 
L 122.84796 94.607185 
L 123.483958 94.860456 
L 124.043637 92.231226 
L 124.196277 94.685333 
L 124.628756 93.658525 
L 124.781396 92.449565 
L 125.442835 92.554609 
L 126.027954 91.591723 
L 126.206034 92.893758 
L 126.333234 91.388308 
L 126.842033 91.867726 
L 127.605231 91.376481 
L 127.961391 90.768372 
L 128.851789 91.030329 
L 128.877229 89.261348 
L 128.902669 91.591595 
L 131.192265 89.977357 
L 131.421225 89.304744 
L 131.573864 87.694009 
L 132.184423 87.302852 
L 133.380101 85.752173 
L 133.583621 84.141537 
L 134.499459 83.005132 
L 134.906499 84.884198 
L 134.982819 83.938469 
L 135.186338 83.5535 
L 135.262658 82.647692 
L 135.873217 82.088491 
L 135.974977 81.439588 
L 136.738176 80.171286 
L 137.323295 79.579899 
L 137.704894 79.645121 
L 138.162813 78.643608 
L 138.315453 79.269308 
L 138.722492 80.089193 
L 139.180411 79.074358 
L 139.205851 78.622357 
L 140.07081 77.758005 
L 140.325209 77.345495 
L 140.426969 80.868517 
L 140.503289 79.881624 
L 141.139288 80.896095 
L 141.978807 79.431141 
L 142.563926 79.28787 
L 142.996405 77.445252 
L 143.785043 76.829169 
L 144.471922 77.722258 
L 144.599122 76.778431 
L 145.158801 78.311909 
L 145.64216 76.285614 
L 145.69304 77.301487 
L 146.02376 78.606318 
L 146.430799 76.784147 
L 147.168558 78.956321 
L 147.244878 78.507861 
L 147.880876 78.392288 
L 148.542315 78.386661 
L 148.974795 78.700636 
L 149.483594 76.662679 
L 149.941513 75.431206 
L 149.992393 76.259756 
L 150.043273 75.57276 
L 150.195912 75.332285 
L 150.908231 74.77959 
L 151.264391 76.692467 
L 152.689028 76.844312 
L 153.070628 77.889661 
L 153.859266 76.5149 
L 154.062786 75.181383 
L 154.393505 73.994348 
L 154.520705 72.949403 
L 155.461983 70.394011 
L 156.199742 69.670031 
L 156.505022 68.967771 
L 158.005979 67.745077 
L 158.107739 68.697733 
L 158.387578 68.769987 
L 158.540218 67.029949 
L 158.692858 68.004059 
L 159.252537 66.925867 
L 159.888536 67.903099 
L 159.913976 69.596359 
L 160.219255 68.257442 
L 160.499095 68.342905 
L 160.575415 66.828635 
L 162.152692 66.458543 
L 162.178132 65.426716 
L 162.432531 65.703578 
L 164.289648 64.6944 
L 164.569488 64.993232 
L 164.645808 66.384148 
L 164.773007 65.99342 
L 164.798447 66.572714 
L 165.434446 66.495763 
L 165.561646 66.847031 
L 165.637966 66.655372 
L 166.350285 68.712567 
L 166.426605 68.251987 
L 166.452044 68.550568 
L 166.833644 70.43736 
L 167.240683 71.522204 
L 167.393323 71.19029 
L 167.724042 71.720156 
L 167.774922 70.743436 
L 168.105642 71.499663 
L 169.04692 70.848992 
L 169.657479 69.685452 
L 169.835559 68.982729 
L 169.988198 69.365866 
L 170.598757 68.885686 
L 170.675077 71.081858 
L 171.743555 70.337243 
L 172.176035 69.614967 
L 172.608514 69.553225 
L 172.633954 70.025726 
L 173.142753 70.697007 
L 173.219073 71.987016 
L 173.448032 70.576379 
L 174.363871 68.995106 
L 174.440191 67.674226 
L 174.84723 66.180017 
L 174.89811 68.883271 
L 175.635869 68.204613 
L 176.348187 69.995306 
L 176.551707 68.857376 
L 176.653467 69.350752 
L 176.856987 69.616371 
L 177.136826 68.489809 
L 177.798265 68.887734 
L 177.925465 67.783031 
L 178.332504 68.62807 
L 178.943063 67.519153 
L 179.172023 67.520286 
L 179.400982 67.734341 
L 179.706262 69.602125 
L 180.011541 69.114858 
L 180.062421 69.494031 
L 180.138741 68.584095 
L 181.029139 69.085669 
L 181.334419 68.933329 
L 181.817778 67.188392 
L 182.402897 67.518881 
L 182.911696 67.307067 
L 184.132814 67.21855 
L 184.361774 68.399957 
L 184.438094 67.522844 
L 184.488973 68.375689 
L 185.862731 68.120733 
L 186.37153 66.826085 
L 186.42241 66.209143 
L 186.44785 67.101399 
L 186.62593 67.32802 
L 187.083849 66.163631 
L 187.796168 69.612721 
L 188.508487 67.611082 
L 189.169925 66.118767 
L 189.297125 65.523045 
L 189.729604 65.584061 
L 190.187524 64.578469 
L 190.391043 63.177133 
L 191.179682 62.350226 
L 191.866561 62.506427 
L 193.469278 60.180219 
L 193.876317 59.656175 
L 194.232477 59.893197 
L 194.766716 59.697198 
L 195.784314 58.655256 
L 196.471193 58.861911 
L 197.412471 58.803328 
L 197.692311 58.001157 
L 197.84495 57.010096 
L 198.20111 57.539456 
L 198.25199 56.775202 
L 199.066068 56.672742 
L 199.676627 56.999268 
L 199.981907 57.422475 
L 200.032787 56.66173 
L 200.185426 56.349719 
L 201.126705 56.805498 
L 201.889904 55.775594 
L 201.991663 57.406768 
L 202.373263 57.498317 
L 203.416301 56.09643 
L 203.492621 56.333767 
L 204.408459 57.096373 
L 204.917258 56.668979 
L 205.171658 57.102095 
L 205.629577 56.563917 
L 205.655017 58.171442 
L 206.087496 58.027095 
L 206.163816 57.248211 
L 207.028775 57.131561 
L 207.079655 58.083189 
L 207.257734 57.302623 
L 207.944613 56.971385 
L 208.173573 55.585305 
L 208.707812 57.435144 
L 209.318371 57.09993 
L 209.445571 58.052507 
L 209.59821 56.633994 
L 210.285089 57.06816 
L 210.793888 58.979991 
L 210.921088 59.024343 
L 211.429887 59.735186 
L 212.065886 59.650404 
L 212.625565 63.112902 
L 212.752765 61.755532 
L 213.210684 61.265738 
L 213.617723 60.389695 
L 213.872123 65.848607 
L 214.228282 67.390546 
L 214.330042 66.75667 
L 214.915161 66.141811 
L 215.144121 65.119486 
L 215.62748 66.257388 
L 215.907319 68.532408 
L 215.958199 68.503144 
L 216.110839 66.984068 
L 216.441558 69.237288 
L 216.899478 69.719266 
L 217.891636 69.547918 
L 218.476755 69.062277 
L 218.782034 66.75471 
L 219.214514 66.778777 
L 219.494353 66.482688 
L 219.774193 65.237181 
L 219.952272 65.306773 
L 220.104912 65.054844 
L 220.715471 64.597517 
L 222.114669 65.857556 
L 222.216429 69.635261 
L 223.132267 68.295177 
L 223.157707 68.805419 
L 223.259467 66.744885 
L 223.768266 66.449813 
L 223.793706 66.695982 
L 223.819146 65.018164 
L 224.022665 65.733194 
L 225.142024 65.947455 
L 225.320103 66.208694 
L 225.396423 65.82323 
L 225.879782 67.685364 
L 227.25354 69.278679 
L 227.482499 68.588159 
L 227.635139 69.475931 
L 228.322018 64.666971 
L 228.627298 66.137882 
L 229.314176 67.032276 
L 229.415936 66.196193 
L 229.975615 64.178998 
L 231.705532 62.789646 
L 232.061692 62.080842 
L 232.265211 61.393302 
L 232.621371 61.152299 
L 232.646811 59.640792 
L 233.308249 59.452365 
L 233.664409 60.76028 
L 234.300408 60.325312 
L 235.114486 58.674253 
L 235.775925 57.875955 
L 236.233844 59.231162 
L 236.335604 60.013324 
L 237.149683 62.227748 
L 237.633042 61.748756 
L 238.294481 62.242435 
L 238.67608 61.124136 
L 238.90504 62.646821 
L 239.464719 62.581168 
L 239.566479 63.901697 
L 239.922638 63.372487 
L 240.940236 64.878356 
L 241.398156 66.921317 
L 241.474475 66.407996 
L 241.957835 66.335986 
L 242.263114 64.504319 
L 243.204392 64.808853 
L 243.611432 66.16903 
L 243.891271 66.5301 
L 244.34919 65.283171 
L 244.60359 65.138428 
L 244.62903 63.826771 
L 244.959749 63.725719 
L 245.086949 65.11839 
L 245.112389 63.700856 
L 245.799268 64.448362 
L 246.180867 63.902751 
L 246.944066 63.37351 
L 247.249345 64.350123 
L 247.427425 63.80746 
L 247.681825 62.216298 
L 247.885344 60.240526 
L 248.139744 60.140584 
L 248.750303 59.724207 
L 248.979263 60.172145 
L 249.462622 60.393688 
L 249.895101 63.377009 
L 251.141659 64.247752 
L 251.548698 65.069414 
L 252.362777 63.866305 
L 252.795256 63.870545 
L 253.049656 64.30057 
L 253.176855 63.546438 
L 253.456695 63.134364 
L 253.609335 65.396597 
L 253.787414 64.396629 
L 254.245333 64.491438 
L 254.372533 63.944535 
L 254.499733 64.798252 
L 255.237492 62.876453 
L 255.313812 64.294601 
L 256.28053 66.410899 
L 256.585809 66.232324 
L 257.170928 66.272062 
L 257.298128 66.949475 
L 258.849966 67.39361 
L 258.875405 67.185554 
L 259.689484 67.303173 
L 260.986922 68.56396 
L 261.190441 68.107838 
L 261.215881 67.239488 
L 262.08084 66.610144 
L 262.360679 66.106158 
L 262.665959 65.084902 
L 263.098438 66.649753 
L 264.624836 65.825145 
L 265.235395 66.30301 
L 265.998593 64.636982 
L 266.100353 63.020935 
L 266.456512 62.411669 
L 266.888992 61.288293 
L 267.041631 61.476352 
L 268.11011 62.191158 
L 268.517149 61.92622 
L 268.796988 61.243318 
L 269.025948 62.178071 
L 269.229468 60.848747 
L 269.789147 61.238812 
L 270.068986 58.965994 
L 270.577785 58.3719 
L 270.781305 59.650497 
L 270.959385 59.142344 
L 271.010265 58.117048 
L 272.307702 57.548421 
L 272.587542 57.635721 
L 272.791062 56.868578 
L 273.299861 55.911495 
L 273.325301 55.941424 
L 273.376181 54.586243 
L 273.73234 53.910585 
L 273.8341 54.000542 
L 274.063059 56.110879 
L 274.088499 57.94495 
L 274.215699 58.020354 
L 274.342899 57.88054 
L 274.724498 57.74492 
L 275.513137 57.613369 
L 275.818416 56.20803 
L 275.996496 56.122585 
L 276.123696 55.72027 
L 276.479855 55.649459 
L 276.708815 55.793727 
L 277.090414 56.998446 
L 277.370254 56.037466 
L 277.548333 55.957138 
L 277.573773 57.476388 
L 277.802733 56.714026 
L 278.769451 56.293968 
L 278.972971 56.418901 
L 278.998411 56.646564 
L 279.100171 55.909096 
L 279.914249 55.193752 
L 281.109927 55.351692 
L 281.211687 54.759548 
L 281.669606 54.717558 
L 281.796806 56.06104 
L 282.254725 56.192961 
L 282.331045 56.853313 
L 282.865284 56.74851 
L 283.145124 57.17924 
L 283.755683 57.06466 
L 283.933762 56.421127 
L 284.366242 56.116334 
L 284.417122 55.820684 
L 284.493441 54.682082 
L 285.02768 55.174805 
L 285.07856 54.268534 
L 285.20576 54.45423 
L 285.4856 53.782533 
L 285.790879 53.982809 
L 286.223358 54.709466 
L 286.681278 55.09489 
L 286.833917 55.681706 
L 286.961117 54.973184 
L 287.088317 54.924785 
L 287.546236 54.451927 
L 287.571676 56.016333 
L 288.258555 56.788462 
L 288.462075 55.620826 
L 288.716474 56.93721 
L 288.996314 56.616934 
L 289.530553 56.519222 
L 289.988472 57.276265 
L 290.802551 58.117074 
L 290.827991 57.335491 
L 290.98063 57.429178 
L 292.303508 57.307099 
L 292.354388 56.975727 
L 292.608787 58.783853 
L 292.786867 58.940567 
L 293.473746 60.476792 
L 294.007985 61.00863 
L 294.262385 62.163379 
L 294.669424 63.389964 
L 294.720304 62.769628 
L 295.712462 62.313601 
L 295.839662 62.683856 
L 296.119501 61.978226 
L 296.246701 61.080808 
L 297.340619 61.381569 
L 297.416939 61.779786 
L 297.925738 61.101277 
L 298.103818 60.650149 
L 298.765257 61.602697 
L 298.943337 61.355413 
L 300.520614 62.393281 
L 300.546054 62.974102 
L 300.775013 62.366242 
L 300.953093 62.521962 
L 301.029413 63.631312 
L 301.207493 62.25839 
L 301.283813 62.949735 
L 302.123331 60.091572 
L 302.403171 61.9127 
L 302.70845 59.528959 
L 302.73389 58.279108 
L 302.81021 58.450965 
L 303.420769 57.659365 
L 303.573409 57.743336 
L 304.158528 56.972965 
L 304.412927 58.674696 
L 304.616447 58.941163 
L 304.921726 57.49599 
L 306.168284 58.22373 
L 306.193724 57.013036 
L 306.397244 56.264574 
L 306.626203 57.029256 
L 308.228921 56.709112 
L 308.30524 55.969768 
L 309.322839 55.891471 
L 310.187797 56.261466 
L 311.917714 56.089982 
L 312.197554 56.008079 
L 312.655473 57.951712 
L 313.571311 57.920435 
L 313.698511 57.570663 
L 313.723951 56.805472 
L 313.774831 57.766883 
L 314.13099 57.847628 
L 314.43627 57.287084 
L 315.021389 57.914613 
L 315.148589 56.819671 
L 315.174029 56.928833 
L 315.555628 56.395852 
L 315.708268 56.517729 
L 315.962667 55.997082 
L 316.573226 57.089222 
L 317.005705 58.787465 
L 317.565385 57.559859 
L 318.532103 55.859283 
L 318.608423 58.233291 
L 318.811942 57.235266 
L 319.218982 56.267181 
L 319.320741 54.902228 
L 319.447941 55.494825 
L 319.626021 58.433405 
L 320.516419 57.855288 
L 320.694499 58.146337 
L 321.610338 56.391933 
L 322.322656 56.939839 
L 322.373536 57.151873 
L 322.449856 55.888543 
L 322.831455 55.10662 
L 323.111295 56.991329 
L 323.849054 57.308297 
L 324.205213 59.425879 
L 324.485053 58.71151 
L 324.841212 58.711468 
L 324.866652 57.912053 
L 325.578971 58.307877 
L 325.80793 58.159437 
L 326.01145 57.802495 
L 326.723769 55.147536 
L 327.512407 54.242083 
L 327.741367 53.789706 
L 328.072086 54.3092 
L 328.148406 53.854809 
L 328.173846 52.775183 
L 328.301046 53.218635 
L 328.530006 52.690483 
L 328.911605 53.675568 
L 328.937045 54.092008 
L 329.369524 53.218222 
L 330.132723 53.861338 
L 330.387122 55.336985 
L 331.328401 55.703583 
L 331.55736 55.526794 
L 331.5828 56.100653 
L 331.73544 56.01843 
L 332.142479 54.873895 
L 332.320559 56.212687 
L 333.058318 56.044086 
L 333.287277 56.92186 
L 333.414477 55.963178 
L 333.694317 55.033256 
L 333.923276 55.515444 
L 334.279436 55.663733 
L 334.559275 56.020529 
L 335.551434 59.351197 
L 336.289192 58.796932 
L 336.518152 58.740298 
L 336.874311 57.940018 
L 337.026951 56.737836 
L 337.077831 57.062408 
L 337.942789 57.5902 
L 338.095429 58.741024 
L 338.248069 58.792545 
L 338.298949 57.564787 
L 338.324389 57.864551 
L 338.578788 57.516455 
L 338.705988 57.072324 
L 339.062148 56.854473 
L 339.698146 55.802508 
L 340.334145 56.474575 
L 340.817505 57.339434 
L 341.046464 56.368225 
L 341.962303 57.342522 
L 342.191262 56.797131 
L 342.776381 56.268102 
L 342.852701 54.405358 
L 344.150139 54.693427 
L 344.429978 57.757841 
L 344.658938 57.412946 
L 345.091417 58.036699 
L 345.625656 57.896394 
L 346.007256 58.399166 
L 346.414295 57.822076 
L 346.923094 57.901166 
L 347.101174 56.700149 
L 347.279253 56.706418 
L 347.406453 56.286589 
L 348.195092 56.411743 
L 348.449491 55.398721 
L 349.31445 54.911644 
L 349.39077 54.652136 
L 349.746929 56.955881 
L 349.823249 55.996178 
L 350.103089 56.130045 
L 350.255728 55.088639 
L 350.968047 53.759042 
L 351.044367 53.321156 
L 351.069807 54.17414 
L 351.222447 54.575624 
L 351.273327 54.326196 
L 351.705806 53.019472 
L 352.138285 55.137204 
L 352.926924 52.515027 
L 353.919082 51.475594 
L 354.224361 51.745079 
L 354.275241 51.048178 
L 354.529641 52.821174 
L 354.80948 53.050291 
L 355.16564 52.022975 
L 355.21652 52.063082 
L 355.648999 51.88903 
L 356.132358 52.252589 
L 357.048197 53.350587 
L 357.735075 54.932332 
L 357.887715 56.588804 
L 358.116675 57.450237 
L 359.464992 56.369451 
L 359.490432 57.45042 
L 359.948352 58.073049 
L 360.66067 57.61222 
L 360.78787 58.97534 
L 361.11859 58.59392 
L 361.14403 57.798032 
L 361.474749 57.984321 
L 361.805468 56.768688 
L 361.856348 56.027556 
L 361.881788 56.373437 
L 362.390587 56.921898 
L 362.517787 56.815037 
L 362.873947 56.285471 
L 363.128346 57.475437 
L 363.433626 60.381823 
L 364.222264 60.283065 
L 365.112663 61.459581 
L 365.341622 60.790679 
L 366.56274 61.100144 
L 366.68994 60.974414 
L 367.351379 61.886247 
L 367.453139 61.4175 
L 367.860178 61.069293 
L 368.190897 61.476878 
L 368.699697 62.511102 
L 368.928656 62.02361 
L 369.132176 60.911875 
L 370.048014 59.313462 
L 370.556813 59.454288 
L 370.633133 59.271456 
L 371.040173 59.626497 
L 371.727051 59.57238 
L 373.253449 59.492482 
L 373.507848 58.510344 
L 374.271047 58.249353 
L 374.754406 58.741535 
L 374.830726 59.005997 
L 376.509763 56.774876 
L 377.044002 56.033559 
L 377.196642 59.999507 
L 377.247522 59.800318 
L 377.781761 59.181194 
L 378.34144 58.793598 
L 379.079199 59.056498 
L 380.249437 59.630945 
L 380.656476 60.507591 
L 380.961755 61.570894 
L 382.462713 61.218086 
L 382.869752 61.301773 
L 383.658391 62.554206 
L 383.86191 62.065421 
L 384.39615 61.378343 
L 385.032148 60.285966 
L 385.159348 59.652272 
L 385.490068 59.4635 
L 385.820787 59.919259 
L 385.973427 58.657699 
L 387.041905 57.966375 
L 387.067345 58.041136 
L 387.194545 58.220132 
L 387.576144 57.222501 
L 388.339343 56.148322 
L 389.484141 58.907407 
L 390.17102 57.463247 
L 390.19646 56.275367 
L 390.399979 55.229602 
L 390.781579 54.496206 
L 391.010538 55.633372 
L 391.392137 54.819823 
L 391.493897 53.924201 
L 391.544777 54.120227 
L 391.926377 53.45855 
L 392.384296 52.177856 
L 392.842215 53.916962 
L 393.223814 53.793771 
L 393.554534 56.672844 
L 393.859813 55.934588 
L 393.885253 56.070302 
L 393.987013 55.137167 
L 396.200289 54.878678 
L 396.581889 52.891482 
L 397.497727 52.692578 
L 397.624927 53.138508 
L 398.846045 52.932194 
L 398.947804 52.732069 
L 399.456604 53.38977 
L 400.677722 54.56013 
L 400.703161 54.843556 
L 401.3646 56.289735 
L 401.44092 55.137061 
L 402.509398 54.551356 
L 402.916438 55.154479 
L 403.806836 54.035863 
L 404.544595 57.667512 
L 405.384113 57.857716 
L 405.816593 57.190392 
L 405.892913 60.908679 
L 405.969232 60.682215 
L 406.299952 60.249589 
L 406.986831 60.362332 
L 407.62283 61.100577 
L 407.800909 59.803577 
L 408.207949 60.142656 
L 408.360588 59.939172 
L 408.894827 62.510218 
L 409.225547 62.981052 
L 409.505386 62.798895 
L 410.115945 64.006414 
L 410.701064 63.899974 
L 410.777384 67.310496 
L 411.108104 67.104933 
L 411.209863 66.692582 
L 411.362503 65.440778 
L 411.896742 65.184828 
L 412.202022 65.468947 
L 412.456421 65.318631 
L 412.481861 65.918169 
L 413.2705 65.404383 
L 413.29594 65.043048 
L 413.44858 64.479597 
L 413.44858 64.479597 
" clip-path="url(#p1c660a153c)" style="fill: none; stroke: #1f77b4; stroke-width: 1.5; stroke-linecap: square"/>
   </g>
   <g id="patch_3">
    <path d="M 40.603125 232.46 
L 40.603125 10.7 
" style="fill: none; stroke: #000000; stroke-width: 0.8; stroke-linejoin: miter; stroke-linecap: square"/>
   </g>
   <g id="patch_4">
    <path d="M 431.203125 232.46 
L 431.203125 10.7 
" style="fill: none; stroke: #000000; stroke-width: 0.8; stroke-linejoin: miter; stroke-linecap: square"/>
   </g>
   <g id="patch_5">
    <path d="M 40.603125 232.46 
L 431.203125 232.46 
" style="fill: none; stroke: #000000; stroke-width: 0.8; stroke-linejoin: miter; stroke-linecap: square"/>
   </g>
   <g id="patch_6">
    <path d="M 40.603125 10.7 
L 431.203125 10.7 
" style="fill: none; stroke: #000000; stroke-width: 0.8; stroke-linejoin: miter; stroke-linecap: square"/>
   </g>
  </g>
 </g>
 <defs>
  <clipPath id="p1c660a153c">
   <rect x="40.603125" y="10.7" width="390.6" height="221.76"/>
  </clipPath>
 </defs>
</svg>
