<?xml version="1.0" encoding="utf-8" standalone="no"?>
<!DOCTYPE svg PUBLIC "-//W3C//DTD SVG 1.1//EN"
  "http://www.w3.org/Graphics/SVG/1.1/DTD/svg11.dtd">
<svg xmlns:xlink="http://www.w3.org/1999/xlink" width="441.903125pt" height="270.01625pt" viewBox="0 0 441.903125 270.01625" xmlns="http://www.w3.org/2000/svg" version="1.1">
 <metadata>
  <rdf:RDF xmlns:dc="http://purl.org/dc/elements/1.1/" xmlns:cc="http://creativecommons.org/ns#" xmlns:rdf="http://www.w3.org/1999/02/22-rdf-syntax-ns#">
   <cc:Work>
    <dc:type rdf:resource="http://purl.org/dc/dcmitype/StillImage"/>
    <dc:date>2023-11-01T23:43:53.402515</dc:date>
    <dc:format>image/svg+xml</dc:format>
    <dc:creator>
     <cc:Agent>
      <dc:title>Matplotlib v3.7.1, https://matplotlib.org/</dc:title>
     </cc:Agent>
    </dc:creator>
   </cc:Work>
  </rdf:RDF>
 </metadata>
 <defs>
  <style type="text/css">*{stroke-linejoin: round; stroke-linecap: butt}</style>
 </defs>
 <g id="figure_1">
  <g id="patch_1">
   <path d="M 0 270.01625 
L 441.903125 270.01625 
L 441.903125 0 
L 0 0 
z
" style="fill: #ffffff"/>
  </g>
  <g id="axes_1">
   <g id="patch_2">
    <path d="M 40.603125 232.46 
L 431.203125 232.46 
L 431.203125 10.7 
L 40.603125 10.7 
z
" style="fill: #ffffff"/>
   </g>
   <g id="PolyCollection_1">
    <path d="M 58.35767 153.589964 
L 58.35767 153.589964 
L 58.968229 164.229274 
L 59.044549 176.981456 
L 59.324389 190.600435 
L 59.705988 185.930074 
L 59.782308 183.015595 
L 60.291107 181.08718 
L 61.842944 186.651166 
L 61.919264 186.252736 
L 62.148224 185.333769 
L 63.725501 200.922948 
L 63.852701 198.641115 
L 64.38694 206.465665 
L 64.51414 204.947127 
L 64.69222 205.719728 
L 64.844859 210.783226 
L 65.735258 209.766129 
L 65.786138 208.292671 
L 65.989657 208.888465 
L 66.727416 207.510542 
L 67.236215 206.286812 
L 68.609973 205.127938 
L 68.635413 204.051042 
L 69.144212 208.080253 
L 69.602131 206.822197 
L 69.678451 206.685573 
L 69.703891 207.416963 
L 69.95829 206.217886 
L 71.535568 205.659757 
L 72.222447 205.261146 
L 72.629486 205.223599 
L 72.807566 211.057061 
L 72.833006 210.41726 
L 73.672524 209.641707 
L 74.028683 212.405902 
L 74.232203 212.516676 
L 74.359403 213.455632 
L 74.410283 213.402467 
L 74.715562 214.3314 
L 74.969962 215.216056 
L 76.06388 209.850503 
L 76.2674 209.946909 
L 76.470919 209.318297 
L 77.132358 209.221609 
L 77.361318 207.091963 
L 77.463078 204.571208 
L 77.513957 204.480634 
L 77.870117 204.358961 
L 77.920997 203.365507 
L 78.048197 203.335349 
L 78.099076 205.724573 
L 78.302596 205.622005 
L 78.455236 205.414611 
L 78.480676 206.534883 
L 79.167555 206.562083 
L 80.973792 210.191524 
L 81.024671 207.470446 
L 81.86419 208.058889 
L 81.94051 209.211458 
L 82.372989 208.998311 
L 82.601949 210.499237 
L 82.627389 206.563638 
L 82.780028 207.634513 
L 82.805468 207.340281 
L 82.932668 205.181296 
L 83.390587 207.412531 
L 83.466907 207.634406 
L 83.695867 207.191275 
L 84.942425 205.415382 
L 85.018745 211.28172 
L 85.171384 221.989054 
L 85.324024 220.908787 
L 85.451224 217.754713 
L 85.705623 215.912483 
L 85.858263 215.637925 
L 85.985463 218.388863 
L 87.308341 219.592948 
L 87.43554 219.544693 
L 87.46098 219.905052 
L 87.9189 220.786502 
L 88.249619 220.805503 
L 88.580338 220.879425 
L 89.547057 221.079078 
L 89.979536 220.423855 
L 90.488335 221.754714 
L 90.819055 222.136334 
L 91.378734 222.145091 
L 91.455054 221.931056 
L 91.734893 221.196285 
L 91.811213 220.790434 
L 91.912973 218.782662 
L 93.134091 217.10986 
L 93.28673 217.703137 
L 93.31217 217.550324 
L 93.871849 217.370535 
L 94.177129 217.13611 
L 94.431528 217.010666 
L 95.194727 221.431792 
L 95.474567 222.38 
L 95.678086 219.245414 
L 95.830726 211.041885 
L 96.644805 211.321641 
L 96.746564 210.767904 
L 97.382563 209.608613 
L 97.789603 209.926263 
L 97.815043 207.243163 
L 98.196642 205.830949 
L 98.298402 207.136252 
L 98.730881 214.394095 
L 99.621279 211.521903 
L 99.824799 212.863361 
L 100.333598 212.491376 
L 100.689758 212.26446 
L 100.918717 216.930106 
L 101.071357 215.716979 
L 101.198557 212.191227 
L 101.376636 212.948361 
L 101.605596 212.474275 
L 101.961755 213.638047 
L 102.012635 214.724581 
L 102.088955 215.248498 
L 102.317915 215.759125 
L 103.055674 215.26883 
L 103.208313 214.90688 
L 103.818872 216.817339 
L 104.353111 216.440697 
L 104.811031 219.001568 
L 105.03999 214.478372 
L 105.37071 212.641283 
L 105.447029 213.783318 
L 105.650549 213.396121 
L 106.668147 212.380102 
L 107.100627 211.908511 
L 107.355026 211.778294 
L 107.431346 211.919694 
L 107.940145 211.619267 
L 108.347184 211.319673 
L 108.805104 211.487132 
L 109.110383 202.640767 
L 109.542862 200.974852 
L 109.695502 197.243941 
L 110.306061 194.836128 
L 110.636781 192.012828 
L 110.7131 178.040801 
L 110.73854 178.302208 
L 110.94206 177.001331 
L 111.04382 177.796426 
L 111.2219 176.390272 
L 112.468457 176.271416 
L 112.570217 175.420427 
L 112.748297 174.792551 
L 112.977256 170.271775 
L 113.536936 170.601809 
L 113.638695 175.114532 
L 113.842215 173.668815 
L 114.045735 175.541582 
L 114.147494 167.776422 
L 114.656294 164.263425 
L 114.783493 164.34281 
L 114.808933 163.473856 
L 114.936133 163.258878 
L 115.241413 160.464913 
L 115.317732 158.83284 
L 115.444932 159.656326 
L 115.928291 159.74345 
L 116.335331 160.067417 
L 116.58973 159.256311 
L 116.89501 161.939358 
L 117.556449 161.365485 
L 117.785408 160.540176 
L 118.675807 158.086084 
L 118.701247 157.347002 
L 118.752127 156.76189 
L 119.871485 156.109417 
L 120.075004 154.106032 
L 120.303964 152.876606 
L 120.354844 151.278078 
L 120.482044 152.714752 
L 121.118042 151.153743 
L 121.143482 150.674517 
L 121.397882 150.518561 
L 121.448762 150.163696 
L 121.575962 149.408526 
L 121.932121 142.300424 
L 122.084761 141.680266 
L 122.31372 137.460143 
L 122.69532 147.224209 
L 122.79708 148.277335 
L 122.84796 146.756304 
L 123.483958 146.141019 
L 124.043637 147.052243 
L 124.196277 154.418039 
L 124.628756 153.412873 
L 124.781396 152.848149 
L 125.442835 152.85961 
L 126.027954 152.294708 
L 126.206034 154.803865 
L 126.333234 152.294312 
L 126.663953 152.628307 
L 126.842033 152.625917 
L 127.223632 152.356937 
L 127.605231 151.710849 
L 127.961391 151.112741 
L 128.851789 151.279422 
L 128.877229 151.796105 
L 128.902669 156.932198 
L 130.963306 156.924309 
L 131.192265 155.916008 
L 131.421225 155.352492 
L 131.573864 155.6904 
L 132.184423 155.46424 
L 133.380101 155.711723 
L 133.583621 155.891688 
L 134.499459 155.727339 
L 134.906499 159.117963 
L 134.982819 158.450573 
L 135.186338 152.91873 
L 135.262658 152.024142 
L 135.873217 151.4041 
L 135.974977 150.607822 
L 136.738176 147.686713 
L 137.323295 140.663895 
L 137.704894 140.681142 
L 138.162813 140.201735 
L 138.315453 140.771721 
L 138.722492 142.030087 
L 139.180411 138.991032 
L 139.205851 138.109577 
L 140.07081 137.210019 
L 140.325209 136.253557 
L 140.401529 139.372692 
L 140.426969 144.943301 
L 140.477849 144.590835 
L 140.503289 143.954385 
L 141.139288 144.741322 
L 141.978807 138.340706 
L 142.563926 137.850041 
L 142.996405 138.364301 
L 143.785043 138.014533 
L 144.471922 138.887612 
L 144.599122 138.588229 
L 145.158801 141.130908 
L 145.64216 141.16319 
L 145.69304 142.375788 
L 146.02376 141.264377 
L 146.430799 141.741833 
L 147.168558 147.039729 
L 147.244878 146.516788 
L 147.880876 146.365177 
L 148.542315 146.233719 
L 148.974795 145.690724 
L 149.483594 146.756933 
L 149.941513 146.771602 
L 149.992393 147.348277 
L 150.043273 146.781928 
L 150.195912 145.976064 
L 150.908231 145.308702 
L 151.264391 149.035369 
L 152.689028 148.751524 
L 152.790788 148.868503 
L 152.994308 148.316776 
L 153.070628 145.079958 
L 153.859266 144.952828 
L 154.062786 145.049272 
L 154.393505 143.858662 
L 154.520705 142.820305 
L 154.927744 142.650481 
L 155.054944 140.795518 
L 155.105824 140.855532 
L 155.360224 139.895385 
L 155.461983 139.366368 
L 156.199742 136.774313 
L 156.505022 134.424068 
L 157.827899 133.100442 
L 158.005979 130.684378 
L 158.107739 130.672675 
L 158.387578 124.975492 
L 158.540218 125.96461 
L 158.692858 127.669433 
L 159.252537 127.362847 
L 159.888536 128.609801 
L 159.913976 130.632848 
L 160.219255 130.240974 
L 160.499095 129.167697 
L 160.575415 129.561396 
L 162.025492 129.306387 
L 162.152692 129.336948 
L 162.178132 124.419428 
L 162.432531 124.381196 
L 164.289648 123.548562 
L 164.569488 122.452675 
L 164.594928 125.31138 
L 164.645808 124.907462 
L 164.773007 124.084693 
L 164.798447 124.59224 
L 165.434446 124.163857 
L 165.561646 124.219597 
L 165.637966 124.084346 
L 165.841486 124.935144 
L 166.350285 127.469132 
L 166.426605 127.200912 
L 166.452044 127.243009 
L 166.833644 131.43887 
L 167.240683 132.117305 
L 167.393323 131.931928 
L 167.724042 131.929909 
L 167.774922 131.978857 
L 168.105642 130.155308 
L 169.04692 129.470755 
L 169.657479 128.649658 
L 169.835559 127.915971 
L 169.988198 125.7429 
L 170.598757 123.961112 
L 170.675077 129.886884 
L 171.743555 127.534844 
L 172.176035 127.285845 
L 172.608514 127.242275 
L 172.633954 126.320985 
L 173.142753 127.085927 
L 173.219073 127.626054 
L 173.448032 128.803459 
L 174.363871 129.113356 
L 174.440191 129.829405 
L 174.84723 130.585 
L 174.89811 137.371656 
L 175.635869 137.27411 
L 176.348187 140.4907 
L 176.551707 140.61125 
L 176.653467 140.893645 
L 176.856987 139.996447 
L 177.136826 139.936 
L 177.798265 140.260178 
L 177.925465 137.82689 
L 178.332504 137.950934 
L 178.739543 137.712623 
L 178.943063 137.144588 
L 179.172023 136.706414 
L 179.400982 136.30446 
L 179.680822 138.292458 
L 179.706262 138.156714 
L 180.011541 137.6346 
L 180.062421 137.902178 
L 180.138741 137.678991 
L 181.029139 134.540814 
L 181.334419 134.136407 
L 181.817778 134.76965 
L 182.402897 135.095092 
L 182.911696 134.722243 
L 183.929294 134.156256 
L 184.132814 132.464828 
L 184.361774 133.42785 
L 184.438094 131.660029 
L 184.488973 131.491982 
L 185.786411 129.366401 
L 185.862731 123.053205 
L 186.37153 123.329745 
L 186.42241 119.689377 
L 186.44785 120.174942 
L 186.62593 120.050935 
L 187.083849 120.332492 
L 187.796168 132.513521 
L 188.304967 133.100349 
L 188.355847 132.078817 
L 188.508487 131.370442 
L 189.169925 131.712425 
L 189.297125 131.451696 
L 189.729604 131.494755 
L 190.187524 131.474307 
L 190.391043 130.318714 
L 191.179682 129.590453 
L 191.866561 129.717077 
L 192.45168 129.219897 
L 193.189438 129.154805 
L 193.469278 128.534592 
L 193.876317 128.248199 
L 194.232477 127.015135 
L 194.766716 126.577438 
L 195.784314 126.52719 
L 196.343993 126.765585 
L 196.471193 126.62451 
L 197.412471 124.645275 
L 197.692311 124.267756 
L 197.84495 122.724162 
L 198.20111 123.437331 
L 198.25199 122.966362 
L 199.066068 122.394506 
L 199.676627 122.786652 
L 199.981907 121.89329 
L 200.032787 121.178608 
L 200.185426 120.606714 
L 200.490706 103.827162 
L 201.126705 103.466056 
L 201.839024 103.240655 
L 201.889904 103.002862 
L 201.991663 107.686157 
L 202.373263 107.857972 
L 203.416301 108.154855 
L 203.492621 108.260524 
L 204.408459 108.699515 
L 204.840938 108.21659 
L 204.917258 107.868533 
L 205.171658 108.127799 
L 205.629577 106.553637 
L 205.655017 111.096328 
L 206.087496 110.830482 
L 206.163816 110.664316 
L 207.028775 110.581998 
L 207.079655 111.440132 
L 207.257734 111.334096 
L 207.944613 111.177987 
L 208.173573 112.048175 
L 208.707812 116.431505 
L 209.318371 115.399942 
L 209.445571 116.689989 
L 209.59821 117.006663 
L 210.285089 117.468216 
L 210.793888 121.933898 
L 210.921088 121.851333 
L 211.302687 121.767751 
L 211.429887 121.814107 
L 212.065886 121.766663 
L 212.523805 132.527108 
L 212.625565 131.557972 
L 212.752765 131.995565 
L 213.159804 130.408311 
L 213.210684 130.39069 
L 213.617723 128.570674 
L 213.668603 130.801745 
L 213.821243 141.412989 
L 213.872123 141.580038 
L 214.228282 143.789098 
L 214.330042 143.680462 
L 214.915161 143.023698 
L 215.144121 142.134066 
L 215.62748 143.470539 
L 215.907319 146.992095 
L 215.958199 146.769108 
L 216.110839 147.17147 
L 216.441558 150.378016 
L 216.899478 150.314451 
L 217.891636 147.927085 
L 218.476755 147.005248 
L 218.578515 146.630334 
L 218.603955 146.472686 
L 218.782034 144.454125 
L 219.214514 144.494791 
L 219.494353 143.229888 
L 219.774193 143.541786 
L 219.952272 143.59651 
L 220.104912 143.528781 
L 220.715471 143.346885 
L 222.114669 139.165506 
L 222.216429 150.042504 
L 223.132267 148.708054 
L 223.157707 148.726845 
L 223.259467 150.001613 
L 223.768266 149.064496 
L 223.793706 148.65208 
L 223.819146 142.596034 
L 224.022665 143.248367 
L 224.531465 141.79815 
L 225.142024 141.708265 
L 225.320103 141.689662 
L 225.396423 140.801404 
L 225.879782 143.480677 
L 227.25354 143.038155 
L 227.482499 142.818014 
L 227.533379 141.572351 
L 227.635139 138.878033 
L 227.787779 138.550796 
L 227.864099 138.473904 
L 228.042179 138.177339 
L 228.245698 137.589111 
L 228.322018 137.857138 
L 228.627298 139.698369 
L 229.314176 140.845331 
L 229.415936 140.651225 
L 229.695776 139.607125 
L 229.975615 139.592892 
L 231.705532 139.863279 
L 232.061692 139.602761 
L 232.265211 138.329608 
L 232.621371 126.850703 
L 232.646811 126.579921 
L 233.308249 125.835859 
L 233.664409 125.914054 
L 234.300408 125.719321 
L 235.038166 126.03871 
L 235.114486 124.372271 
L 235.775925 123.510309 
L 236.233844 125.9584 
L 236.335604 126.933557 
L 236.971603 130.026437 
L 237.149683 130.768484 
L 237.633042 127.151579 
L 238.294481 124.744295 
L 238.67608 124.60281 
L 238.8796 126.491194 
L 238.90504 126.193911 
L 239.464719 125.860404 
L 239.566479 128.131842 
L 239.922638 127.848675 
L 240.431437 128.741331 
L 240.940236 128.448073 
L 241.169196 128.518741 
L 241.398156 129.152325 
L 241.474475 128.504437 
L 241.957835 127.725775 
L 242.034154 126.751227 
L 242.263114 125.733355 
L 243.204392 125.509876 
L 243.611432 127.381189 
L 243.891271 127.546712 
L 244.34919 125.525194 
L 244.60359 125.284197 
L 244.62903 125.089704 
L 244.959749 124.717468 
L 245.086949 124.388584 
L 245.112389 125.32859 
L 245.697508 124.68465 
L 245.799268 123.955409 
L 246.180867 123.778363 
L 246.944066 121.979008 
L 247.173026 122.547279 
L 247.249345 122.470422 
L 247.427425 122.32787 
L 247.681825 122.341648 
L 247.758145 122.551081 
L 247.885344 122.326107 
L 248.139744 122.272587 
L 248.750303 120.43681 
L 248.979263 120.76953 
L 249.462622 120.289499 
L 249.895101 129.313551 
L 251.141659 129.383661 
L 251.472378 129.193862 
L 251.548698 129.418095 
L 252.362777 129.532727 
L 252.795256 129.498809 
L 253.049656 128.555478 
L 253.176855 128.324658 
L 253.456695 126.340037 
L 253.609335 132.065612 
L 253.787414 131.027254 
L 254.245333 131.109386 
L 254.372533 129.702079 
L 254.499733 130.869323 
L 254.957652 129.737209 
L 255.237492 128.163401 
L 255.313812 130.507991 
L 255.822611 132.635085 
L 256.02613 133.087828 
L 256.28053 133.041543 
L 256.585809 132.690259 
L 257.170928 132.665964 
L 257.298128 133.213776 
L 258.849966 131.314563 
L 258.875405 128.595779 
L 259.689484 128.18546 
L 260.783402 129.461379 
L 260.986922 129.001621 
L 261.190441 129.012204 
L 261.215881 129.263395 
L 262.08084 122.873402 
L 262.360679 122.304838 
L 262.665959 122.435908 
L 263.098438 125.639664 
L 264.624836 124.224626 
L 265.235395 124.703668 
L 265.998593 126.007299 
L 266.100353 126.640119 
L 266.456512 126.410473 
L 266.888992 122.316619 
L 267.041631 121.757329 
L 268.11011 122.662303 
L 268.517149 122.321781 
L 268.796988 121.534789 
L 269.025948 121.26067 
L 269.229468 121.797004 
L 269.738267 120.316126 
L 269.789147 118.488485 
L 269.865467 117.791587 
L 269.916346 117.779235 
L 270.068986 119.337875 
L 270.577785 119.042061 
L 270.654105 118.95771 
L 270.781305 119.440127 
L 270.959385 119.178933 
L 271.010265 118.89896 
L 272.307702 116.40228 
L 272.587542 116.038962 
L 272.791062 115.774498 
L 273.299861 115.532636 
L 273.325301 115.594421 
L 273.376181 115.886199 
L 273.73234 115.409396 
L 273.8341 111.18199 
L 274.063059 117.79784 
L 274.088499 121.914339 
L 274.215699 120.761694 
L 274.342899 119.24606 
L 274.724498 119.053898 
L 275.513137 118.251419 
L 275.818416 118.623041 
L 275.996496 117.667047 
L 276.123696 117.44473 
L 276.479855 117.269387 
L 276.708815 116.013822 
L 277.090414 117.510048 
L 277.370254 117.059956 
L 277.548333 116.93966 
L 277.573773 120.252564 
L 277.802733 119.90149 
L 278.769451 117.396376 
L 278.972971 117.323833 
L 278.998411 117.084097 
L 279.100171 116.262805 
L 279.914249 116.029955 
L 281.109927 115.52959 
L 281.211687 115.209184 
L 281.669606 115.133207 
L 281.796806 117.414117 
L 282.254725 116.722228 
L 282.331045 117.576324 
L 282.865284 115.606245 
L 283.145124 115.379082 
L 283.755683 115.327995 
L 283.933762 111.237913 
L 284.366242 107.094538 
L 284.417122 106.912449 
L 284.493441 107.497469 
L 285.02768 108.193761 
L 285.07856 108.373482 
L 285.20576 106.631493 
L 285.4856 106.669814 
L 285.790879 106.73138 
L 286.223358 107.854641 
L 286.681278 108.264126 
L 286.833917 107.261567 
L 286.961117 106.349894 
L 287.088317 106.315739 
L 287.546236 102.856855 
L 287.571676 106.77965 
L 288.258555 107.923345 
L 288.462075 108.601848 
L 288.716474 111.468065 
L 288.996314 110.758333 
L 289.530553 110.080497 
L 289.988472 111.213389 
L 290.802551 111.997078 
L 290.827991 112.139684 
L 290.98063 110.467672 
L 292.303508 110.386773 
L 292.354388 109.776603 
L 292.608787 114.640634 
L 292.786867 114.62388 
L 293.473746 118.088673 
L 294.007985 118.185341 
L 294.262385 120.007142 
L 294.669424 121.912345 
L 294.720304 119.966967 
L 294.898384 119.914702 
L 295.712462 118.37263 
L 295.839662 118.661521 
L 296.119501 117.756529 
L 296.246701 118.168545 
L 297.340619 118.269137 
L 297.416939 118.616582 
L 297.925738 118.676825 
L 298.078378 117.705754 
L 298.103818 117.592455 
L 298.765257 118.201995 
L 298.943337 116.697614 
L 300.520614 118.040124 
L 300.546054 116.350281 
L 300.775013 115.483434 
L 300.953093 115.180028 
L 301.029413 116.76088 
L 301.207493 117.936789 
L 301.283813 118.424663 
L 301.843492 120.247668 
L 302.123331 120.513854 
L 302.403171 124.154817 
L 302.65757 125.098926 
L 302.70845 123.108901 
L 302.73389 123.678556 
L 302.81021 121.908501 
L 303.420769 121.599865 
L 303.573409 120.259902 
L 304.158528 118.307873 
L 304.412927 122.109513 
L 304.616447 122.378464 
L 304.921726 122.897524 
L 306.168284 123.65074 
L 306.193724 123.640499 
L 306.397244 123.112318 
L 306.626203 123.981368 
L 307.516602 123.565383 
L 308.228921 123.315372 
L 308.30524 123.117437 
L 309.322839 123.036511 
L 309.933398 122.329688 
L 310.187797 122.352255 
L 311.586995 120.889886 
L 311.917714 120.133391 
L 312.197554 120.019513 
L 312.655473 124.72945 
L 313.571311 123.102586 
L 313.698511 121.979534 
L 313.723951 120.890885 
L 313.774831 120.121667 
L 314.13099 119.793707 
L 314.43627 115.767149 
L 315.021389 115.106855 
L 315.148589 114.872254 
L 315.174029 113.707308 
L 315.555628 113.504076 
L 315.708268 113.104957 
L 315.962667 112.965188 
L 316.573226 114.419047 
L 317.005705 115.617476 
L 317.565385 115.974593 
L 318.354023 114.983995 
L 318.532103 114.19452 
L 318.608423 119.917152 
L 318.811942 119.553138 
L 319.218982 119.204755 
L 319.320741 119.783978 
L 319.447941 120.492764 
L 319.498821 121.54767 
L 319.549701 121.625181 
L 319.626021 125.402678 
L 320.516419 125.273123 
L 320.694499 125.509711 
L 321.101538 125.444375 
L 321.610338 125.507414 
L 322.322656 123.185502 
L 322.373536 123.380953 
L 322.398976 123.330082 
L 322.449856 122.77691 
L 322.602496 121.799013 
L 322.831455 121.589718 
L 322.984095 123.245608 
L 323.111295 123.911612 
L 323.849054 123.322997 
L 324.205213 128.255258 
L 324.485053 127.85858 
L 324.739452 127.823587 
L 324.841212 127.574295 
L 324.866652 126.738762 
L 325.578971 124.895864 
L 325.80793 123.668206 
L 326.01145 121.812838 
L 326.393049 122.420582 
L 326.418489 117.499014 
L 326.723769 117.080524 
L 327.512407 116.441557 
L 327.741367 114.673213 
L 328.072086 114.934777 
L 328.148406 113.81642 
L 328.173846 114.094366 
L 328.301046 110.776826 
L 328.530006 110.494007 
L 328.733525 110.808739 
L 328.911605 111.202218 
L 328.937045 110.9703 
L 329.369524 110.62235 
L 330.132723 111.424519 
L 330.387122 113.977472 
L 331.328401 114.30416 
L 331.55736 114.131448 
L 331.5828 114.581727 
L 331.73544 113.329517 
L 332.142479 113.065322 
L 332.320559 115.702641 
L 333.032878 110.400309 
L 333.058318 110.061396 
L 333.287277 111.716448 
L 333.414477 111.748676 
L 333.694317 111.417106 
L 333.923276 111.75738 
L 334.279436 111.92659 
L 334.559275 112.352098 
L 335.246154 119.144638 
L 335.322474 119.176911 
L 335.551434 118.707313 
L 336.187432 117.595219 
L 336.289192 117.229747 
L 336.518152 117.106841 
L 336.874311 116.850709 
L 337.026951 116.002343 
L 337.077831 116.23139 
L 337.942789 116.209504 
L 338.095429 118.00149 
L 338.248069 117.973717 
L 338.298949 118.669465 
L 338.324389 117.813168 
L 338.578788 117.613317 
L 338.705988 115.944967 
L 339.062148 115.789379 
L 339.291107 115.629167 
L 339.698146 115.420522 
L 340.334145 116.265359 
L 340.817505 116.031056 
L 341.046464 114.866653 
L 341.504383 115.492413 
L 341.962303 115.914149 
L 342.191262 115.173843 
L 342.776381 114.150479 
L 342.827261 113.113921 
L 342.852701 113.929291 
L 344.150139 114.17086 
L 344.353658 117.678993 
L 344.429978 114.144647 
L 344.658938 113.973799 
L 345.091417 114.252526 
L 345.625656 113.893 
L 346.007256 114.546276 
L 346.414295 114.416562 
L 346.923094 113.922267 
L 347.101174 113.074724 
L 347.279253 112.970237 
L 347.406453 112.518989 
L 348.195092 110.99636 
L 348.398611 110.915892 
L 348.449491 109.462944 
L 349.31445 109.153742 
L 349.39077 108.97061 
L 349.746929 115.997056 
L 349.823249 116.125257 
L 350.103089 116.158954 
L 350.255728 115.955778 
L 350.968047 116.160728 
L 351.044367 115.119071 
L 351.069807 115.76621 
L 351.222447 115.84147 
L 351.273327 115.433795 
L 351.705806 115.809102 
L 351.909325 117.485541 
L 352.138285 118.989411 
L 352.519884 118.050103 
L 352.926924 118.532599 
L 353.919082 116.045633 
L 354.224361 113.992717 
L 354.275241 113.833516 
L 354.529641 117.434154 
L 354.80948 117.679119 
L 354.98756 116.93265 
L 355.16564 116.651972 
L 355.21652 116.580393 
L 355.648999 115.714912 
L 356.132358 116.102949 
L 357.048197 118.044272 
L 357.302596 118.669103 
L 357.735075 120.156275 
L 357.887715 123.634875 
L 358.116675 124.672928 
L 358.879873 124.425751 
L 359.464992 119.813895 
L 359.490432 121.034402 
L 359.948352 121.847903 
L 360.66067 120.710804 
L 360.78787 121.465289 
L 361.11859 121.001029 
L 361.14403 120.626477 
L 361.474749 120.71625 
L 361.678269 120.532938 
L 361.805468 118.620311 
L 361.856348 117.865506 
L 361.881788 117.346803 
L 362.390587 116.126719 
L 362.517787 113.973102 
L 362.873947 112.325004 
L 363.128346 114.308136 
L 363.255546 115.656426 
L 363.433626 116.742594 
L 363.916985 116.704996 
L 364.222264 115.73831 
L 365.112663 116.937598 
L 365.341622 117.007926 
L 366.56274 116.842604 
L 366.68994 116.844443 
L 367.071539 116.881385 
L 367.351379 117.199799 
L 367.453139 116.76509 
L 367.860178 114.724352 
L 368.190897 114.659899 
L 368.699697 115.777113 
L 368.928656 115.116186 
L 369.132176 115.063886 
L 369.640975 115.091909 
L 370.048014 114.875862 
L 370.556813 113.233841 
L 370.633133 112.958381 
L 371.040173 112.47233 
L 371.447212 112.428604 
L 371.727051 111.742909 
L 373.253449 111.146179 
L 373.482408 110.565507 
L 373.507848 110.514048 
L 374.271047 110.307923 
L 374.754406 110.757239 
L 374.830726 110.381431 
L 375.390405 109.531417 
L 376.509763 109.024498 
L 377.044002 105.951254 
L 377.196642 124.43875 
L 377.247522 124.325998 
L 377.781761 122.883864 
L 378.34144 122.448348 
L 379.079199 122.569228 
L 380.249437 123.293312 
L 380.656476 124.321419 
L 380.961755 125.918841 
L 382.462713 125.609949 
L 382.869752 125.611204 
L 383.658391 127.690911 
L 383.86191 126.533192 
L 384.39615 126.22002 
L 385.032148 125.449143 
L 385.159348 124.755408 
L 385.490068 124.225538 
L 385.820787 124.697149 
L 385.973427 125.057339 
L 387.041905 124.825173 
L 387.067345 124.882483 
L 387.194545 125.03095 
L 387.576144 125.082435 
L 388.339343 124.77611 
L 389.051662 128.496481 
L 389.484141 129.669683 
L 390.17102 130.003608 
L 390.19646 130.074438 
L 390.399979 129.729958 
L 390.705259 128.271297 
L 390.781579 127.80276 
L 391.010538 116.746534 
L 391.392137 116.700662 
L 391.493897 116.559301 
L 391.544777 116.705899 
L 391.926377 116.403902 
L 392.384296 116.204194 
L 392.842215 119.084799 
L 393.223814 117.317891 
L 393.478214 124.93087 
L 393.554534 125.2372 
L 393.859813 123.021975 
L 393.885253 123.188689 
L 393.987013 122.89779 
L 394.699332 122.406927 
L 395.360771 122.196918 
L 396.200289 122.16377 
L 396.327489 121.488932 
L 396.581889 120.934127 
L 397.497727 120.660624 
L 397.624927 121.122202 
L 398.846045 120.834315 
L 398.947804 120.253285 
L 399.456604 120.489354 
L 400.677722 119.303442 
L 400.703161 118.494844 
L 401.3646 120.27206 
L 401.44092 119.458632 
L 402.509398 118.488397 
L 402.916438 118.96148 
L 403.806836 119.201419 
L 404.188435 122.431026 
L 404.391955 122.935812 
L 404.519155 122.467356 
L 404.544595 123.209394 
L 405.384113 122.813348 
L 405.816593 120.937457 
L 405.892913 132.017488 
L 405.969232 131.805517 
L 406.299952 127.630112 
L 406.986831 127.679787 
L 407.44475 127.554191 
L 407.62283 127.839732 
L 407.800909 127.326015 
L 408.207949 127.581561 
L 408.360588 127.3862 
L 408.894827 133.666071 
L 409.225547 133.358606 
L 409.505386 131.171535 
L 410.115945 132.450719 
L 410.701064 132.432114 
L 410.777384 141.446286 
L 411.108104 140.945715 
L 411.209863 140.915585 
L 411.362503 141.152884 
L 411.896742 141.064066 
L 412.202022 140.672074 
L 412.456421 138.939009 
L 412.481861 138.617712 
L 412.96522 138.592229 
L 413.04154 136.721174 
L 413.24506 135.503877 
L 413.2705 135.461177 
L 413.29594 135.414268 
L 413.44858 135.377963 
L 413.44858 32.206478 
L 413.44858 32.206478 
L 413.29594 32.965414 
L 413.2705 33.428484 
L 413.24506 33.446752 
L 413.04154 32.447236 
L 412.96522 30.490842 
L 412.481861 30.997093 
L 412.456421 29.829623 
L 412.202022 28.308711 
L 411.896742 27.515721 
L 411.362503 27.788143 
L 411.209863 29.792207 
L 411.108104 30.34406 
L 410.777384 30.133616 
L 410.701064 34.334261 
L 410.115945 34.465883 
L 409.505386 34.040803 
L 409.225547 32.110825 
L 408.894827 31.138835 
L 408.360588 33.789995 
L 408.207949 33.881826 
L 407.800909 33.658805 
L 407.62283 34.975641 
L 407.44475 34.82443 
L 406.986831 34.093645 
L 406.299952 33.984198 
L 405.969232 30.419391 
L 405.892913 30.527045 
L 405.816593 36.359177 
L 405.384113 35.425131 
L 404.544595 34.760635 
L 404.519155 34.606207 
L 404.391955 33.678346 
L 404.188435 33.089805 
L 403.806836 33.642989 
L 402.916438 35.461716 
L 402.509398 35.083566 
L 401.44092 34.939981 
L 401.3646 35.753409 
L 400.703161 35.489522 
L 400.677722 34.280904 
L 399.456604 31.443175 
L 398.947804 30.750979 
L 398.846045 30.452401 
L 397.624927 30.455702 
L 397.497727 30.287905 
L 396.581889 30.295129 
L 396.327489 31.579015 
L 396.200289 31.870167 
L 395.360771 31.903316 
L 394.699332 31.916582 
L 393.987013 31.500971 
L 393.885253 32.527078 
L 393.859813 32.502247 
L 393.554534 31.328979 
L 393.478214 31.16021 
L 393.223814 35.184835 
L 392.842215 33.591795 
L 392.384296 34.017868 
L 391.926377 35.625701 
L 391.544777 36.257579 
L 391.493897 36.127511 
L 391.392137 37.250207 
L 391.010538 38.35256 
L 390.781579 25.691365 
L 390.705259 25.427357 
L 390.399979 24.799264 
L 390.19646 25.930752 
L 390.17102 27.678126 
L 389.484141 30.050304 
L 389.051662 29.916378 
L 388.339343 31.049772 
L 387.576144 32.259517 
L 387.194545 33.719034 
L 387.067345 33.614869 
L 387.041905 33.566665 
L 385.973427 34.310216 
L 385.820787 36.450941 
L 385.490068 36.279305 
L 385.159348 36.015864 
L 385.032148 36.216508 
L 384.39615 36.987385 
L 383.86191 37.643938 
L 383.658391 37.176079 
L 382.869752 37.488132 
L 382.462713 37.371274 
L 380.961755 37.560326 
L 380.656476 37.657029 
L 380.249437 37.447859 
L 379.079199 37.361183 
L 378.34144 37.111012 
L 377.781761 37.222538 
L 377.247522 36.654222 
L 377.196642 36.8226 
L 377.044002 49.712654 
L 376.509763 47.685687 
L 375.390405 49.186972 
L 374.830726 49.477704 
L 374.754406 48.728641 
L 374.271047 48.483302 
L 373.507848 48.645534 
L 373.482408 48.818897 
L 373.253449 49.399569 
L 371.727051 48.915604 
L 371.447212 48.191233 
L 371.040173 48.262564 
L 370.633133 47.275415 
L 370.556813 47.258 
L 370.048014 45.41722 
L 369.640975 46.235692 
L 369.132176 47.485158 
L 368.928656 49.001934 
L 368.699697 49.029041 
L 368.190897 48.686577 
L 367.860178 48.046869 
L 367.453139 46.497581 
L 367.351379 46.72445 
L 367.071539 46.485478 
L 366.68994 45.792867 
L 366.56274 45.972159 
L 365.341622 45.370065 
L 365.112663 46.384466 
L 364.222264 45.923247 
L 363.916985 44.948908 
L 363.433626 45.058347 
L 363.255546 43.972179 
L 363.128346 43.390803 
L 362.873947 43.694446 
L 362.517787 42.793764 
L 362.390587 40.790969 
L 361.881788 38.796801 
L 361.856348 37.789929 
L 361.805468 38.081139 
L 361.678269 36.937022 
L 361.474749 37.700916 
L 361.14403 37.527765 
L 361.11859 38.27651 
L 360.78787 38.350577 
L 360.66067 37.181188 
L 359.948352 36.694491 
L 359.490432 36.629229 
L 359.464992 36.324083 
L 358.879873 32.463309 
L 358.116675 32.990444 
L 357.887715 32.812692 
L 357.735075 33.953387 
L 357.302596 33.959917 
L 357.048197 33.832953 
L 356.132358 34.22459 
L 355.648999 34.099509 
L 355.21652 33.47968 
L 355.16564 33.351495 
L 354.98756 33.632173 
L 354.80948 33.774277 
L 354.529641 33.695872 
L 354.275241 34.794145 
L 354.224361 35.618533 
L 353.919082 33.185274 
L 352.926924 32.165339 
L 352.519884 34.470094 
L 352.138285 35.409402 
L 351.909325 35.441573 
L 351.705806 35.600796 
L 351.273327 37.820381 
L 351.222447 37.764743 
L 351.069807 37.273359 
L 351.044367 36.716617 
L 350.968047 36.292981 
L 350.255728 38.374493 
L 350.103089 39.641131 
L 349.823249 39.485892 
L 349.746929 40.968594 
L 349.39077 44.74359 
L 349.31445 44.926722 
L 348.449491 45.304969 
L 348.398611 44.250874 
L 348.195092 45.201308 
L 347.406453 43.502039 
L 347.279253 43.643328 
L 347.101174 43.529992 
L 346.923094 44.377535 
L 346.414295 43.771615 
L 346.007256 44.456392 
L 345.625656 44.400068 
L 345.091417 44.238565 
L 344.658938 43.636942 
L 344.429978 43.95287 
L 344.353658 38.441505 
L 344.150139 39.601618 
L 342.852701 39.436613 
L 342.827261 42.156757 
L 342.776381 41.844457 
L 342.191262 41.567752 
L 341.962303 41.597197 
L 341.504383 41.418138 
L 341.046464 41.269594 
L 340.817505 41.475932 
L 340.334145 40.020987 
L 339.698146 39.917287 
L 339.291107 40.744833 
L 339.062148 41.033147 
L 338.705988 41.185029 
L 338.578788 40.143514 
L 338.324389 40.434957 
L 338.298949 39.15558 
L 338.248069 41.584157 
L 338.095429 41.483668 
L 337.942789 41.651408 
L 337.077831 40.88461 
L 337.026951 40.655563 
L 336.874311 41.503929 
L 336.518152 42.377292 
L 336.289192 42.334317 
L 336.187432 41.896322 
L 335.551434 41.639029 
L 335.322474 40.191531 
L 335.246154 40.14523 
L 334.559275 43.293419 
L 334.279436 43.215354 
L 333.923276 43.175273 
L 333.694317 42.834999 
L 333.414477 43.815897 
L 333.287277 45.201186 
L 333.058318 45.617369 
L 333.032878 45.395624 
L 332.320559 40.214083 
L 332.142479 40.961864 
L 331.73544 42.313038 
L 331.5828 41.176876 
L 331.55736 40.817223 
L 331.328401 40.894027 
L 330.387122 40.703308 
L 330.132723 41.17357 
L 329.369524 41.068059 
L 328.937045 41.95335 
L 328.911605 41.133678 
L 328.733525 40.766297 
L 328.530006 40.451565 
L 328.301046 40.914166 
L 328.173846 36.970749 
L 328.148406 38.772453 
L 328.072086 38.295413 
L 327.741367 37.823775 
L 327.512407 36.693905 
L 326.723769 37.332872 
L 326.418489 38.541695 
L 326.393049 33.74849 
L 326.01145 36.347703 
L 325.80793 34.996114 
L 325.578971 33.977961 
L 324.866652 31.576407 
L 324.841212 31.869148 
L 324.739452 31.543601 
L 324.485053 31.584923 
L 324.205213 32.196488 
L 323.849054 34.140045 
L 323.111295 33.104069 
L 322.984095 32.689164 
L 322.831455 32.765931 
L 322.602496 33.252594 
L 322.449856 32.682325 
L 322.398976 32.549388 
L 322.373536 33.861317 
L 322.322656 33.757507 
L 321.610338 30.662295 
L 321.101538 32.097109 
L 320.694499 33.136119 
L 320.516419 32.961928 
L 319.626021 33.648313 
L 319.549701 34.858568 
L 319.498821 34.768288 
L 319.447941 34.410787 
L 319.320741 34.283197 
L 319.218982 36.788881 
L 318.811942 37.806829 
L 318.608423 38.851404 
L 318.532103 41.223419 
L 318.354023 40.8529 
L 317.565385 41.843498 
L 317.005705 43.933228 
L 316.573226 42.734799 
L 315.962667 42.647237 
L 315.708268 43.242297 
L 315.555628 42.671164 
L 315.174029 43.220167 
L 315.148589 41.901153 
L 315.021389 43.211927 
L 314.43627 41.665954 
L 314.13099 38.430535 
L 313.774831 37.988612 
L 313.723951 35.862482 
L 313.698511 35.853804 
L 313.571311 35.224413 
L 312.655473 33.641693 
L 312.197554 35.608433 
L 311.917714 35.610151 
L 311.586995 34.972827 
L 310.187797 33.633316 
L 309.933398 33.627611 
L 309.322839 32.426857 
L 308.30524 32.456437 
L 308.228921 33.301995 
L 307.516602 33.198181 
L 306.626203 33.087842 
L 306.397244 32.877638 
L 306.193724 33.405819 
L 306.168284 35.104321 
L 304.921726 34.830423 
L 304.616447 37.389165 
L 304.412927 37.282031 
L 304.158528 38.68189 
L 303.573409 37.817143 
L 303.420769 36.358666 
L 302.81021 37.167274 
L 302.73389 35.154665 
L 302.70845 37.48833 
L 302.65757 36.697158 
L 302.403171 39.806768 
L 302.123331 40.877434 
L 301.843492 42.367032 
L 301.283813 47.000568 
L 301.207493 46.512694 
L 301.029413 49.626311 
L 300.953093 49.641454 
L 300.775013 49.118267 
L 300.546054 49.10934 
L 300.520614 46.599741 
L 298.943337 46.477429 
L 298.765257 45.322059 
L 298.103818 44.587196 
L 298.078378 44.482266 
L 297.925738 44.139537 
L 297.416939 45.15741 
L 297.340619 44.942822 
L 296.246701 44.618927 
L 296.119501 46.297537 
L 295.839662 46.388454 
L 295.712462 46.154776 
L 294.898384 45.158469 
L 294.720304 45.204065 
L 294.669424 44.134214 
L 294.262385 44.308245 
L 294.007985 44.500261 
L 293.473746 43.846306 
L 292.786867 45.142908 
L 292.608787 44.904971 
L 292.354388 47.217058 
L 292.303508 47.074579 
L 290.98063 47.165979 
L 290.827991 45.361739 
L 290.802551 46.607452 
L 289.988472 46.204443 
L 289.530553 46.268865 
L 288.996314 45.728936 
L 288.716474 45.471233 
L 288.462075 46.479539 
L 288.258555 48.806014 
L 287.571676 48.859945 
L 287.546236 50.574775 
L 287.088317 47.783272 
L 286.961117 47.817427 
L 286.833917 47.905744 
L 286.681278 46.074966 
L 286.223358 45.940474 
L 285.790879 46.038149 
L 285.4856 45.81705 
L 285.20576 46.803389 
L 285.07856 44.799313 
L 285.02768 46.258122 
L 284.493441 46.258997 
L 284.417122 48.451013 
L 284.366242 48.686196 
L 283.933762 44.972998 
L 283.755683 41.791183 
L 283.145124 41.901812 
L 282.865284 41.066727 
L 282.331045 39.244565 
L 282.254725 39.166655 
L 281.796806 38.288577 
L 281.669606 38.673329 
L 281.211687 38.656616 
L 281.109927 39.171947 
L 279.914249 38.44867 
L 279.100171 39.225439 
L 278.998411 39.44499 
L 278.972971 38.883936 
L 278.769451 38.635066 
L 277.802733 36.722812 
L 277.573773 37.447718 
L 277.548333 38.616389 
L 277.370254 38.609465 
L 277.090414 39.515677 
L 276.708815 39.311592 
L 276.479855 37.852411 
L 276.123696 37.77701 
L 275.996496 38.12251 
L 275.818416 37.28711 
L 275.513137 39.642193 
L 274.724498 39.025382 
L 274.342899 39.024631 
L 274.215699 37.706328 
L 274.088499 36.44726 
L 274.063059 37.975195 
L 273.8341 41.612567 
L 273.73234 37.258199 
L 273.376181 37.735002 
L 273.325301 39.939449 
L 273.299861 39.958993 
L 272.791062 41.067936 
L 272.587542 41.886197 
L 272.307702 41.399667 
L 271.010265 39.705533 
L 270.959385 40.872639 
L 270.781305 41.328639 
L 270.654105 40.846222 
L 270.577785 39.922123 
L 270.068986 40.464801 
L 269.916346 44.592073 
L 269.865467 44.284163 
L 269.789147 44.52199 
L 269.738267 42.728414 
L 269.229468 40.662943 
L 269.025948 43.075453 
L 268.796988 41.482046 
L 268.517149 41.658885 
L 268.11011 41.692291 
L 267.041631 41.588404 
L 266.888992 40.763692 
L 266.456512 38.255344 
L 266.100353 38.8856 
L 265.998593 41.79927 
L 265.235395 45.454294 
L 264.624836 45.258888 
L 263.098438 45.007681 
L 262.665959 46.002845 
L 262.360679 47.57529 
L 262.08084 47.71804 
L 261.215881 42.216288 
L 261.190441 43.693047 
L 260.986922 44.34739 
L 260.783402 43.621734 
L 259.689484 43.384106 
L 258.875405 42.807783 
L 258.849966 40.382645 
L 257.298128 37.85659 
L 257.170928 37.448318 
L 256.585809 37.367938 
L 256.28053 37.26869 
L 256.02613 36.862523 
L 255.822611 36.479471 
L 255.313812 36.815352 
L 255.237492 37.158401 
L 254.957652 36.309855 
L 254.499733 37.164859 
L 254.372533 37.127188 
L 254.245333 36.491766 
L 253.787414 36.440087 
L 253.609335 36.813061 
L 253.456695 39.345773 
L 253.176855 37.942744 
L 253.049656 38.776289 
L 252.795256 37.226031 
L 252.362777 37.186128 
L 251.548698 38.998798 
L 251.472378 38.804593 
L 251.141659 37.873559 
L 249.895101 36.714724 
L 249.462622 41.528189 
L 248.979263 40.735476 
L 248.750303 40.435989 
L 248.139744 39.187876 
L 247.885344 39.275411 
L 247.758145 39.660639 
L 247.681825 42.048427 
L 247.427425 44.307931 
L 247.249345 44.931281 
L 247.173026 44.404589 
L 246.944066 44.044327 
L 246.180867 42.991932 
L 245.799268 43.584946 
L 245.697508 42.565086 
L 245.112389 41.156754 
L 245.086949 44.097433 
L 244.959749 41.802968 
L 244.62903 41.573353 
L 244.60359 43.230101 
L 244.34919 43.193391 
L 243.891271 42.931758 
L 243.611432 42.587676 
L 243.204392 42.539269 
L 242.263114 41.885978 
L 242.034154 42.90385 
L 241.957835 42.478727 
L 241.474475 41.801699 
L 241.398156 41.878299 
L 241.169196 41.244714 
L 240.940236 39.699165 
L 240.431437 38.359417 
L 239.922638 38.173217 
L 239.566479 38.636965 
L 239.464719 39.04464 
L 238.90504 38.803793 
L 238.8796 37.982324 
L 238.67608 38.245814 
L 238.294481 39.682669 
L 237.633042 36.578619 
L 237.149683 33.637752 
L 236.971603 33.527463 
L 236.335604 34.347295 
L 236.233844 34.218527 
L 235.775925 34.753911 
L 235.114486 35.018648 
L 235.038166 33.584186 
L 234.300408 36.001863 
L 233.664409 36.421033 
L 233.308249 34.653268 
L 232.646811 34.175147 
L 232.621371 36.03767 
L 232.265211 24.89891 
L 232.061692 24.596134 
L 231.705532 25.336006 
L 229.975615 27.567291 
L 229.695776 28.954889 
L 229.415936 29.355976 
L 229.314176 30.341899 
L 228.627298 30.226534 
L 228.322018 29.991758 
L 228.245698 32.302629 
L 228.042179 32.890858 
L 227.864099 33.187423 
L 227.787779 34.651573 
L 227.635139 35.758111 
L 227.533379 32.217991 
L 227.482499 30.565151 
L 227.25354 31.319593 
L 225.879782 28.628306 
L 225.396423 28.679407 
L 225.320103 28.335184 
L 225.142024 27.947874 
L 224.531465 27.632806 
L 224.022665 26.10537 
L 223.819146 25.748527 
L 223.793706 22.060512 
L 223.768266 21.300659 
L 223.259467 20.78 
L 223.157707 24.962955 
L 223.132267 24.261603 
L 222.216429 24.818515 
L 222.114669 30.363752 
L 220.715471 24.403984 
L 220.104912 24.867548 
L 219.952272 25.155386 
L 219.774193 25.111889 
L 219.494353 27.181666 
L 219.214514 26.334656 
L 218.782034 26.341355 
L 218.603955 25.837057 
L 218.578515 26.156009 
L 218.476755 27.047076 
L 217.891636 26.810661 
L 216.899478 24.665132 
L 216.441558 23.921313 
L 216.110839 23.947719 
L 215.958199 26.494069 
L 215.907319 26.312385 
L 215.62748 26.623031 
L 215.144121 26.353498 
L 214.915161 26.90675 
L 214.330042 27.117784 
L 214.228282 27.903785 
L 213.872123 27.936589 
L 213.821243 27.409356 
L 213.668603 32.966859 
L 213.617723 33.241379 
L 213.210684 32.657787 
L 213.159804 32.675408 
L 212.752765 31.744197 
L 212.625565 34.097547 
L 212.523805 32.934427 
L 212.065886 39.001972 
L 211.429887 39.074186 
L 211.302687 38.779117 
L 210.921088 38.033695 
L 210.793888 37.888531 
L 210.285089 39.655902 
L 209.59821 39.504685 
L 209.445571 41.823413 
L 209.318371 41.769016 
L 208.707812 41.210565 
L 208.173573 42.983078 
L 207.944613 45.809546 
L 207.257734 46.120938 
L 207.079655 47.116574 
L 207.028775 46.631603 
L 206.163816 46.713922 
L 206.087496 47.647053 
L 205.655017 47.584935 
L 205.629577 49.858806 
L 205.171658 49.044215 
L 204.917258 48.692191 
L 204.840938 48.488579 
L 204.408459 48.464422 
L 203.492621 47.827089 
L 203.416301 47.597787 
L 202.373263 49.87326 
L 201.991663 49.915864 
L 201.889904 52.29696 
L 201.839024 52.164615 
L 201.126705 53.287348 
L 200.490706 52.456933 
L 200.185426 35.503414 
L 200.032787 35.371885 
L 199.981907 35.730901 
L 199.676627 34.240233 
L 199.066068 34.171529 
L 198.25199 33.744283 
L 198.20111 34.351964 
L 197.84495 34.318006 
L 197.692311 34.173171 
L 197.412471 34.927816 
L 196.471193 33.031264 
L 196.343993 32.97543 
L 195.784314 32.836916 
L 194.766716 34.25724 
L 194.232477 34.096173 
L 193.876317 32.528581 
L 193.469278 32.981811 
L 193.189438 32.504383 
L 192.45168 34.290701 
L 191.866561 35.082478 
L 191.179682 34.988644 
L 190.391043 35.42746 
L 190.187524 36.249679 
L 189.729604 37.6485 
L 189.297125 37.605441 
L 189.169925 38.1855 
L 188.508487 40.633699 
L 188.355847 40.237545 
L 188.304967 39.53789 
L 187.796168 42.315686 
L 187.083849 49.628753 
L 186.62593 51.553701 
L 186.44785 51.109846 
L 186.42241 50.336102 
L 186.37153 47.566471 
L 185.862731 49.670246 
L 185.786411 43.381661 
L 184.488973 41.591308 
L 184.438094 40.219576 
L 184.361774 39.689691 
L 184.132814 38.985304 
L 183.929294 37.279105 
L 182.911696 36.85282 
L 182.402897 36.77892 
L 181.817778 36.637917 
L 181.334419 39.733923 
L 181.029139 39.544525 
L 180.138741 35.698438 
L 180.062421 36.759513 
L 180.011541 36.491935 
L 179.706262 36.657538 
L 179.680822 35.6815 
L 179.400982 35.873647 
L 179.172023 35.169582 
L 178.943063 34.729808 
L 178.739543 34.779837 
L 178.332504 35.488561 
L 177.925465 34.419936 
L 177.798265 33.545799 
L 177.136826 33.308355 
L 176.856987 34.83791 
L 176.653467 33.565824 
L 176.551707 33.151881 
L 176.348187 34.878478 
L 175.635869 35.567728 
L 174.89811 36.428022 
L 174.84723 39.399372 
L 174.440191 42.263857 
L 174.363871 44.844163 
L 173.448032 47.385831 
L 173.219073 50.554175 
L 173.142753 49.273613 
L 172.633954 49.091126 
L 172.608514 47.502961 
L 172.176035 47.546531 
L 171.743555 48.316935 
L 170.675077 47.015827 
L 170.598757 49.841976 
L 169.988198 48.737902 
L 169.835559 46.02408 
L 169.657479 46.282198 
L 169.04692 47.103295 
L 168.105642 47.337083 
L 167.774922 44.446214 
L 167.724042 45.87368 
L 167.393323 45.123821 
L 167.240683 45.406899 
L 166.833644 44.554212 
L 166.452044 46.087101 
L 166.426605 45.707788 
L 166.350285 46.089619 
L 165.841486 46.659987 
L 165.637966 46.570931 
L 165.561646 46.706182 
L 165.434446 46.266151 
L 164.798447 45.946375 
L 164.773007 45.63632 
L 164.645808 45.365015 
L 164.594928 44.909904 
L 164.569488 45.856696 
L 164.289648 44.339046 
L 162.432531 44.930741 
L 162.178132 44.501753 
L 162.152692 41.040529 
L 162.025492 41.023145 
L 160.575415 41.33842 
L 160.499095 43.869322 
L 160.219255 42.675425 
L 159.913976 44.173266 
L 159.888536 43.806487 
L 159.252537 43.674199 
L 158.692858 44.889347 
L 158.540218 45.219336 
L 158.387578 48.6643 
L 158.107739 42.86514 
L 158.005979 41.508881 
L 157.827899 39.255958 
L 156.505022 39.494872 
L 156.199742 38.13578 
L 155.461983 36.565533 
L 155.360224 36.625141 
L 155.105824 37.046464 
L 155.054944 36.826466 
L 154.927744 35.457471 
L 154.520705 36.718213 
L 154.393505 37.154666 
L 154.062786 37.639408 
L 153.859266 39.617947 
L 153.070628 41.431121 
L 152.994308 38.025622 
L 152.790788 36.525358 
L 152.689028 36.284175 
L 151.264391 35.78602 
L 150.908231 36.812898 
L 150.195912 36.925595 
L 150.043273 36.459132 
L 149.992393 36.862393 
L 149.941513 36.269673 
L 149.483594 38.022413 
L 148.974795 41.964945 
L 148.542315 40.978814 
L 147.880876 40.855297 
L 147.244878 40.866803 
L 147.168558 40.976807 
L 146.430799 43.208949 
L 146.02376 46.258174 
L 145.69304 43.305157 
L 145.64216 43.083976 
L 145.158801 45.976121 
L 144.599122 46.354486 
L 144.471922 47.387197 
L 143.785043 46.999792 
L 142.996405 47.51955 
L 142.563926 50.634436 
L 141.978807 50.34598 
L 141.139288 46.012964 
L 140.503289 45.368101 
L 140.477849 44.959778 
L 140.426969 45.772063 
L 140.401529 48.360387 
L 140.325209 49.489498 
L 140.07081 49.115243 
L 139.205851 49.435611 
L 139.180411 49.192099 
L 138.722492 47.585358 
L 138.315453 47.686558 
L 138.162813 47.373446 
L 137.704894 48.30755 
L 137.323295 48.232744 
L 136.738176 42.044594 
L 135.974977 40.913537 
L 135.873217 41.033105 
L 135.262658 41.202305 
L 135.186338 41.586153 
L 134.982819 36.597645 
L 134.906499 37.265035 
L 134.499459 38.003591 
L 133.583621 39.443137 
L 133.380101 41.896314 
L 132.184423 44.332387 
L 131.573864 44.658296 
L 131.421225 47.269556 
L 131.192265 47.655351 
L 130.963306 47.006007 
L 128.902669 48.917458 
L 128.877229 50.764696 
L 128.851789 53.778076 
L 127.961391 53.575036 
L 127.605231 53.835199 
L 127.223632 53.454213 
L 126.842033 53.613462 
L 126.663953 53.277905 
L 126.333234 53.268429 
L 126.206034 52.883631 
L 126.027954 53.555127 
L 125.442835 54.34922 
L 124.781396 54.212424 
L 124.628756 55.353996 
L 124.196277 55.798042 
L 124.043637 59.700171 
L 123.483958 64.322226 
L 122.84796 63.349481 
L 122.79708 61.614863 
L 122.69532 61.98301 
L 122.31372 68.097281 
L 122.084761 65.536964 
L 121.932121 66.318091 
L 121.575962 59.570116 
L 121.448762 58.721426 
L 121.397882 59.044791 
L 121.143482 59.123255 
L 121.118042 59.350483 
L 120.482044 59.137491 
L 120.354844 59.330095 
L 120.303964 58.618014 
L 120.075004 59.077091 
L 119.871485 58.194718 
L 118.752127 58.697929 
L 118.701247 59.614099 
L 118.675807 60.732587 
L 117.785408 59.418875 
L 117.556449 60.388927 
L 116.89501 61.04623 
L 116.58973 61.899969 
L 116.335331 62.456468 
L 115.928291 62.795984 
L 115.444932 63.054066 
L 115.317732 63.589014 
L 115.241413 64.138328 
L 114.936133 62.043934 
L 114.808933 64.874086 
L 114.783493 66.679657 
L 114.656294 70.135996 
L 114.147494 68.090329 
L 114.045735 60.753385 
L 113.842215 67.09574 
L 113.638695 67.933927 
L 113.536936 70.153346 
L 112.977256 73.851488 
L 112.748297 71.408637 
L 112.570217 73.387734 
L 112.468457 73.984923 
L 111.2219 74.274537 
L 111.04382 73.444414 
L 110.94206 78.086845 
L 110.73854 77.653733 
L 110.7131 78.035101 
L 110.636781 65.5811 
L 110.306061 64.787559 
L 109.695502 65.24692 
L 109.542862 61.373297 
L 109.110383 60.95461 
L 108.805104 54.013759 
L 108.347184 58.004803 
L 107.940145 60.872408 
L 107.431346 62.907567 
L 107.355026 66.231427 
L 107.100627 68.762385 
L 106.668147 69.484992 
L 105.650549 68.615609 
L 105.447029 70.238719 
L 105.37071 75.312374 
L 105.03999 75.514435 
L 104.811031 70.924463 
L 104.353111 71.247499 
L 103.818872 73.52151 
L 103.208313 79.558953 
L 103.055674 80.817849 
L 102.317915 82.77317 
L 102.088955 82.55156 
L 102.012635 86.503652 
L 101.961755 90.969458 
L 101.605596 95.307161 
L 101.376636 95.781247 
L 101.198557 99.220087 
L 101.071357 96.909699 
L 100.918717 98.498806 
L 100.689758 99.391444 
L 100.333598 98.838177 
L 99.824799 97.974818 
L 99.621279 97.570281 
L 98.730881 94.602303 
L 98.298402 97.733266 
L 98.196642 102.220604 
L 97.815043 100.990276 
L 97.789603 99.734111 
L 97.382563 102.142541 
L 96.746564 102.364053 
L 96.644805 103.078896 
L 95.830726 102.80733 
L 95.678086 95.739635 
L 95.474567 93.466157 
L 95.194727 93.133112 
L 94.431528 94.219293 
L 94.177129 95.148676 
L 93.871849 94.297493 
L 93.31217 95.341008 
L 93.28673 95.209909 
L 93.134091 94.741073 
L 91.912973 93.212735 
L 91.811213 89.804615 
L 91.734893 90.898739 
L 91.455054 89.541341 
L 91.378734 90.38963 
L 90.819055 89.944287 
L 90.488335 93.730966 
L 89.979536 92.529997 
L 89.547057 94.377271 
L 88.580338 93.593471 
L 88.249619 95.442229 
L 87.9189 94.347325 
L 87.46098 98.728262 
L 87.43554 98.203424 
L 87.308341 99.256661 
L 85.985463 98.962528 
L 85.858263 99.23934 
L 85.705623 98.892989 
L 85.451224 98.990809 
L 85.324024 94.893153 
L 85.171384 94.544332 
L 85.018745 100.118464 
L 84.942425 102.397052 
L 83.695867 100.021008 
L 83.466907 99.114094 
L 83.390587 98.393057 
L 82.932668 98.722649 
L 82.805468 96.92713 
L 82.780028 96.852676 
L 82.627389 96.755774 
L 82.601949 94.714842 
L 82.372989 99.253531 
L 81.94051 100.003104 
L 81.86419 98.894679 
L 81.024671 98.546552 
L 80.973792 96.40922 
L 79.167555 97.232043 
L 78.480676 99.013664 
L 78.455236 97.294775 
L 78.302596 97.723758 
L 78.099076 97.812463 
L 78.048197 97.920027 
L 77.920997 99.410844 
L 77.870117 98.591054 
L 77.513957 97.873774 
L 77.463078 97.479029 
L 77.361318 94.799624 
L 77.132358 93.126133 
L 76.470919 95.203918 
L 76.2674 97.901527 
L 76.06388 99.567889 
L 74.969962 94.891279 
L 74.715562 94.627049 
L 74.410283 98.399693 
L 74.359403 97.095131 
L 74.232203 96.898915 
L 74.028683 96.768976 
L 73.672524 97.27095 
L 72.833006 97.416699 
L 72.807566 96.797126 
L 72.629486 99.088095 
L 72.222447 99.116768 
L 71.535568 98.011784 
L 69.95829 99.514142 
L 69.703891 99.044925 
L 69.678451 102.697741 
L 69.602131 101.544766 
L 69.144212 100.633279 
L 68.635413 101.766288 
L 68.609973 100.492321 
L 67.236215 99.130282 
L 66.727416 99.246384 
L 65.989657 97.70045 
L 65.786138 96.728685 
L 65.735258 96.58282 
L 64.844859 94.765382 
L 64.69222 96.989721 
L 64.51414 100.257837 
L 64.38694 100.07257 
L 63.852701 104.933641 
L 63.725501 102.695235 
L 62.148224 122.202388 
L 61.919264 120.674726 
L 61.842944 119.493847 
L 60.291107 126.884963 
L 59.782308 124.516265 
L 59.705988 121.922527 
L 59.324389 116.963114 
L 59.044549 131.98831 
L 58.968229 143.401495 
L 58.35767 153.589964 
z
" clip-path="url(#pfd8d0cdb72)" style="fill: #1f77b4; fill-opacity: 0.5"/>
   </g>
   <g id="matplotlib.axis_1">
    <g id="xtick_1">
     <g id="line2d_1">
      <defs>
       <path id="ma414e44f04" d="M 0 0 
L 0 3.5 
" style="stroke: #000000; stroke-width: 0.8"/>
      </defs>
      <g>
       <use xlink:href="#ma414e44f04" x="57.899751" y="232.46" style="stroke: #000000; stroke-width: 0.8"/>
      </g>
     </g>
     <g id="line2d_2">
      <defs>
       <path id="mee93e4e4f6" d="M 0 0 
L 0 -3.5 
" style="stroke: #000000; stroke-width: 0.8"/>
      </defs>
      <g>
       <use xlink:href="#mee93e4e4f6" x="57.899751" y="10.7" style="stroke: #000000; stroke-width: 0.8"/>
      </g>
     </g>
     <g id="text_1">
      <!-- 0 -->
      <g transform="translate(54.718501 247.058437) scale(0.1 -0.1)">
       <defs>
        <path id="DejaVuSans-30" d="M 2034 4250 
Q 1547 4250 1301 3770 
Q 1056 3291 1056 2328 
Q 1056 1369 1301 889 
Q 1547 409 2034 409 
Q 2525 409 2770 889 
Q 3016 1369 3016 2328 
Q 3016 3291 2770 3770 
Q 2525 4250 2034 4250 
z
M 2034 4750 
Q 2819 4750 3233 4129 
Q 3647 3509 3647 2328 
Q 3647 1150 3233 529 
Q 2819 -91 2034 -91 
Q 1250 -91 836 529 
Q 422 1150 422 2328 
Q 422 3509 836 4129 
Q 1250 4750 2034 4750 
z
" transform="scale(0.015625)"/>
       </defs>
       <use xlink:href="#DejaVuSans-30"/>
      </g>
     </g>
    </g>
    <g id="xtick_2">
     <g id="line2d_3">
      <g>
       <use xlink:href="#ma414e44f04" x="144.136891" y="232.46" style="stroke: #000000; stroke-width: 0.8"/>
      </g>
     </g>
     <g id="line2d_4">
      <g>
       <use xlink:href="#mee93e4e4f6" x="144.136891" y="10.7" style="stroke: #000000; stroke-width: 0.8"/>
      </g>
     </g>
     <g id="text_2">
      <!-- 200000 -->
      <g transform="translate(125.049391 247.058437) scale(0.1 -0.1)">
       <defs>
        <path id="DejaVuSans-32" d="M 1228 531 
L 3431 531 
L 3431 0 
L 469 0 
L 469 531 
Q 828 903 1448 1529 
Q 2069 2156 2228 2338 
Q 2531 2678 2651 2914 
Q 2772 3150 2772 3378 
Q 2772 3750 2511 3984 
Q 2250 4219 1831 4219 
Q 1534 4219 1204 4116 
Q 875 4013 500 3803 
L 500 4441 
Q 881 4594 1212 4672 
Q 1544 4750 1819 4750 
Q 2544 4750 2975 4387 
Q 3406 4025 3406 3419 
Q 3406 3131 3298 2873 
Q 3191 2616 2906 2266 
Q 2828 2175 2409 1742 
Q 1991 1309 1228 531 
z
" transform="scale(0.015625)"/>
       </defs>
       <use xlink:href="#DejaVuSans-32"/>
       <use xlink:href="#DejaVuSans-30" x="63.623047"/>
       <use xlink:href="#DejaVuSans-30" x="127.246094"/>
       <use xlink:href="#DejaVuSans-30" x="190.869141"/>
       <use xlink:href="#DejaVuSans-30" x="254.492188"/>
       <use xlink:href="#DejaVuSans-30" x="318.115234"/>
      </g>
     </g>
    </g>
    <g id="xtick_3">
     <g id="line2d_5">
      <g>
       <use xlink:href="#ma414e44f04" x="230.374031" y="232.46" style="stroke: #000000; stroke-width: 0.8"/>
      </g>
     </g>
     <g id="line2d_6">
      <g>
       <use xlink:href="#mee93e4e4f6" x="230.374031" y="10.7" style="stroke: #000000; stroke-width: 0.8"/>
      </g>
     </g>
     <g id="text_3">
      <!-- 400000 -->
      <g transform="translate(211.286531 247.058437) scale(0.1 -0.1)">
       <defs>
        <path id="DejaVuSans-34" d="M 2419 4116 
L 825 1625 
L 2419 1625 
L 2419 4116 
z
M 2253 4666 
L 3047 4666 
L 3047 1625 
L 3713 1625 
L 3713 1100 
L 3047 1100 
L 3047 0 
L 2419 0 
L 2419 1100 
L 313 1100 
L 313 1709 
L 2253 4666 
z
" transform="scale(0.015625)"/>
       </defs>
       <use xlink:href="#DejaVuSans-34"/>
       <use xlink:href="#DejaVuSans-30" x="63.623047"/>
       <use xlink:href="#DejaVuSans-30" x="127.246094"/>
       <use xlink:href="#DejaVuSans-30" x="190.869141"/>
       <use xlink:href="#DejaVuSans-30" x="254.492188"/>
       <use xlink:href="#DejaVuSans-30" x="318.115234"/>
      </g>
     </g>
    </g>
    <g id="xtick_4">
     <g id="line2d_7">
      <g>
       <use xlink:href="#ma414e44f04" x="316.611171" y="232.46" style="stroke: #000000; stroke-width: 0.8"/>
      </g>
     </g>
     <g id="line2d_8">
      <g>
       <use xlink:href="#mee93e4e4f6" x="316.611171" y="10.7" style="stroke: #000000; stroke-width: 0.8"/>
      </g>
     </g>
     <g id="text_4">
      <!-- 600000 -->
      <g transform="translate(297.523671 247.058437) scale(0.1 -0.1)">
       <defs>
        <path id="DejaVuSans-36" d="M 2113 2584 
Q 1688 2584 1439 2293 
Q 1191 2003 1191 1497 
Q 1191 994 1439 701 
Q 1688 409 2113 409 
Q 2538 409 2786 701 
Q 3034 994 3034 1497 
Q 3034 2003 2786 2293 
Q 2538 2584 2113 2584 
z
M 3366 4563 
L 3366 3988 
Q 3128 4100 2886 4159 
Q 2644 4219 2406 4219 
Q 1781 4219 1451 3797 
Q 1122 3375 1075 2522 
Q 1259 2794 1537 2939 
Q 1816 3084 2150 3084 
Q 2853 3084 3261 2657 
Q 3669 2231 3669 1497 
Q 3669 778 3244 343 
Q 2819 -91 2113 -91 
Q 1303 -91 875 529 
Q 447 1150 447 2328 
Q 447 3434 972 4092 
Q 1497 4750 2381 4750 
Q 2619 4750 2861 4703 
Q 3103 4656 3366 4563 
z
" transform="scale(0.015625)"/>
       </defs>
       <use xlink:href="#DejaVuSans-36"/>
       <use xlink:href="#DejaVuSans-30" x="63.623047"/>
       <use xlink:href="#DejaVuSans-30" x="127.246094"/>
       <use xlink:href="#DejaVuSans-30" x="190.869141"/>
       <use xlink:href="#DejaVuSans-30" x="254.492188"/>
       <use xlink:href="#DejaVuSans-30" x="318.115234"/>
      </g>
     </g>
    </g>
    <g id="xtick_5">
     <g id="line2d_9">
      <g>
       <use xlink:href="#ma414e44f04" x="402.84831" y="232.46" style="stroke: #000000; stroke-width: 0.8"/>
      </g>
     </g>
     <g id="line2d_10">
      <g>
       <use xlink:href="#mee93e4e4f6" x="402.84831" y="10.7" style="stroke: #000000; stroke-width: 0.8"/>
      </g>
     </g>
     <g id="text_5">
      <!-- 800000 -->
      <g transform="translate(383.76081 247.058437) scale(0.1 -0.1)">
       <defs>
        <path id="DejaVuSans-38" d="M 2034 2216 
Q 1584 2216 1326 1975 
Q 1069 1734 1069 1313 
Q 1069 891 1326 650 
Q 1584 409 2034 409 
Q 2484 409 2743 651 
Q 3003 894 3003 1313 
Q 3003 1734 2745 1975 
Q 2488 2216 2034 2216 
z
M 1403 2484 
Q 997 2584 770 2862 
Q 544 3141 544 3541 
Q 544 4100 942 4425 
Q 1341 4750 2034 4750 
Q 2731 4750 3128 4425 
Q 3525 4100 3525 3541 
Q 3525 3141 3298 2862 
Q 3072 2584 2669 2484 
Q 3125 2378 3379 2068 
Q 3634 1759 3634 1313 
Q 3634 634 3220 271 
Q 2806 -91 2034 -91 
Q 1263 -91 848 271 
Q 434 634 434 1313 
Q 434 1759 690 2068 
Q 947 2378 1403 2484 
z
M 1172 3481 
Q 1172 3119 1398 2916 
Q 1625 2713 2034 2713 
Q 2441 2713 2670 2916 
Q 2900 3119 2900 3481 
Q 2900 3844 2670 4047 
Q 2441 4250 2034 4250 
Q 1625 4250 1398 4047 
Q 1172 3844 1172 3481 
z
" transform="scale(0.015625)"/>
       </defs>
       <use xlink:href="#DejaVuSans-38"/>
       <use xlink:href="#DejaVuSans-30" x="63.623047"/>
       <use xlink:href="#DejaVuSans-30" x="127.246094"/>
       <use xlink:href="#DejaVuSans-30" x="190.869141"/>
       <use xlink:href="#DejaVuSans-30" x="254.492188"/>
       <use xlink:href="#DejaVuSans-30" x="318.115234"/>
      </g>
     </g>
    </g>
    <g id="text_6">
     <!-- Environment steps -->
     <g transform="translate(188.970313 260.736562) scale(0.1 -0.1)">
      <defs>
       <path id="DejaVuSans-45" d="M 628 4666 
L 3578 4666 
L 3578 4134 
L 1259 4134 
L 1259 2753 
L 3481 2753 
L 3481 2222 
L 1259 2222 
L 1259 531 
L 3634 531 
L 3634 0 
L 628 0 
L 628 4666 
z
" transform="scale(0.015625)"/>
       <path id="DejaVuSans-6e" d="M 3513 2113 
L 3513 0 
L 2938 0 
L 2938 2094 
Q 2938 2591 2744 2837 
Q 2550 3084 2163 3084 
Q 1697 3084 1428 2787 
Q 1159 2491 1159 1978 
L 1159 0 
L 581 0 
L 581 3500 
L 1159 3500 
L 1159 2956 
Q 1366 3272 1645 3428 
Q 1925 3584 2291 3584 
Q 2894 3584 3203 3211 
Q 3513 2838 3513 2113 
z
" transform="scale(0.015625)"/>
       <path id="DejaVuSans-76" d="M 191 3500 
L 800 3500 
L 1894 563 
L 2988 3500 
L 3597 3500 
L 2284 0 
L 1503 0 
L 191 3500 
z
" transform="scale(0.015625)"/>
       <path id="DejaVuSans-69" d="M 603 3500 
L 1178 3500 
L 1178 0 
L 603 0 
L 603 3500 
z
M 603 4863 
L 1178 4863 
L 1178 4134 
L 603 4134 
L 603 4863 
z
" transform="scale(0.015625)"/>
       <path id="DejaVuSans-72" d="M 2631 2963 
Q 2534 3019 2420 3045 
Q 2306 3072 2169 3072 
Q 1681 3072 1420 2755 
Q 1159 2438 1159 1844 
L 1159 0 
L 581 0 
L 581 3500 
L 1159 3500 
L 1159 2956 
Q 1341 3275 1631 3429 
Q 1922 3584 2338 3584 
Q 2397 3584 2469 3576 
Q 2541 3569 2628 3553 
L 2631 2963 
z
" transform="scale(0.015625)"/>
       <path id="DejaVuSans-6f" d="M 1959 3097 
Q 1497 3097 1228 2736 
Q 959 2375 959 1747 
Q 959 1119 1226 758 
Q 1494 397 1959 397 
Q 2419 397 2687 759 
Q 2956 1122 2956 1747 
Q 2956 2369 2687 2733 
Q 2419 3097 1959 3097 
z
M 1959 3584 
Q 2709 3584 3137 3096 
Q 3566 2609 3566 1747 
Q 3566 888 3137 398 
Q 2709 -91 1959 -91 
Q 1206 -91 779 398 
Q 353 888 353 1747 
Q 353 2609 779 3096 
Q 1206 3584 1959 3584 
z
" transform="scale(0.015625)"/>
       <path id="DejaVuSans-6d" d="M 3328 2828 
Q 3544 3216 3844 3400 
Q 4144 3584 4550 3584 
Q 5097 3584 5394 3201 
Q 5691 2819 5691 2113 
L 5691 0 
L 5113 0 
L 5113 2094 
Q 5113 2597 4934 2840 
Q 4756 3084 4391 3084 
Q 3944 3084 3684 2787 
Q 3425 2491 3425 1978 
L 3425 0 
L 2847 0 
L 2847 2094 
Q 2847 2600 2669 2842 
Q 2491 3084 2119 3084 
Q 1678 3084 1418 2786 
Q 1159 2488 1159 1978 
L 1159 0 
L 581 0 
L 581 3500 
L 1159 3500 
L 1159 2956 
Q 1356 3278 1631 3431 
Q 1906 3584 2284 3584 
Q 2666 3584 2933 3390 
Q 3200 3197 3328 2828 
z
" transform="scale(0.015625)"/>
       <path id="DejaVuSans-65" d="M 3597 1894 
L 3597 1613 
L 953 1613 
Q 991 1019 1311 708 
Q 1631 397 2203 397 
Q 2534 397 2845 478 
Q 3156 559 3463 722 
L 3463 178 
Q 3153 47 2828 -22 
Q 2503 -91 2169 -91 
Q 1331 -91 842 396 
Q 353 884 353 1716 
Q 353 2575 817 3079 
Q 1281 3584 2069 3584 
Q 2775 3584 3186 3129 
Q 3597 2675 3597 1894 
z
M 3022 2063 
Q 3016 2534 2758 2815 
Q 2500 3097 2075 3097 
Q 1594 3097 1305 2825 
Q 1016 2553 972 2059 
L 3022 2063 
z
" transform="scale(0.015625)"/>
       <path id="DejaVuSans-74" d="M 1172 4494 
L 1172 3500 
L 2356 3500 
L 2356 3053 
L 1172 3053 
L 1172 1153 
Q 1172 725 1289 603 
Q 1406 481 1766 481 
L 2356 481 
L 2356 0 
L 1766 0 
Q 1100 0 847 248 
Q 594 497 594 1153 
L 594 3053 
L 172 3053 
L 172 3500 
L 594 3500 
L 594 4494 
L 1172 4494 
z
" transform="scale(0.015625)"/>
       <path id="DejaVuSans-20" transform="scale(0.015625)"/>
       <path id="DejaVuSans-73" d="M 2834 3397 
L 2834 2853 
Q 2591 2978 2328 3040 
Q 2066 3103 1784 3103 
Q 1356 3103 1142 2972 
Q 928 2841 928 2578 
Q 928 2378 1081 2264 
Q 1234 2150 1697 2047 
L 1894 2003 
Q 2506 1872 2764 1633 
Q 3022 1394 3022 966 
Q 3022 478 2636 193 
Q 2250 -91 1575 -91 
Q 1294 -91 989 -36 
Q 684 19 347 128 
L 347 722 
Q 666 556 975 473 
Q 1284 391 1588 391 
Q 1994 391 2212 530 
Q 2431 669 2431 922 
Q 2431 1156 2273 1281 
Q 2116 1406 1581 1522 
L 1381 1569 
Q 847 1681 609 1914 
Q 372 2147 372 2553 
Q 372 3047 722 3315 
Q 1072 3584 1716 3584 
Q 2034 3584 2315 3537 
Q 2597 3491 2834 3397 
z
" transform="scale(0.015625)"/>
       <path id="DejaVuSans-70" d="M 1159 525 
L 1159 -1331 
L 581 -1331 
L 581 3500 
L 1159 3500 
L 1159 2969 
Q 1341 3281 1617 3432 
Q 1894 3584 2278 3584 
Q 2916 3584 3314 3078 
Q 3713 2572 3713 1747 
Q 3713 922 3314 415 
Q 2916 -91 2278 -91 
Q 1894 -91 1617 61 
Q 1341 213 1159 525 
z
M 3116 1747 
Q 3116 2381 2855 2742 
Q 2594 3103 2138 3103 
Q 1681 3103 1420 2742 
Q 1159 2381 1159 1747 
Q 1159 1113 1420 752 
Q 1681 391 2138 391 
Q 2594 391 2855 752 
Q 3116 1113 3116 1747 
z
" transform="scale(0.015625)"/>
      </defs>
      <use xlink:href="#DejaVuSans-45"/>
      <use xlink:href="#DejaVuSans-6e" x="63.183594"/>
      <use xlink:href="#DejaVuSans-76" x="126.5625"/>
      <use xlink:href="#DejaVuSans-69" x="185.742188"/>
      <use xlink:href="#DejaVuSans-72" x="213.525391"/>
      <use xlink:href="#DejaVuSans-6f" x="252.388672"/>
      <use xlink:href="#DejaVuSans-6e" x="313.570312"/>
      <use xlink:href="#DejaVuSans-6d" x="376.949219"/>
      <use xlink:href="#DejaVuSans-65" x="474.361328"/>
      <use xlink:href="#DejaVuSans-6e" x="535.884766"/>
      <use xlink:href="#DejaVuSans-74" x="599.263672"/>
      <use xlink:href="#DejaVuSans-20" x="638.472656"/>
      <use xlink:href="#DejaVuSans-73" x="670.259766"/>
      <use xlink:href="#DejaVuSans-74" x="722.359375"/>
      <use xlink:href="#DejaVuSans-65" x="761.568359"/>
      <use xlink:href="#DejaVuSans-70" x="823.091797"/>
      <use xlink:href="#DejaVuSans-73" x="886.568359"/>
     </g>
    </g>
   </g>
   <g id="matplotlib.axis_2">
    <g id="ytick_1">
     <g id="line2d_11">
      <defs>
       <path id="m752e58e7c9" d="M 0 0 
L -3.5 0 
" style="stroke: #000000; stroke-width: 0.8"/>
      </defs>
      <g>
       <use xlink:href="#m752e58e7c9" x="40.603125" y="231.234758" style="stroke: #000000; stroke-width: 0.8"/>
      </g>
     </g>
     <g id="line2d_12">
      <defs>
       <path id="ma9ef93323c" d="M 0 0 
L 3.5 0 
" style="stroke: #000000; stroke-width: 0.8"/>
      </defs>
      <g>
       <use xlink:href="#ma9ef93323c" x="431.203125" y="231.234758" style="stroke: #000000; stroke-width: 0.8"/>
      </g>
     </g>
     <g id="text_7">
      <!-- 10 -->
      <g transform="translate(20.878125 235.033977) scale(0.1 -0.1)">
       <defs>
        <path id="DejaVuSans-31" d="M 794 531 
L 1825 531 
L 1825 4091 
L 703 3866 
L 703 4441 
L 1819 4666 
L 2450 4666 
L 2450 531 
L 3481 531 
L 3481 0 
L 794 0 
L 794 531 
z
" transform="scale(0.015625)"/>
       </defs>
       <use xlink:href="#DejaVuSans-31"/>
       <use xlink:href="#DejaVuSans-30" x="63.623047"/>
      </g>
     </g>
    </g>
    <g id="ytick_2">
     <g id="line2d_13">
      <g>
       <use xlink:href="#m752e58e7c9" x="40.603125" y="206.18805" style="stroke: #000000; stroke-width: 0.8"/>
      </g>
     </g>
     <g id="line2d_14">
      <g>
       <use xlink:href="#ma9ef93323c" x="431.203125" y="206.18805" style="stroke: #000000; stroke-width: 0.8"/>
      </g>
     </g>
     <g id="text_8">
      <!-- 20 -->
      <g transform="translate(20.878125 209.987269) scale(0.1 -0.1)">
       <use xlink:href="#DejaVuSans-32"/>
       <use xlink:href="#DejaVuSans-30" x="63.623047"/>
      </g>
     </g>
    </g>
    <g id="ytick_3">
     <g id="line2d_15">
      <g>
       <use xlink:href="#m752e58e7c9" x="40.603125" y="181.141343" style="stroke: #000000; stroke-width: 0.8"/>
      </g>
     </g>
     <g id="line2d_16">
      <g>
       <use xlink:href="#ma9ef93323c" x="431.203125" y="181.141343" style="stroke: #000000; stroke-width: 0.8"/>
      </g>
     </g>
     <g id="text_9">
      <!-- 30 -->
      <g transform="translate(20.878125 184.940561) scale(0.1 -0.1)">
       <defs>
        <path id="DejaVuSans-33" d="M 2597 2516 
Q 3050 2419 3304 2112 
Q 3559 1806 3559 1356 
Q 3559 666 3084 287 
Q 2609 -91 1734 -91 
Q 1441 -91 1130 -33 
Q 819 25 488 141 
L 488 750 
Q 750 597 1062 519 
Q 1375 441 1716 441 
Q 2309 441 2620 675 
Q 2931 909 2931 1356 
Q 2931 1769 2642 2001 
Q 2353 2234 1838 2234 
L 1294 2234 
L 1294 2753 
L 1863 2753 
Q 2328 2753 2575 2939 
Q 2822 3125 2822 3475 
Q 2822 3834 2567 4026 
Q 2313 4219 1838 4219 
Q 1578 4219 1281 4162 
Q 984 4106 628 3988 
L 628 4550 
Q 988 4650 1302 4700 
Q 1616 4750 1894 4750 
Q 2613 4750 3031 4423 
Q 3450 4097 3450 3541 
Q 3450 3153 3228 2886 
Q 3006 2619 2597 2516 
z
" transform="scale(0.015625)"/>
       </defs>
       <use xlink:href="#DejaVuSans-33"/>
       <use xlink:href="#DejaVuSans-30" x="63.623047"/>
      </g>
     </g>
    </g>
    <g id="ytick_4">
     <g id="line2d_17">
      <g>
       <use xlink:href="#m752e58e7c9" x="40.603125" y="156.094635" style="stroke: #000000; stroke-width: 0.8"/>
      </g>
     </g>
     <g id="line2d_18">
      <g>
       <use xlink:href="#ma9ef93323c" x="431.203125" y="156.094635" style="stroke: #000000; stroke-width: 0.8"/>
      </g>
     </g>
     <g id="text_10">
      <!-- 40 -->
      <g transform="translate(20.878125 159.893854) scale(0.1 -0.1)">
       <use xlink:href="#DejaVuSans-34"/>
       <use xlink:href="#DejaVuSans-30" x="63.623047"/>
      </g>
     </g>
    </g>
    <g id="ytick_5">
     <g id="line2d_19">
      <g>
       <use xlink:href="#m752e58e7c9" x="40.603125" y="131.047927" style="stroke: #000000; stroke-width: 0.8"/>
      </g>
     </g>
     <g id="line2d_20">
      <g>
       <use xlink:href="#ma9ef93323c" x="431.203125" y="131.047927" style="stroke: #000000; stroke-width: 0.8"/>
      </g>
     </g>
     <g id="text_11">
      <!-- 50 -->
      <g transform="translate(20.878125 134.847146) scale(0.1 -0.1)">
       <defs>
        <path id="DejaVuSans-35" d="M 691 4666 
L 3169 4666 
L 3169 4134 
L 1269 4134 
L 1269 2991 
Q 1406 3038 1543 3061 
Q 1681 3084 1819 3084 
Q 2600 3084 3056 2656 
Q 3513 2228 3513 1497 
Q 3513 744 3044 326 
Q 2575 -91 1722 -91 
Q 1428 -91 1123 -41 
Q 819 9 494 109 
L 494 744 
Q 775 591 1075 516 
Q 1375 441 1709 441 
Q 2250 441 2565 725 
Q 2881 1009 2881 1497 
Q 2881 1984 2565 2268 
Q 2250 2553 1709 2553 
Q 1456 2553 1204 2497 
Q 953 2441 691 2322 
L 691 4666 
z
" transform="scale(0.015625)"/>
       </defs>
       <use xlink:href="#DejaVuSans-35"/>
       <use xlink:href="#DejaVuSans-30" x="63.623047"/>
      </g>
     </g>
    </g>
    <g id="ytick_6">
     <g id="line2d_21">
      <g>
       <use xlink:href="#m752e58e7c9" x="40.603125" y="106.001219" style="stroke: #000000; stroke-width: 0.8"/>
      </g>
     </g>
     <g id="line2d_22">
      <g>
       <use xlink:href="#ma9ef93323c" x="431.203125" y="106.001219" style="stroke: #000000; stroke-width: 0.8"/>
      </g>
     </g>
     <g id="text_12">
      <!-- 60 -->
      <g transform="translate(20.878125 109.800438) scale(0.1 -0.1)">
       <use xlink:href="#DejaVuSans-36"/>
       <use xlink:href="#DejaVuSans-30" x="63.623047"/>
      </g>
     </g>
    </g>
    <g id="ytick_7">
     <g id="line2d_23">
      <g>
       <use xlink:href="#m752e58e7c9" x="40.603125" y="80.954512" style="stroke: #000000; stroke-width: 0.8"/>
      </g>
     </g>
     <g id="line2d_24">
      <g>
       <use xlink:href="#ma9ef93323c" x="431.203125" y="80.954512" style="stroke: #000000; stroke-width: 0.8"/>
      </g>
     </g>
     <g id="text_13">
      <!-- 70 -->
      <g transform="translate(20.878125 84.75373) scale(0.1 -0.1)">
       <defs>
        <path id="DejaVuSans-37" d="M 525 4666 
L 3525 4666 
L 3525 4397 
L 1831 0 
L 1172 0 
L 2766 4134 
L 525 4134 
L 525 4666 
z
" transform="scale(0.015625)"/>
       </defs>
       <use xlink:href="#DejaVuSans-37"/>
       <use xlink:href="#DejaVuSans-30" x="63.623047"/>
      </g>
     </g>
    </g>
    <g id="ytick_8">
     <g id="line2d_25">
      <g>
       <use xlink:href="#m752e58e7c9" x="40.603125" y="55.907804" style="stroke: #000000; stroke-width: 0.8"/>
      </g>
     </g>
     <g id="line2d_26">
      <g>
       <use xlink:href="#ma9ef93323c" x="431.203125" y="55.907804" style="stroke: #000000; stroke-width: 0.8"/>
      </g>
     </g>
     <g id="text_14">
      <!-- 80 -->
      <g transform="translate(20.878125 59.707023) scale(0.1 -0.1)">
       <use xlink:href="#DejaVuSans-38"/>
       <use xlink:href="#DejaVuSans-30" x="63.623047"/>
      </g>
     </g>
    </g>
    <g id="ytick_9">
     <g id="line2d_27">
      <g>
       <use xlink:href="#m752e58e7c9" x="40.603125" y="30.861096" style="stroke: #000000; stroke-width: 0.8"/>
      </g>
     </g>
     <g id="line2d_28">
      <g>
       <use xlink:href="#ma9ef93323c" x="431.203125" y="30.861096" style="stroke: #000000; stroke-width: 0.8"/>
      </g>
     </g>
     <g id="text_15">
      <!-- 90 -->
      <g transform="translate(20.878125 34.660315) scale(0.1 -0.1)">
       <defs>
        <path id="DejaVuSans-39" d="M 703 97 
L 703 672 
Q 941 559 1184 500 
Q 1428 441 1663 441 
Q 2288 441 2617 861 
Q 2947 1281 2994 2138 
Q 2813 1869 2534 1725 
Q 2256 1581 1919 1581 
Q 1219 1581 811 2004 
Q 403 2428 403 3163 
Q 403 3881 828 4315 
Q 1253 4750 1959 4750 
Q 2769 4750 3195 4129 
Q 3622 3509 3622 2328 
Q 3622 1225 3098 567 
Q 2575 -91 1691 -91 
Q 1453 -91 1209 -44 
Q 966 3 703 97 
z
M 1959 2075 
Q 2384 2075 2632 2365 
Q 2881 2656 2881 3163 
Q 2881 3666 2632 3958 
Q 2384 4250 1959 4250 
Q 1534 4250 1286 3958 
Q 1038 3666 1038 3163 
Q 1038 2656 1286 2365 
Q 1534 2075 1959 2075 
z
" transform="scale(0.015625)"/>
       </defs>
       <use xlink:href="#DejaVuSans-39"/>
       <use xlink:href="#DejaVuSans-30" x="63.623047"/>
      </g>
     </g>
    </g>
    <g id="text_16">
     <!-- Score -->
     <g transform="translate(14.798438 135.582344) rotate(-90) scale(0.1 -0.1)">
      <defs>
       <path id="DejaVuSans-53" d="M 3425 4513 
L 3425 3897 
Q 3066 4069 2747 4153 
Q 2428 4238 2131 4238 
Q 1616 4238 1336 4038 
Q 1056 3838 1056 3469 
Q 1056 3159 1242 3001 
Q 1428 2844 1947 2747 
L 2328 2669 
Q 3034 2534 3370 2195 
Q 3706 1856 3706 1288 
Q 3706 609 3251 259 
Q 2797 -91 1919 -91 
Q 1588 -91 1214 -16 
Q 841 59 441 206 
L 441 856 
Q 825 641 1194 531 
Q 1563 422 1919 422 
Q 2459 422 2753 634 
Q 3047 847 3047 1241 
Q 3047 1584 2836 1778 
Q 2625 1972 2144 2069 
L 1759 2144 
Q 1053 2284 737 2584 
Q 422 2884 422 3419 
Q 422 4038 858 4394 
Q 1294 4750 2059 4750 
Q 2388 4750 2728 4690 
Q 3069 4631 3425 4513 
z
" transform="scale(0.015625)"/>
       <path id="DejaVuSans-63" d="M 3122 3366 
L 3122 2828 
Q 2878 2963 2633 3030 
Q 2388 3097 2138 3097 
Q 1578 3097 1268 2742 
Q 959 2388 959 1747 
Q 959 1106 1268 751 
Q 1578 397 2138 397 
Q 2388 397 2633 464 
Q 2878 531 3122 666 
L 3122 134 
Q 2881 22 2623 -34 
Q 2366 -91 2075 -91 
Q 1284 -91 818 406 
Q 353 903 353 1747 
Q 353 2603 823 3093 
Q 1294 3584 2113 3584 
Q 2378 3584 2631 3529 
Q 2884 3475 3122 3366 
z
" transform="scale(0.015625)"/>
      </defs>
      <use xlink:href="#DejaVuSans-53"/>
      <use xlink:href="#DejaVuSans-63" x="63.476562"/>
      <use xlink:href="#DejaVuSans-6f" x="118.457031"/>
      <use xlink:href="#DejaVuSans-72" x="179.638672"/>
      <use xlink:href="#DejaVuSans-65" x="218.501953"/>
     </g>
    </g>
   </g>
   <g id="line2d_29">
    <path d="M 58.35767 153.589964 
L 58.968229 153.815385 
L 59.044549 154.484883 
L 59.324389 153.781774 
L 59.705988 153.9263 
L 59.782308 153.76593 
L 60.291107 153.986071 
L 61.842944 153.072507 
L 61.919264 153.463731 
L 62.148224 153.768078 
L 63.852701 151.787378 
L 64.38694 153.269118 
L 64.69222 151.354724 
L 64.844859 152.774304 
L 65.735258 153.174474 
L 65.786138 152.510678 
L 65.989657 153.294458 
L 66.727416 153.378463 
L 67.236215 152.708547 
L 68.635413 152.908665 
L 69.144212 154.356766 
L 69.602131 154.183482 
L 69.678451 154.691657 
L 69.703891 153.230944 
L 69.95829 152.866014 
L 71.535568 151.835771 
L 72.222447 152.188957 
L 72.629486 152.155847 
L 72.807566 153.927093 
L 72.833006 153.91698 
L 73.672524 153.456328 
L 74.028683 154.587439 
L 74.232203 154.707795 
L 74.410283 155.90108 
L 74.715562 154.479224 
L 74.969962 155.053667 
L 76.06388 154.709196 
L 76.2674 153.924218 
L 76.470919 152.261107 
L 77.361318 150.945793 
L 77.870117 151.475007 
L 77.920997 151.388176 
L 78.048197 150.627688 
L 78.099076 151.768518 
L 78.302596 151.672881 
L 78.455236 151.354693 
L 78.480676 152.774273 
L 79.167555 151.897063 
L 80.973792 153.300372 
L 81.024671 153.008499 
L 81.86419 153.476784 
L 81.94051 154.607281 
L 82.372989 154.125921 
L 82.601949 152.60704 
L 82.627389 151.659706 
L 82.780028 152.243594 
L 82.805468 152.133705 
L 82.932668 151.951973 
L 83.390587 152.902794 
L 83.466907 153.37425 
L 83.695867 153.606142 
L 84.942425 153.906217 
L 85.171384 158.266693 
L 85.324024 157.90097 
L 85.451224 158.372761 
L 85.705623 157.402736 
L 85.858263 157.438633 
L 85.985463 158.675695 
L 87.308341 159.424805 
L 87.43554 158.874059 
L 87.46098 159.316657 
L 87.9189 157.566914 
L 88.249619 158.123866 
L 88.580338 157.236448 
L 89.547057 157.728174 
L 89.979536 156.476926 
L 90.488335 157.74284 
L 90.819055 156.040311 
L 91.378734 156.267361 
L 91.455054 155.736198 
L 91.734893 156.047512 
L 91.811213 155.297524 
L 91.912973 155.997699 
L 93.134091 155.925467 
L 93.28673 156.456523 
L 93.31217 156.445666 
L 93.871849 155.834014 
L 94.177129 156.142393 
L 94.431528 155.61498 
L 95.474567 157.923079 
L 95.830726 156.924607 
L 96.644805 157.200268 
L 96.746564 156.565978 
L 97.382563 155.875577 
L 97.789603 154.830187 
L 97.815043 154.116719 
L 98.196642 154.025776 
L 98.298402 152.434759 
L 98.730881 154.498199 
L 99.621279 154.546092 
L 99.824799 155.41909 
L 100.689758 155.827952 
L 100.918717 157.714456 
L 101.376636 154.364804 
L 101.605596 153.890718 
L 101.961755 152.303753 
L 102.088955 148.900029 
L 102.317915 149.266147 
L 103.055674 148.04334 
L 103.208313 147.232917 
L 103.818872 145.169424 
L 104.353111 143.844098 
L 104.811031 144.963015 
L 105.03999 144.996404 
L 105.37071 143.976828 
L 105.447029 142.011019 
L 105.650549 141.005865 
L 106.668147 140.932547 
L 107.100627 140.335448 
L 107.355026 139.004861 
L 107.431346 137.41363 
L 107.940145 136.245838 
L 109.110383 131.797689 
L 109.542862 131.174075 
L 109.695502 131.245431 
L 110.636781 128.796964 
L 110.73854 127.97797 
L 110.94206 127.544088 
L 111.04382 125.62042 
L 111.2219 125.332405 
L 112.468457 125.12817 
L 112.977256 122.061632 
L 113.536936 120.377577 
L 113.638695 121.524229 
L 113.842215 120.382278 
L 114.147494 117.933375 
L 114.656294 117.19971 
L 114.936133 112.651406 
L 115.241413 112.301621 
L 115.317732 111.210927 
L 115.444932 111.355196 
L 116.335331 111.261942 
L 116.58973 110.57814 
L 116.89501 111.492794 
L 117.556449 110.877206 
L 117.785408 109.979525 
L 118.675807 109.409335 
L 118.752127 107.729909 
L 119.871485 107.152068 
L 120.303964 105.74731 
L 120.354844 105.304086 
L 120.482044 105.926121 
L 121.118042 105.252113 
L 121.143482 104.898886 
L 121.397882 104.781676 
L 121.448762 104.442561 
L 121.575962 104.489321 
L 121.932121 104.309258 
L 122.31372 102.778712 
L 122.84796 105.052892 
L 123.483958 105.231623 
L 124.043637 103.376207 
L 124.196277 105.10804 
L 124.628756 104.383435 
L 124.781396 103.530287 
L 125.442835 103.604415 
L 126.027954 102.924918 
L 126.206034 103.843748 
L 126.333234 102.78137 
L 126.842033 103.119689 
L 127.605231 102.773024 
L 127.961391 102.343889 
L 128.851789 102.528749 
L 128.877229 101.280401 
L 128.902669 102.924828 
L 131.192265 101.785679 
L 131.421225 101.311024 
L 131.573864 100.174348 
L 132.184423 99.898313 
L 133.380101 98.804019 
L 133.583621 97.667412 
L 134.499459 96.865465 
L 134.906499 98.191499 
L 134.982819 97.524109 
L 135.186338 97.252442 
L 135.262658 96.613224 
L 135.873217 96.218602 
L 135.974977 95.76068 
L 136.738176 94.865654 
L 137.323295 94.44832 
L 137.704894 94.494346 
L 138.162813 93.787591 
L 138.315453 94.22914 
L 138.722492 94.807722 
L 139.180411 94.091566 
L 139.205851 93.772594 
L 140.325209 92.871528 
L 140.426969 95.357682 
L 140.503289 94.661243 
L 141.139288 95.377143 
L 141.978807 94.343343 
L 142.563926 94.242239 
L 142.996405 92.941925 
L 143.785043 92.507163 
L 144.471922 93.137405 
L 144.599122 92.471358 
L 145.158801 93.553514 
L 145.64216 92.123583 
L 145.69304 92.840472 
L 146.02376 93.761276 
L 146.430799 92.475391 
L 147.168558 94.008268 
L 147.244878 93.691795 
L 148.542315 93.606266 
L 148.974795 93.827834 
L 149.483594 92.389673 
L 149.941513 91.520637 
L 149.992393 92.105335 
L 150.043273 91.62053 
L 150.195912 91.45083 
L 150.908231 91.0608 
L 151.264391 92.410694 
L 152.689028 92.517849 
L 153.070628 93.255539 
L 153.859266 92.285387 
L 154.062786 91.34434 
L 154.393505 90.506664 
L 154.520705 89.769259 
L 155.461983 87.96595 
L 156.199742 87.455046 
L 156.505022 86.95947 
L 158.005979 86.09663 
L 158.107739 86.768908 
L 158.387578 86.819896 
L 158.540218 85.591973 
L 158.692858 86.27939 
L 159.252537 85.518523 
L 159.888536 86.208144 
L 159.913976 87.403057 
L 160.219255 86.4582 
L 160.499095 86.518509 
L 160.575415 85.449908 
L 162.152692 85.188738 
L 162.178132 84.460591 
L 162.432531 84.655969 
L 164.289648 83.943804 
L 164.569488 84.154686 
L 164.645808 85.136239 
L 164.773007 84.860507 
L 164.798447 85.269308 
L 165.434446 85.215004 
L 165.561646 85.46289 
L 165.637966 85.327638 
L 166.350285 86.779376 
L 166.426605 86.45435 
L 166.452044 86.665055 
L 166.833644 87.996541 
L 167.240683 88.762102 
L 167.393323 88.527874 
L 167.724042 88.901794 
L 167.774922 88.212535 
L 168.105642 88.746196 
L 169.04692 88.287025 
L 169.657479 87.465928 
L 169.835559 86.970025 
L 169.988198 87.240401 
L 170.598757 86.901544 
L 170.675077 88.451356 
L 171.743555 87.92589 
L 172.176035 87.416188 
L 172.608514 87.372618 
L 172.633954 87.706056 
L 173.142753 88.17977 
L 173.219073 89.090115 
L 173.448032 88.094645 
L 174.363871 86.97876 
L 174.440191 86.046631 
L 174.84723 84.992186 
L 174.89811 86.899839 
L 175.635869 86.420919 
L 176.348187 87.684589 
L 176.551707 86.881566 
L 176.653467 87.229735 
L 176.856987 87.417179 
L 177.136826 86.622178 
L 177.798265 86.902989 
L 177.925465 86.123413 
L 178.332504 86.719747 
L 178.943063 85.937198 
L 179.172023 85.937998 
L 179.400982 86.089054 
L 179.706262 87.407126 
L 180.011541 87.063267 
L 180.062421 87.330845 
L 180.138741 86.688715 
L 181.029139 87.042669 
L 181.334419 86.935165 
L 181.817778 85.703784 
L 182.402897 85.937006 
L 182.911696 85.787531 
L 184.132814 85.725066 
L 184.361774 86.558771 
L 184.438094 85.939802 
L 184.488973 86.541645 
L 185.862731 86.361726 
L 186.37153 85.448108 
L 186.42241 85.012739 
L 186.44785 85.642394 
L 186.62593 85.802318 
L 187.083849 84.980623 
L 187.796168 87.414603 
L 188.508487 86.002071 
L 189.169925 84.948963 
L 189.297125 84.528569 
L 189.729604 84.571627 
L 190.187524 83.861993 
L 190.391043 82.873087 
L 191.179682 82.289549 
L 191.866561 82.399778 
L 193.469278 80.758201 
L 193.876317 80.38839 
L 194.232477 80.555654 
L 194.766716 80.417339 
L 195.784314 79.682053 
L 196.471193 79.827887 
L 197.412471 79.786546 
L 197.692311 79.220464 
L 197.84495 78.521084 
L 198.20111 78.894647 
L 198.25199 78.355322 
L 199.066068 78.283018 
L 199.676627 78.513443 
L 199.981907 78.812095 
L 200.032787 78.275247 
L 200.185426 78.055064 
L 201.126705 78.376702 
L 201.889904 77.649911 
L 201.991663 78.801011 
L 202.373263 78.865616 
L 203.416301 77.876321 
L 203.492621 78.043807 
L 204.408459 78.581969 
L 204.917258 78.280362 
L 205.171658 78.586007 
L 205.629577 78.206221 
L 205.655017 79.340632 
L 206.087496 79.238768 
L 206.163816 78.689119 
L 207.028775 78.606801 
L 207.079655 79.278353 
L 207.257734 78.727517 
L 207.944613 78.493766 
L 208.173573 77.515627 
L 208.707812 78.821035 
L 209.318371 78.584479 
L 209.445571 79.256701 
L 209.59821 78.255674 
L 210.285089 78.562059 
L 210.921088 79.942514 
L 211.429887 80.444147 
L 212.065886 80.384318 
L 212.625565 82.82776 
L 212.752765 81.869881 
L 213.210684 81.524239 
L 213.617723 80.906026 
L 213.872123 84.758314 
L 214.228282 85.846442 
L 214.330042 85.399123 
L 214.915161 84.965224 
L 215.144121 84.243782 
L 215.62748 85.046785 
L 215.907319 86.65224 
L 215.958199 86.631588 
L 216.110839 85.559595 
L 216.441558 87.149665 
L 216.899478 87.489791 
L 217.891636 87.368873 
L 218.476755 87.026162 
L 218.782034 85.39774 
L 219.214514 85.414723 
L 219.494353 85.205777 
L 219.774193 84.326838 
L 219.952272 84.375948 
L 220.104912 84.198165 
L 220.715471 83.875435 
L 222.114669 84.764629 
L 222.216429 87.43051 
L 223.132267 86.484829 
L 223.157707 86.8449 
L 223.259467 85.390806 
L 223.768266 85.182577 
L 223.793706 85.356296 
L 223.819146 84.172281 
L 224.022665 84.676868 
L 225.142024 84.828069 
L 225.320103 85.012423 
L 225.396423 84.740406 
L 225.879782 86.054491 
L 227.25354 87.178874 
L 227.482499 86.691582 
L 227.635139 87.318072 
L 228.322018 83.924448 
L 228.627298 84.962452 
L 229.314176 85.593615 
L 229.415936 85.003601 
L 229.975615 83.580091 
L 231.705532 82.599643 
L 232.061692 82.099448 
L 232.265211 81.614259 
L 232.621371 81.444186 
L 232.646811 80.377534 
L 233.308249 80.244563 
L 233.664409 81.167543 
L 234.300408 80.860592 
L 235.114486 79.695459 
L 235.775925 79.13211 
L 236.233844 80.088464 
L 236.335604 80.640426 
L 237.149683 82.203118 
L 237.633042 81.865099 
L 238.294481 82.213482 
L 238.67608 81.424312 
L 238.90504 82.498852 
L 239.464719 82.452522 
L 239.566479 83.384403 
L 239.922638 83.010946 
L 240.940236 84.073619 
L 241.398156 85.515312 
L 241.474475 85.153068 
L 241.957835 85.102251 
L 242.263114 83.809667 
L 243.204392 84.024572 
L 243.611432 84.984432 
L 243.891271 85.239235 
L 244.34919 84.359292 
L 244.60359 84.257149 
L 244.62903 83.331528 
L 244.959749 83.260218 
L 245.086949 84.243008 
L 245.112389 83.242672 
L 245.799268 83.770178 
L 246.180867 83.385147 
L 246.944066 83.011668 
L 247.249345 83.700852 
L 247.427425 83.317901 
L 247.681825 82.195038 
L 247.885344 80.800759 
L 248.139744 80.730232 
L 248.750303 80.436399 
L 248.979263 80.752503 
L 249.462622 80.908844 
L 249.895101 83.014137 
L 251.141659 83.62861 
L 251.548698 84.208446 
L 252.362777 83.359427 
L 252.795256 83.36242 
L 253.049656 83.665883 
L 253.176855 83.133701 
L 253.456695 82.842905 
L 253.609335 84.439336 
L 253.787414 83.73367 
L 254.245333 83.800576 
L 254.372533 83.414634 
L 254.499733 84.017091 
L 255.237492 82.660901 
L 255.313812 83.661671 
L 256.28053 85.155116 
L 256.585809 85.029098 
L 257.170928 85.057141 
L 257.298128 85.535183 
L 258.849966 85.848604 
L 258.875405 85.701781 
L 259.689484 85.784783 
L 260.986922 86.674506 
L 261.190441 86.352626 
L 261.215881 85.739841 
L 262.08084 85.295721 
L 262.360679 84.940064 
L 262.665959 84.219377 
L 263.098438 85.323673 
L 264.624836 84.741757 
L 265.235395 85.078981 
L 265.998593 83.903285 
L 266.100353 82.76286 
L 266.456512 82.332909 
L 266.888992 81.540156 
L 267.041631 81.672867 
L 268.11011 82.177297 
L 268.517149 81.990333 
L 268.796988 81.508418 
L 269.025948 82.168062 
L 269.229468 81.229974 
L 269.789147 81.505237 
L 270.068986 79.901338 
L 270.577785 79.482092 
L 270.781305 80.384383 
L 270.959385 80.025786 
L 271.010265 79.302246 
L 272.307702 78.900974 
L 272.587542 78.96258 
L 272.791062 78.421217 
L 273.299861 77.745814 
L 273.325301 77.766935 
L 273.376181 76.810601 
L 273.73234 76.333797 
L 273.8341 76.397278 
L 274.063059 77.886518 
L 274.088499 79.180799 
L 274.215699 79.234011 
L 274.342899 79.135346 
L 275.513137 78.946806 
L 275.818416 77.955076 
L 275.996496 77.894778 
L 276.123696 77.61087 
L 276.479855 77.560899 
L 276.708815 77.662707 
L 277.090414 78.512863 
L 277.370254 77.834711 
L 277.548333 77.778025 
L 277.573773 78.850141 
L 277.802733 78.312151 
L 278.769451 78.015721 
L 278.972971 78.103885 
L 278.998411 78.264544 
L 279.100171 77.744122 
L 279.914249 77.239313 
L 281.109927 77.350769 
L 281.211687 76.9329 
L 281.669606 76.903268 
L 281.796806 77.851347 
L 282.254725 77.944442 
L 282.331045 78.410444 
L 282.865284 78.336486 
L 283.145124 78.640447 
L 283.755683 78.559589 
L 283.933762 78.105456 
L 284.366242 77.890367 
L 284.417122 77.681731 
L 284.493441 76.878233 
L 285.02768 77.225942 
L 285.07856 76.586397 
L 285.20576 76.717441 
L 285.4856 76.243432 
L 285.790879 76.384764 
L 286.223358 76.897557 
L 286.681278 77.169546 
L 286.833917 77.583656 
L 286.961117 77.08366 
L 287.088317 77.049506 
L 287.546236 76.715815 
L 287.571676 77.819798 
L 288.258555 78.36468 
L 288.462075 77.540693 
L 288.716474 78.469649 
L 288.996314 78.243635 
L 289.530553 78.174681 
L 289.988472 78.708916 
L 290.802551 79.302265 
L 290.827991 78.750711 
L 290.98063 78.816825 
L 292.303508 78.730676 
L 292.354388 78.49683 
L 292.608787 79.772803 
L 292.786867 79.883394 
L 293.473746 80.967489 
L 294.007985 81.342801 
L 294.262385 82.157693 
L 294.669424 83.023279 
L 294.720304 82.585516 
L 295.712462 82.263703 
L 295.839662 82.524988 
L 296.119501 82.027033 
L 296.246701 81.393736 
L 297.340619 81.60598 
L 297.416939 81.886996 
L 297.925738 81.408181 
L 298.103818 81.089825 
L 298.765257 81.762027 
L 298.943337 81.587521 
L 300.520614 82.319932 
L 300.546054 82.72981 
L 300.775013 82.300851 
L 300.953093 82.410741 
L 301.029413 83.193595 
L 301.207493 82.224741 
L 301.283813 82.712615 
L 302.123331 80.695644 
L 302.403171 81.980792 
L 302.70845 80.298615 
L 302.73389 79.41661 
L 302.81021 79.537888 
L 303.420769 78.979265 
L 303.573409 79.038523 
L 304.158528 78.494881 
L 304.412927 79.695772 
L 304.616447 79.883815 
L 304.921726 78.863974 
L 306.168284 79.377531 
L 306.193724 78.523159 
L 306.397244 77.994978 
L 306.626203 78.534605 
L 308.228921 78.308683 
L 308.30524 77.786937 
L 309.322839 77.731684 
L 310.187797 77.992785 
L 312.197554 77.813973 
L 312.655473 79.185571 
L 313.571311 79.163499 
L 313.698511 78.916669 
L 313.723951 78.376684 
L 313.774831 79.055139 
L 314.13099 79.112121 
L 314.43627 78.716552 
L 315.021389 79.159391 
L 315.148589 78.386703 
L 315.174029 78.463737 
L 315.555628 78.08762 
L 315.708268 78.173627 
L 315.962667 77.806213 
L 316.573226 78.576923 
L 317.005705 79.775352 
L 317.565385 78.909045 
L 318.532103 77.708969 
L 318.608423 79.384278 
L 318.811942 78.679984 
L 319.218982 77.996818 
L 319.320741 77.033587 
L 319.447941 77.451776 
L 319.626021 79.525496 
L 320.516419 79.117526 
L 320.694499 79.322915 
L 321.610338 78.084854 
L 322.373536 78.621135 
L 322.449856 77.729618 
L 322.831455 77.177824 
L 323.111295 78.507841 
L 323.849054 78.731521 
L 324.205213 80.225873 
L 324.485053 79.721751 
L 324.841212 79.721722 
L 324.866652 79.157584 
L 325.578971 79.436912 
L 325.80793 79.33216 
L 326.01145 79.08027 
L 326.723769 77.206698 
L 327.741367 76.248494 
L 328.072086 76.615095 
L 328.148406 76.294437 
L 328.173846 75.532557 
L 328.301046 75.845496 
L 328.530006 75.472786 
L 328.911605 76.167948 
L 328.937045 76.461825 
L 329.369524 75.845205 
L 330.132723 76.299044 
L 330.387122 77.34039 
L 331.328401 77.599094 
L 331.55736 77.474336 
L 331.5828 77.879302 
L 331.73544 77.821278 
L 332.142479 77.013593 
L 332.320559 77.958362 
L 333.058318 77.839382 
L 333.287277 78.458817 
L 333.414477 77.782287 
L 333.694317 77.126052 
L 333.923276 77.466326 
L 334.279436 77.570972 
L 334.559275 77.822758 
L 335.551434 80.173171 
L 336.289192 79.782032 
L 336.518152 79.742067 
L 336.874311 79.177319 
L 337.026951 78.328953 
L 337.077831 78.558 
L 337.942789 78.930456 
L 338.095429 79.742579 
L 338.248069 79.778937 
L 338.298949 78.912523 
L 338.324389 79.124063 
L 338.578788 78.878416 
L 338.705988 78.564998 
L 339.062148 78.411263 
L 339.698146 77.668904 
L 340.334145 78.143173 
L 340.817505 78.753494 
L 341.046464 78.068123 
L 341.962303 78.755673 
L 342.191262 78.370797 
L 342.776381 77.997468 
L 342.852701 76.682952 
L 344.150139 76.886239 
L 344.429978 79.048758 
L 344.658938 78.80537 
L 345.091417 79.245545 
L 345.625656 79.146534 
L 346.007256 79.501334 
L 346.414295 79.094088 
L 346.923094 79.149901 
L 347.101174 78.302358 
L 347.279253 78.306782 
L 347.406453 78.010514 
L 348.195092 78.098834 
L 348.449491 77.383956 
L 349.31445 77.040232 
L 349.39077 76.8571 
L 349.746929 78.482825 
L 349.823249 77.805574 
L 350.103089 77.900042 
L 350.255728 77.165135 
L 350.968047 76.226855 
L 351.044367 75.917844 
L 351.069807 76.519785 
L 351.222447 76.803107 
L 351.273327 76.627088 
L 351.705806 75.704949 
L 352.138285 77.199407 
L 352.926924 75.348969 
L 353.919082 74.615454 
L 354.224361 74.805625 
L 354.275241 74.313831 
L 354.529641 75.565013 
L 354.80948 75.726698 
L 355.16564 75.001734 
L 355.21652 75.030037 
L 355.648999 74.90721 
L 356.132358 75.16377 
L 357.048197 75.938613 
L 357.735075 77.054831 
L 357.887715 78.223783 
L 358.116675 78.831686 
L 359.464992 78.068989 
L 359.490432 78.831816 
L 359.948352 79.271197 
L 360.66067 78.945996 
L 360.78787 79.907933 
L 361.11859 79.63877 
L 361.14403 79.077121 
L 361.474749 79.208583 
L 361.805468 78.350725 
L 361.856348 77.827718 
L 361.881788 78.071802 
L 362.390587 78.458844 
L 362.517787 78.383433 
L 362.873947 78.009725 
L 363.128346 78.84947 
L 363.433626 80.900471 
L 364.222264 80.830778 
L 365.112663 81.661032 
L 365.341622 81.188995 
L 366.68994 81.318655 
L 367.351379 81.962124 
L 367.453139 81.631335 
L 367.860178 81.38561 
L 368.190897 81.673238 
L 368.699697 82.403077 
L 368.928656 82.05906 
L 369.132176 81.274522 
L 370.048014 80.146541 
L 370.556813 80.245921 
L 370.633133 80.116898 
L 371.040173 80.367447 
L 371.727051 80.329256 
L 373.253449 80.272874 
L 373.507848 79.579791 
L 374.271047 79.395612 
L 374.830726 79.929567 
L 377.044002 77.831954 
L 377.196642 80.630675 
L 377.247522 80.49011 
L 377.781761 80.053201 
L 378.34144 79.77968 
L 380.249437 80.370585 
L 380.656476 80.989224 
L 380.961755 81.739584 
L 382.462713 81.490611 
L 382.869752 81.549668 
L 383.658391 82.433495 
L 383.86191 82.088565 
L 384.39615 81.603703 
L 385.032148 80.832826 
L 385.159348 80.385636 
L 385.490068 80.252422 
L 385.820787 80.574045 
L 385.973427 79.683777 
L 387.067345 79.248676 
L 387.194545 79.374992 
L 387.576144 78.670976 
L 388.339343 77.912941 
L 389.484141 79.859993 
L 390.17102 78.840867 
L 390.19646 78.002595 
L 390.399979 77.264611 
L 390.781579 76.747062 
L 391.010538 77.549547 
L 391.392137 76.975435 
L 391.493897 76.343406 
L 391.544777 76.481739 
L 391.926377 76.014801 
L 392.384296 75.111031 
L 392.842215 76.338297 
L 393.223814 76.251363 
L 393.554534 78.28309 
L 393.859813 77.762111 
L 393.885253 77.857883 
L 393.987013 77.199381 
L 396.200289 77.016969 
L 396.581889 75.614628 
L 397.497727 75.474264 
L 397.624927 75.788952 
L 398.846045 75.643358 
L 398.947804 75.502132 
L 399.456604 75.966264 
L 400.677722 76.792173 
L 400.703161 76.992183 
L 401.3646 78.012734 
L 401.44092 77.199306 
L 402.509398 76.785981 
L 402.916438 77.211598 
L 403.806836 76.422204 
L 404.544595 78.985014 
L 405.384113 79.119239 
L 405.816593 78.648317 
L 405.892913 81.272267 
L 405.969232 81.112454 
L 406.299952 80.807155 
L 406.986831 80.886716 
L 407.62283 81.407687 
L 407.800909 80.49241 
L 408.207949 80.731693 
L 408.360588 80.588098 
L 408.894827 82.402453 
L 409.225547 82.734715 
L 409.505386 82.606169 
L 410.115945 83.458301 
L 410.701064 83.383187 
L 410.777384 85.789951 
L 411.108104 85.644888 
L 411.209863 85.353896 
L 411.362503 84.470514 
L 411.896742 84.289893 
L 412.202022 84.490392 
L 412.456421 84.384316 
L 412.481861 84.807403 
L 413.2705 84.444831 
L 413.29594 84.189841 
L 413.44858 83.79222 
L 413.44858 83.79222 
" clip-path="url(#pfd8d0cdb72)" style="fill: none; stroke: #1f77b4; stroke-width: 1.5; stroke-linecap: square"/>
   </g>
   <g id="patch_3">
    <path d="M 40.603125 232.46 
L 40.603125 10.7 
" style="fill: none; stroke: #000000; stroke-width: 0.8; stroke-linejoin: miter; stroke-linecap: square"/>
   </g>
   <g id="patch_4">
    <path d="M 431.203125 232.46 
L 431.203125 10.7 
" style="fill: none; stroke: #000000; stroke-width: 0.8; stroke-linejoin: miter; stroke-linecap: square"/>
   </g>
   <g id="patch_5">
    <path d="M 40.603125 232.46 
L 431.203125 232.46 
" style="fill: none; stroke: #000000; stroke-width: 0.8; stroke-linejoin: miter; stroke-linecap: square"/>
   </g>
   <g id="patch_6">
    <path d="M 40.603125 10.7 
L 431.203125 10.7 
" style="fill: none; stroke: #000000; stroke-width: 0.8; stroke-linejoin: miter; stroke-linecap: square"/>
   </g>
  </g>
 </g>
 <defs>
  <clipPath id="pfd8d0cdb72">
   <rect x="40.603125" y="10.7" width="390.6" height="221.76"/>
  </clipPath>
 </defs>
</svg>
